STARTFONT 2.1
COMMENT
COMMENT Converted from OpenType font "NimbusSans-Regular.otf" by "otf2bdf 3.0".
COMMENT
FONT -FreeType-Nimbus Sans-Medium-R-Normal--22-160-100-100-P-117-ISO10646-1
SIZE 16 100 100
FONTBOUNDINGBOX 28 31 -5 -7
STARTPROPERTIES 19
FOUNDRY "FreeType"
FAMILY_NAME "Nimbus Sans"
WEIGHT_NAME "Medium"
SLANT "R"
SETWIDTH_NAME "Normal"
ADD_STYLE_NAME ""
PIXEL_SIZE 22
POINT_SIZE 160
RESOLUTION_X 100
RESOLUTION_Y 100
SPACING "P"
AVERAGE_WIDTH 117
CHARSET_REGISTRY "ISO10646"
CHARSET_ENCODING "1"
FONT_ASCENT 16
FONT_DESCENT 5
COPYRIGHT "(URW)++,Copyright 2014 by (URW)++ Design & Development"
_OTF_FONTFILE "NimbusSans-Regular.otf"
_OTF_PSNAME "NimbusSans-Regular"
ENDPROPERTIES
CHARS 854
STARTCHAR 0020
ENCODING 32
SWIDTH 270 0
DWIDTH 6 0
BBX 0 0 0 0
BITMAP
ENDCHAR
STARTCHAR 0021
ENCODING 33
SWIDTH 270 0
DWIDTH 6 0
BBX 2 16 3 0
BITMAP
C0
C0
C0
C0
C0
C0
C0
C0
C0
80
80
80
00
00
C0
C0
ENDCHAR
STARTCHAR 0022
ENCODING 34
SWIDTH 360 0
DWIDTH 8 0
BBX 6 6 1 10
BITMAP
CC
CC
CC
CC
48
48
ENDCHAR
STARTCHAR 0023
ENCODING 35
SWIDTH 540 0
DWIDTH 12 0
BBX 12 16 0 0
BITMAP
0460
0C60
0C40
0CC0
7CC0
7FF0
18C0
1880
1880
1980
FFE0
FFE0
3180
3100
3300
2300
ENDCHAR
STARTCHAR 0024
ENCODING 36
SWIDTH 540 0
DWIDTH 12 0
BBX 11 20 1 -3
BITMAP
0400
1F00
7F80
64C0
C4C0
C400
C400
6400
7E00
1F80
05C0
04E0
C460
C460
C4C0
65C0
7F80
0C00
0400
0400
ENDCHAR
STARTCHAR 0025
ENCODING 37
SWIDTH 900 0
DWIDTH 20 0
BBX 18 16 1 0
BITMAP
100C00
7C0800
C61800
821000
822000
C66000
7C4000
10C000
008200
018F80
0118C0
0310C0
021040
0610C0
041F80
080F00
ENDCHAR
STARTCHAR 0026
ENCODING 38
SWIDTH 675 0
DWIDTH 15 0
BBX 13 16 1 0
BITMAP
0F00
1F80
3180
3080
3180
1B80
1F00
1E00
3630
6330
C1E0
C0E0
C0C0
61E0
7FB0
3E38
ENDCHAR
STARTCHAR 0027
ENCODING 39
SWIDTH 180 0
DWIDTH 4 0
BBX 2 6 1 10
BITMAP
C0
C0
C0
C0
C0
40
ENDCHAR
STARTCHAR 0028
ENCODING 40
SWIDTH 315 0
DWIDTH 7 0
BBX 4 21 2 -5
BITMAP
10
30
20
60
40
C0
C0
C0
C0
80
80
80
C0
C0
C0
C0
40
60
20
30
10
ENDCHAR
STARTCHAR 0029
ENCODING 41
SWIDTH 315 0
DWIDTH 7 0
BBX 5 21 1 -5
BITMAP
80
40
60
20
30
30
30
10
18
18
18
18
18
10
30
30
20
20
60
40
80
ENDCHAR
STARTCHAR 002A
ENCODING 42
SWIDTH 405 0
DWIDTH 9 0
BBX 6 6 1 10
BITMAP
10
10
FC
38
38
4C
ENDCHAR
STARTCHAR 002B
ENCODING 43
SWIDTH 585 0
DWIDTH 13 0
BBX 11 11 1 0
BITMAP
0400
0400
0400
0400
0400
FFE0
FFE0
0400
0400
0400
0400
ENDCHAR
STARTCHAR 002C
ENCODING 44
SWIDTH 270 0
DWIDTH 6 0
BBX 2 5 2 -3
BITMAP
C0
C0
40
40
C0
ENDCHAR
STARTCHAR 002D
ENCODING 45
SWIDTH 315 0
DWIDTH 7 0
BBX 5 2 1 5
BITMAP
F8
F8
ENDCHAR
STARTCHAR 002E
ENCODING 46
SWIDTH 270 0
DWIDTH 6 0
BBX 2 2 2 0
BITMAP
C0
C0
ENDCHAR
STARTCHAR 002F
ENCODING 47
SWIDTH 270 0
DWIDTH 6 0
BBX 6 16 0 0
BITMAP
04
04
08
08
08
10
10
10
20
20
20
60
40
40
C0
80
ENDCHAR
STARTCHAR 0030
ENCODING 48
SWIDTH 540 0
DWIDTH 12 0
BBX 10 16 1 0
BITMAP
1E00
3F80
6180
60C0
C0C0
C0C0
C0C0
C0C0
C0C0
C0C0
C0C0
C0C0
60C0
6180
3F80
1E00
ENDCHAR
STARTCHAR 0031
ENCODING 49
SWIDTH 540 0
DWIDTH 12 0
BBX 6 16 2 0
BITMAP
0C
0C
1C
FC
FC
0C
0C
0C
0C
0C
0C
0C
0C
0C
0C
0C
ENDCHAR
STARTCHAR 0032
ENCODING 50
SWIDTH 540 0
DWIDTH 12 0
BBX 10 16 1 0
BITMAP
1F00
7F80
61C0
C0C0
C0C0
C0C0
00C0
0180
0700
0E00
3800
7000
E000
C000
FFC0
FFC0
ENDCHAR
STARTCHAR 0033
ENCODING 51
SWIDTH 540 0
DWIDTH 12 0
BBX 10 16 1 0
BITMAP
3E00
7F80
6180
C0C0
C0C0
00C0
0380
0F00
0380
00C0
00C0
C0C0
C0C0
E1C0
7F80
3E00
ENDCHAR
STARTCHAR 0034
ENCODING 52
SWIDTH 540 0
DWIDTH 12 0
BBX 11 16 1 0
BITMAP
0300
0300
0700
0F00
1B00
1B00
3300
6300
6300
C300
FFE0
FFE0
0300
0300
0300
0300
ENDCHAR
STARTCHAR 0035
ENCODING 53
SWIDTH 540 0
DWIDTH 12 0
BBX 10 16 1 0
BITMAP
7FC0
7FC0
6000
6000
6000
4E00
7F80
E1C0
00C0
00C0
00C0
00C0
C0C0
E1C0
7F80
1E00
ENDCHAR
STARTCHAR 0036
ENCODING 54
SWIDTH 540 0
DWIDTH 12 0
BBX 10 16 1 0
BITMAP
1F00
3F80
61C0
60C0
C000
C000
DF00
FF80
E1C0
C0C0
C0C0
C0C0
C0C0
61C0
3F80
1F00
ENDCHAR
STARTCHAR 0037
ENCODING 55
SWIDTH 540 0
DWIDTH 12 0
BBX 11 16 1 0
BITMAP
FFE0
FFE0
00C0
0180
0180
0300
0200
0600
0400
0C00
0C00
1800
1800
1800
3000
3000
ENDCHAR
STARTCHAR 0038
ENCODING 56
SWIDTH 540 0
DWIDTH 12 0
BBX 10 16 1 0
BITMAP
1E00
7F80
61C0
C0C0
C0C0
61C0
3F80
3F00
61C0
C0C0
C0C0
C0C0
C0C0
E1C0
7F80
1F00
ENDCHAR
STARTCHAR 0039
ENCODING 57
SWIDTH 540 0
DWIDTH 12 0
BBX 10 16 1 0
BITMAP
1E00
7F80
6180
C0C0
C0C0
C0C0
C0C0
E1C0
7FC0
3EC0
00C0
00C0
C1C0
6180
7F00
3E00
ENDCHAR
STARTCHAR 003A
ENCODING 58
SWIDTH 270 0
DWIDTH 6 0
BBX 3 12 2 0
BITMAP
E0
E0
00
00
00
00
00
00
00
00
E0
E0
ENDCHAR
STARTCHAR 003B
ENCODING 59
SWIDTH 270 0
DWIDTH 6 0
BBX 3 15 2 -3
BITMAP
E0
E0
00
00
00
00
00
00
00
00
E0
E0
20
20
C0
ENDCHAR
STARTCHAR 003C
ENCODING 60
SWIDTH 585 0
DWIDTH 13 0
BBX 11 11 1 0
BITMAP
0020
00E0
03C0
1E00
7800
C000
F000
1E00
0780
01E0
0020
ENDCHAR
STARTCHAR 003D
ENCODING 61
SWIDTH 585 0
DWIDTH 13 0
BBX 11 6 1 2
BITMAP
FFE0
FFE0
0000
0000
FFE0
FFE0
ENDCHAR
STARTCHAR 003E
ENCODING 62
SWIDTH 585 0
DWIDTH 13 0
BBX 11 11 1 0
BITMAP
8000
E000
7800
0F00
03C0
00E0
01E0
0F00
3C00
F000
8000
ENDCHAR
STARTCHAR 003F
ENCODING 63
SWIDTH 540 0
DWIDTH 12 0
BBX 9 16 2 0
BITMAP
3E00
7F00
C180
C180
C180
0180
0380
0700
0E00
1C00
1800
1800
0000
0000
1800
1800
ENDCHAR
STARTCHAR 0040
ENCODING 64
SWIDTH 1035 0
DWIDTH 23 0
BBX 20 19 1 -3
BITMAP
01FC00
07FF00
0E03C0
3800C0
300060
60FA70
638E30
C30E30
C60E30
C60C30
C60C30
C60C60
C718E0
C3EFC0
600F00
300000
1C0000
0FFE00
03FC00
ENDCHAR
STARTCHAR 0041
ENCODING 65
SWIDTH 675 0
DWIDTH 15 0
BBX 13 16 1 0
BITMAP
0700
0700
0D80
0D80
0D80
18C0
18C0
30C0
3060
3FE0
7FF0
6030
6030
C038
C018
C018
ENDCHAR
STARTCHAR 0042
ENCODING 66
SWIDTH 675 0
DWIDTH 15 0
BBX 12 16 2 0
BITMAP
FF80
FFC0
C0E0
C060
C060
C060
C0C0
FF80
FFC0
C060
C030
C030
C030
C060
FFE0
FF80
ENDCHAR
STARTCHAR 0043
ENCODING 67
SWIDTH 720 0
DWIDTH 16 0
BBX 14 16 1 0
BITMAP
07C0
1FF0
3838
6018
601C
C000
C000
C000
C000
C000
C00C
600C
7018
3838
1FF0
0FC0
ENDCHAR
STARTCHAR 0044
ENCODING 68
SWIDTH 720 0
DWIDTH 16 0
BBX 13 16 2 0
BITMAP
FF80
FFC0
C060
C030
C030
C038
C018
C018
C018
C018
C038
C030
C030
C060
FFC0
FF80
ENDCHAR
STARTCHAR 0045
ENCODING 69
SWIDTH 675 0
DWIDTH 15 0
BBX 12 16 2 0
BITMAP
FFE0
FFE0
C000
C000
C000
C000
C000
FFE0
FFE0
C000
C000
C000
C000
C000
FFF0
FFF0
ENDCHAR
STARTCHAR 0046
ENCODING 70
SWIDTH 630 0
DWIDTH 14 0
BBX 11 16 2 0
BITMAP
FFE0
FFE0
C000
C000
C000
C000
C000
FFC0
FFC0
C000
C000
C000
C000
C000
C000
C000
ENDCHAR
STARTCHAR 0047
ENCODING 71
SWIDTH 765 0
DWIDTH 17 0
BBX 15 16 1 0
BITMAP
07E0
1FF8
381C
700C
600C
C000
C000
C0FE
C0FE
C006
C006
600E
700E
381E
1FF6
07C6
ENDCHAR
STARTCHAR 0048
ENCODING 72
SWIDTH 720 0
DWIDTH 16 0
BBX 12 16 2 0
BITMAP
C030
C030
C030
C030
C030
C030
C030
FFF0
FFF0
C030
C030
C030
C030
C030
C030
C030
ENDCHAR
STARTCHAR 0049
ENCODING 73
SWIDTH 270 0
DWIDTH 6 0
BBX 2 16 2 0
BITMAP
C0
C0
C0
C0
C0
C0
C0
C0
C0
C0
C0
C0
C0
C0
C0
C0
ENDCHAR
STARTCHAR 004A
ENCODING 74
SWIDTH 495 0
DWIDTH 11 0
BBX 9 16 0 0
BITMAP
0180
0180
0180
0180
0180
0180
0180
0180
0180
0180
C180
C180
E180
6180
7F00
1E00
ENDCHAR
STARTCHAR 004B
ENCODING 75
SWIDTH 675 0
DWIDTH 15 0
BBX 12 16 2 0
BITMAP
C070
C0E0
C1C0
C380
C700
CE00
DC00
FE00
F600
E300
C380
C180
C0C0
C0E0
C070
C030
ENDCHAR
STARTCHAR 004C
ENCODING 76
SWIDTH 540 0
DWIDTH 12 0
BBX 10 16 2 0
BITMAP
C000
C000
C000
C000
C000
C000
C000
C000
C000
C000
C000
C000
C000
C000
FFC0
FFC0
ENDCHAR
STARTCHAR 004D
ENCODING 77
SWIDTH 855 0
DWIDTH 19 0
BBX 15 16 2 0
BITMAP
E00E
E00E
E01E
F01E
F016
D036
D836
D826
C866
CC66
CCC6
C4C6
C6C6
C786
C386
C386
ENDCHAR
STARTCHAR 004E
ENCODING 78
SWIDTH 720 0
DWIDTH 16 0
BBX 12 16 2 0
BITMAP
C030
E030
F030
F030
D830
D830
CC30
C630
C630
C330
C3B0
C1B0
C0F0
C0F0
C070
C030
ENDCHAR
STARTCHAR 004F
ENCODING 79
SWIDTH 765 0
DWIDTH 17 0
BBX 15 16 1 0
BITMAP
07E0
1FF8
381C
700C
6006
C006
C006
C006
C006
C006
C006
6006
600C
381C
1FF0
07E0
ENDCHAR
STARTCHAR 0050
ENCODING 80
SWIDTH 675 0
DWIDTH 15 0
BBX 12 16 2 0
BITMAP
FF80
FFE0
C060
C070
C030
C070
C060
FFE0
FF80
C000
C000
C000
C000
C000
C000
C000
ENDCHAR
STARTCHAR 0051
ENCODING 81
SWIDTH 765 0
DWIDTH 17 0
BBX 15 16 1 -1
BITMAP
07E0
1FF0
383C
700C
6006
C006
C006
C006
C006
C006
C006
6046
606C
3838
1FFC
07E6
ENDCHAR
STARTCHAR 0052
ENCODING 82
SWIDTH 720 0
DWIDTH 16 0
BBX 13 16 2 0
BITMAP
FFC0
FFF0
C030
C030
C030
C030
C030
FFE0
FFE0
C070
C030
C030
C030
C030
C030
C038
ENDCHAR
STARTCHAR 0053
ENCODING 83
SWIDTH 675 0
DWIDTH 15 0
BBX 13 16 1 0
BITMAP
1F80
3FE0
7070
6030
6030
6000
7800
3F80
03E0
0070
0038
C018
E038
7030
3FE0
1FC0
ENDCHAR
STARTCHAR 0054
ENCODING 84
SWIDTH 630 0
DWIDTH 14 0
BBX 13 16 0 0
BITMAP
FFF8
FFF8
0300
0300
0300
0300
0300
0300
0300
0300
0300
0300
0300
0300
0300
0300
ENDCHAR
STARTCHAR 0055
ENCODING 85
SWIDTH 720 0
DWIDTH 16 0
BBX 12 16 2 0
BITMAP
C030
C030
C030
C030
C030
C030
C030
C030
C030
C030
C030
C030
C030
6070
7FE0
1F80
ENDCHAR
STARTCHAR 0056
ENCODING 86
SWIDTH 675 0
DWIDTH 15 0
BBX 13 16 1 0
BITMAP
C018
C018
6030
6030
6030
3060
3060
3860
18C0
18C0
1CC0
0D80
0D80
0780
0700
0700
ENDCHAR
STARTCHAR 0057
ENCODING 87
SWIDTH 945 0
DWIDTH 21 0
BBX 19 16 1 0
BITMAP
C0E060
C0E060
C0E060
E1B060
61B0C0
61B0C0
6198C0
7318C0
331980
331980
320D80
360D80
1E0F00
1E0700
1C0700
0C0700
ENDCHAR
STARTCHAR 0058
ENCODING 88
SWIDTH 675 0
DWIDTH 15 0
BBX 13 16 1 0
BITMAP
E038
6030
3060
38E0
18C0
0D80
0F80
0700
0700
0D80
1DC0
18C0
3060
7070
6030
C018
ENDCHAR
STARTCHAR 0059
ENCODING 89
SWIDTH 675 0
DWIDTH 15 0
BBX 13 16 1 0
BITMAP
C018
E038
6030
3060
3860
18C0
1DC0
0D80
0700
0700
0300
0300
0300
0300
0300
0300
ENDCHAR
STARTCHAR 005A
ENCODING 90
SWIDTH 630 0
DWIDTH 14 0
BBX 12 16 1 0
BITMAP
FFF0
FFF0
0060
00E0
01C0
0380
0300
0600
0E00
1C00
1800
3000
7000
E000
FFF0
FFF0
ENDCHAR
STARTCHAR 005B
ENCODING 91
SWIDTH 270 0
DWIDTH 6 0
BBX 5 21 1 -5
BITMAP
F8
F8
C0
C0
C0
C0
C0
C0
C0
C0
C0
C0
C0
C0
C0
C0
C0
C0
C0
F8
F8
ENDCHAR
STARTCHAR 005C
ENCODING 92
SWIDTH 270 0
DWIDTH 6 0
BBX 6 16 0 0
BITMAP
80
C0
40
40
60
20
20
20
10
10
10
08
08
08
04
04
ENDCHAR
STARTCHAR 005D
ENCODING 93
SWIDTH 270 0
DWIDTH 6 0
BBX 4 21 1 -5
BITMAP
F0
F0
30
30
30
30
30
30
30
30
30
30
30
30
30
30
30
30
30
F0
F0
ENDCHAR
STARTCHAR 005E
ENCODING 94
SWIDTH 450 0
DWIDTH 10 0
BBX 8 9 1 7
BITMAP
18
18
3C
34
26
62
43
C3
C1
ENDCHAR
STARTCHAR 005F
ENCODING 95
SWIDTH 540 0
DWIDTH 12 0
BBX 13 1 0 -4
BITMAP
FFF8
ENDCHAR
STARTCHAR 0060
ENCODING 96
SWIDTH 315 0
DWIDTH 7 0
BBX 4 3 1 13
BITMAP
C0
60
30
ENDCHAR
STARTCHAR 0061
ENCODING 97
SWIDTH 540 0
DWIDTH 12 0
BBX 11 12 1 0
BITMAP
3F00
7F80
6180
C080
0180
1F80
7880
C080
C080
C180
FEE0
3CE0
ENDCHAR
STARTCHAR 0062
ENCODING 98
SWIDTH 540 0
DWIDTH 12 0
BBX 11 16 1 0
BITMAP
C000
C000
C000
C000
CF00
FF80
E1C0
E0C0
C0E0
C060
C060
C040
E0C0
E1C0
FF80
DF00
ENDCHAR
STARTCHAR 0063
ENCODING 99
SWIDTH 495 0
DWIDTH 11 0
BBX 9 12 1 0
BITMAP
1E00
7F00
6180
C180
C000
C000
C000
C000
C180
E180
7F00
1E00
ENDCHAR
STARTCHAR 0064
ENCODING 100
SWIDTH 540 0
DWIDTH 12 0
BBX 10 16 1 0
BITMAP
00C0
00C0
00C0
00C0
3EC0
7FC0
E1C0
C0C0
C0C0
C0C0
C0C0
C0C0
C0C0
E1C0
7FC0
3EC0
ENDCHAR
STARTCHAR 0065
ENCODING 101
SWIDTH 540 0
DWIDTH 12 0
BBX 10 12 1 0
BITMAP
1F00
7F80
61C0
C0C0
C0C0
FFC0
FFC0
C000
C0C0
61C0
7F80
1F00
ENDCHAR
STARTCHAR 0066
ENCODING 102
SWIDTH 270 0
DWIDTH 6 0
BBX 6 16 0 0
BITMAP
1C
3C
30
30
FC
FC
30
30
30
30
30
30
30
30
30
30
ENDCHAR
STARTCHAR 0067
ENCODING 103
SWIDTH 540 0
DWIDTH 12 0
BBX 10 17 1 -5
BITMAP
1EC0
7FC0
61C0
C1C0
C0C0
C0C0
C0C0
C0C0
C1C0
61C0
7EC0
1CC0
0080
C180
6180
7F00
0C00
ENDCHAR
STARTCHAR 0068
ENCODING 104
SWIDTH 540 0
DWIDTH 12 0
BBX 9 16 2 0
BITMAP
8000
8000
8000
8000
9E00
BF00
C180
C180
8180
8180
8180
8180
8180
8180
8180
8180
ENDCHAR
STARTCHAR 0069
ENCODING 105
SWIDTH 225 0
DWIDTH 5 0
BBX 2 16 1 0
BITMAP
C0
C0
00
00
C0
C0
C0
C0
C0
C0
C0
C0
C0
C0
C0
C0
ENDCHAR
STARTCHAR 006A
ENCODING 106
SWIDTH 225 0
DWIDTH 5 0
BBX 3 21 0 -5
BITMAP
20
20
00
00
20
20
20
20
20
20
20
20
20
20
20
20
20
20
60
E0
C0
ENDCHAR
STARTCHAR 006B
ENCODING 107
SWIDTH 495 0
DWIDTH 11 0
BBX 10 16 1 0
BITMAP
C000
C000
C000
C000
C180
C300
C600
CC00
DC00
FC00
E600
C600
C300
C380
C180
C0C0
ENDCHAR
STARTCHAR 006C
ENCODING 108
SWIDTH 225 0
DWIDTH 5 0
BBX 1 16 2 0
BITMAP
80
80
80
80
80
80
80
80
80
80
80
80
80
80
80
80
ENDCHAR
STARTCHAR 006D
ENCODING 109
SWIDTH 855 0
DWIDTH 19 0
BBX 15 12 2 0
BITMAP
BE7C
FFFE
C386
C306
8306
8306
8306
8306
8306
8306
8306
8306
ENDCHAR
STARTCHAR 006E
ENCODING 110
SWIDTH 540 0
DWIDTH 12 0
BBX 9 12 2 0
BITMAP
9E00
BF00
C180
C180
8180
8180
8180
8180
8180
8180
8180
8180
ENDCHAR
STARTCHAR 006F
ENCODING 111
SWIDTH 540 0
DWIDTH 12 0
BBX 10 12 1 0
BITMAP
1E00
7F80
61C0
C0C0
C0C0
C0C0
C0C0
C0C0
C0C0
61C0
7F80
1E00
ENDCHAR
STARTCHAR 0070
ENCODING 112
SWIDTH 540 0
DWIDTH 12 0
BBX 11 16 1 -4
BITMAP
DF00
FF80
E1C0
E0C0
C0C0
C060
C060
C060
E0C0
E1C0
FF80
DF00
C000
C000
C000
C000
ENDCHAR
STARTCHAR 0071
ENCODING 113
SWIDTH 540 0
DWIDTH 12 0
BBX 10 16 1 -4
BITMAP
3EC0
7FC0
E1C0
C0C0
C0C0
C0C0
C0C0
C0C0
C0C0
E1C0
7FC0
3EC0
00C0
00C0
00C0
00C0
ENDCHAR
STARTCHAR 0072
ENCODING 114
SWIDTH 315 0
DWIDTH 7 0
BBX 5 12 2 0
BITMAP
98
B8
C0
C0
80
80
80
80
80
80
80
80
ENDCHAR
STARTCHAR 0073
ENCODING 115
SWIDTH 495 0
DWIDTH 11 0
BBX 9 12 1 0
BITMAP
3E00
7F00
C380
C000
E000
7C00
1F00
0180
C180
C180
FF00
3E00
ENDCHAR
STARTCHAR 0074
ENCODING 116
SWIDTH 270 0
DWIDTH 6 0
BBX 6 15 0 0
BITMAP
30
30
30
FC
FC
30
30
30
30
30
30
30
30
3C
3C
ENDCHAR
STARTCHAR 0075
ENCODING 117
SWIDTH 540 0
DWIDTH 12 0
BBX 10 12 1 -1
BITMAP
C0C0
C0C0
C0C0
C0C0
C0C0
C0C0
C0C0
C0C0
C0C0
E1C0
7FC0
3EC0
ENDCHAR
STARTCHAR 0076
ENCODING 118
SWIDTH 495 0
DWIDTH 11 0
BBX 11 12 0 0
BITMAP
C060
60C0
60C0
6080
3180
3180
3100
1B00
1B00
1E00
0E00
0E00
ENDCHAR
STARTCHAR 0077
ENCODING 119
SWIDTH 720 0
DWIDTH 16 0
BBX 16 12 0 0
BITMAP
C183
6386
63C6
63C6
62C4
364C
366C
366C
1468
1C38
1C38
1C30
ENDCHAR
STARTCHAR 0078
ENCODING 120
SWIDTH 495 0
DWIDTH 11 0
BBX 9 12 1 0
BITMAP
C180
6300
6300
3600
1C00
1C00
1C00
3E00
3600
6300
C380
C180
ENDCHAR
STARTCHAR 0079
ENCODING 121
SWIDTH 495 0
DWIDTH 11 0
BBX 9 17 1 -5
BITMAP
C180
C180
C180
6300
6300
6300
2600
3600
3600
1C00
1C00
1800
1800
1800
3000
F000
E000
ENDCHAR
STARTCHAR 007A
ENCODING 122
SWIDTH 495 0
DWIDTH 11 0
BBX 9 12 1 0
BITMAP
FF80
FF80
0300
0600
0E00
0C00
1800
3000
6000
E000
FF80
FF80
ENDCHAR
STARTCHAR 007B
ENCODING 123
SWIDTH 315 0
DWIDTH 7 0
BBX 5 21 1 -5
BITMAP
18
30
20
20
20
20
20
20
60
60
C0
60
60
20
20
20
20
20
20
38
18
ENDCHAR
STARTCHAR 007C
ENCODING 124
SWIDTH 270 0
DWIDTH 6 0
BBX 2 21 2 -5
BITMAP
C0
C0
C0
C0
C0
C0
C0
C0
C0
C0
C0
C0
C0
C0
C0
C0
C0
C0
C0
C0
C0
ENDCHAR
STARTCHAR 007D
ENCODING 125
SWIDTH 315 0
DWIDTH 7 0
BBX 5 21 1 -5
BITMAP
C0
60
60
60
60
60
60
60
20
30
18
30
20
60
60
60
60
60
60
E0
C0
ENDCHAR
STARTCHAR 007E
ENCODING 126
SWIDTH 585 0
DWIDTH 13 0
BBX 9 4 2 6
BITMAP
6000
F880
8F80
0700
ENDCHAR
STARTCHAR 00A0
ENCODING 160
SWIDTH 270 0
DWIDTH 6 0
BBX 0 0 0 0
BITMAP
ENDCHAR
STARTCHAR 00A1
ENCODING 161
SWIDTH 315 0
DWIDTH 7 0
BBX 2 16 3 -4
BITMAP
C0
C0
00
00
80
80
80
80
C0
C0
C0
C0
C0
C0
C0
C0
ENDCHAR
STARTCHAR 00A2
ENCODING 162
SWIDTH 540 0
DWIDTH 12 0
BBX 10 17 1 -3
BITMAP
0400
0400
1F00
3F80
64C0
64C0
C400
C400
C400
C400
C4C0
64C0
75C0
3F80
0400
0400
0400
ENDCHAR
STARTCHAR 00A3
ENCODING 163
SWIDTH 540 0
DWIDTH 12 0
BBX 11 16 1 0
BITMAP
1F00
3F80
60C0
C0C0
C0C0
C000
6000
6000
FE00
3000
1000
3000
2000
5C00
FFE0
07C0
ENDCHAR
STARTCHAR 00A4
ENCODING 164
SWIDTH 540 0
DWIDTH 12 0
BBX 8 9 2 3
BITMAP
D9
FF
E3
C3
C3
C3
E3
FF
D9
ENDCHAR
STARTCHAR 00A5
ENCODING 165
SWIDTH 540 0
DWIDTH 12 0
BBX 12 16 0 0
BITMAP
C030
6060
2060
30C0
18C0
1980
0D00
0700
7FE0
0600
0600
7FE0
0600
0600
0600
0600
ENDCHAR
STARTCHAR 00A6
ENCODING 166
SWIDTH 270 0
DWIDTH 6 0
BBX 2 21 2 -5
BITMAP
C0
C0
C0
C0
C0
C0
C0
C0
C0
00
00
00
C0
C0
C0
C0
C0
C0
C0
C0
C0
ENDCHAR
STARTCHAR 00A7
ENCODING 167
SWIDTH 540 0
DWIDTH 12 0
BBX 10 21 1 -5
BITMAP
1E00
3F80
7180
6180
3000
3C00
6E00
C780
C1C0
C0C0
E0C0
70C0
3CC0
0F80
0700
0380
6180
6180
6380
3F00
1C00
ENDCHAR
STARTCHAR 00A8
ENCODING 168
SWIDTH 315 0
DWIDTH 7 0
BBX 6 2 1 14
BITMAP
DC
DC
ENDCHAR
STARTCHAR 00A9
ENCODING 169
SWIDTH 720 0
DWIDTH 16 0
BBX 17 16 0 0
BITMAP
07E000
1E7800
300C00
63C600
476300
C43100
8C0180
8C0180
8C0180
8C1180
C43100
476300
63C600
300C00
1E3800
07E000
ENDCHAR
STARTCHAR 00AA
ENCODING 170
SWIDTH 360 0
DWIDTH 8 0
BBX 6 9 1 7
BITMAP
78
CC
0C
7C
8C
8C
F4
00
FC
ENDCHAR
STARTCHAR 00AB
ENCODING 171
SWIDTH 540 0
DWIDTH 12 0
BBX 8 8 2 2
BITMAP
10
31
67
C4
C4
67
31
10
ENDCHAR
STARTCHAR 00AC
ENCODING 172
SWIDTH 585 0
DWIDTH 13 0
BBX 11 7 1 2
BITMAP
FFE0
FFE0
0020
0020
0020
0020
0020
ENDCHAR
STARTCHAR 00AD
ENCODING 173
SWIDTH 315 0
DWIDTH 7 0
BBX 5 2 1 5
BITMAP
F8
F8
ENDCHAR
STARTCHAR 00AE
ENCODING 174
SWIDTH 720 0
DWIDTH 16 0
BBX 17 16 0 0
BITMAP
07E000
1E3800
300C00
6FE600
4C3300
CC1100
8C1180
8C3180
8FE180
8C3180
CC3100
4C3300
6C1E00
300C00
1E3800
07E000
ENDCHAR
STARTCHAR 00AF
ENCODING 175
SWIDTH 315 0
DWIDTH 7 0
BBX 6 2 1 14
BITMAP
FC
FC
ENDCHAR
STARTCHAR 00B0
ENCODING 176
SWIDTH 405 0
DWIDTH 9 0
BBX 7 6 1 9
BITMAP
7C
C4
86
86
C4
7C
ENDCHAR
STARTCHAR 00B1
ENCODING 177
SWIDTH 585 0
DWIDTH 13 0
BBX 11 14 1 0
BITMAP
0400
0400
0400
0400
FFE0
FFE0
0400
0400
0400
0400
0400
0000
FFE0
FFE0
ENDCHAR
STARTCHAR 00B2
ENCODING 178
SWIDTH 315 0
DWIDTH 7 0
BBX 7 9 0 7
BITMAP
3C
66
42
06
0C
38
60
40
FE
ENDCHAR
STARTCHAR 00B3
ENCODING 179
SWIDTH 315 0
DWIDTH 7 0
BBX 7 10 0 6
BITMAP
3C
44
C6
06
1C
06
06
C6
46
7C
ENDCHAR
STARTCHAR 00B4
ENCODING 180
SWIDTH 315 0
DWIDTH 7 0
BBX 3 3 3 13
BITMAP
60
C0
80
ENDCHAR
STARTCHAR 00B5
ENCODING 181
SWIDTH 540 0
DWIDTH 12 0
BBX 11 16 1 -4
BITMAP
C0C0
C0C0
C0C0
C0C0
C0C0
C0C0
C0C0
C0C0
C1C0
E1C0
FFE0
FCE0
C000
C000
C000
C000
ENDCHAR
STARTCHAR 00B6
ENCODING 182
SWIDTH 540 0
DWIDTH 12 0
BBX 11 20 1 -4
BITMAP
1FE0
3C80
7C80
FC80
FC80
FC80
FC80
FC80
7C80
3C80
0480
0480
0480
0480
0480
0480
0480
0480
0480
0480
ENDCHAR
STARTCHAR 00B7
ENCODING 183
SWIDTH 270 0
DWIDTH 6 0
BBX 3 2 2 5
BITMAP
E0
E0
ENDCHAR
STARTCHAR 00B8
ENCODING 184
SWIDTH 315 0
DWIDTH 7 0
BBX 5 5 1 -5
BITMAP
20
38
08
88
70
ENDCHAR
STARTCHAR 00B9
ENCODING 185
SWIDTH 315 0
DWIDTH 7 0
BBX 4 10 1 6
BITMAP
10
30
F0
30
30
30
30
30
30
30
ENDCHAR
STARTCHAR 00BA
ENCODING 186
SWIDTH 360 0
DWIDTH 8 0
BBX 6 9 1 7
BITMAP
78
CC
84
84
84
CC
78
00
FC
ENDCHAR
STARTCHAR 00BB
ENCODING 187
SWIDTH 540 0
DWIDTH 12 0
BBX 8 6 2 3
BITMAP
C4
66
33
33
66
C4
ENDCHAR
STARTCHAR 00BC
ENCODING 188
SWIDTH 855 0
DWIDTH 19 0
BBX 17 16 1 0
BITMAP
200800
E01800
E01000
202000
202000
204000
20C300
208700
210700
030B00
021300
063300
043F80
080300
180300
100300
ENDCHAR
STARTCHAR 00BD
ENCODING 189
SWIDTH 855 0
DWIDTH 19 0
BBX 17 16 1 0
BITMAP
201800
E01000
E03000
202000
204000
20C000
208F00
211980
213080
020180
060300
040600
081800
181000
103F80
203F80
ENDCHAR
STARTCHAR 00BE
ENCODING 190
SWIDTH 855 0
DWIDTH 19 0
BBX 17 16 1 0
BITMAP
780400
CC0800
840800
0C1000
383000
0C2000
044100
84C300
CC8700
790F00
011B00
023300
063F80
040300
080300
180300
ENDCHAR
STARTCHAR 00BF
ENCODING 191
SWIDTH 630 0
DWIDTH 14 0
BBX 10 17 2 -5
BITMAP
0C00
0C00
0000
0000
0C00
0C00
0C00
1C00
3800
7000
6000
C0C0
C0C0
C080
6180
7F00
1E00
ENDCHAR
STARTCHAR 00C0
ENCODING 192
SWIDTH 675 0
DWIDTH 15 0
BBX 13 21 1 0
BITMAP
1C00
0C00
0600
0300
0000
0700
0700
0D80
0D80
0D80
18C0
18C0
30C0
3060
3FE0
7FF0
6030
6030
C038
C018
C018
ENDCHAR
STARTCHAR 00C1
ENCODING 193
SWIDTH 675 0
DWIDTH 15 0
BBX 13 21 1 0
BITMAP
01C0
0380
0300
0600
0000
0700
0700
0D80
0D80
0D80
18C0
18C0
30C0
3060
3FE0
7FF0
6030
6030
C038
C018
C018
ENDCHAR
STARTCHAR 00C2
ENCODING 194
SWIDTH 675 0
DWIDTH 15 0
BBX 13 21 1 0
BITMAP
0700
0700
0D80
18C0
0000
0700
0700
0D80
0D80
0D80
18C0
18C0
30C0
3060
3FE0
7FF0
6030
6030
C038
C018
C018
ENDCHAR
STARTCHAR 00C3
ENCODING 195
SWIDTH 675 0
DWIDTH 15 0
BBX 13 20 1 0
BITMAP
0FC0
1F80
0000
0000
0700
0700
0D80
0D80
0D80
18C0
18C0
30C0
3060
3FE0
7FF0
6030
6030
C038
C018
C018
ENDCHAR
STARTCHAR 00C4
ENCODING 196
SWIDTH 675 0
DWIDTH 15 0
BBX 13 20 1 0
BITMAP
1D80
1D80
0000
0000
0700
0700
0D80
0D80
0D80
18C0
18C0
30C0
3060
3FE0
7FF0
6030
6030
C038
C018
C018
ENDCHAR
STARTCHAR 00C5
ENCODING 197
SWIDTH 675 0
DWIDTH 15 0
BBX 13 21 1 0
BITMAP
0700
0500
0500
0700
0000
0700
0700
0D80
0D80
0D80
18C0
18C0
30C0
3060
3FE0
7FF0
6030
6030
C038
C018
C018
ENDCHAR
STARTCHAR 00C6
ENCODING 198
SWIDTH 990 0
DWIDTH 22 0
BBX 21 16 0 0
BITMAP
01FFF8
03FFF8
033000
073000
063000
063000
0C3000
0C3FF0
1C3FF0
183000
1FF000
3FF000
303000
703000
603FF8
E03FF8
ENDCHAR
STARTCHAR 00C7
ENCODING 199
SWIDTH 720 0
DWIDTH 16 0
BBX 14 21 1 -5
BITMAP
07C0
1FF0
3838
7018
601C
E000
C000
C000
C000
C000
C00C
600C
601C
7018
3C70
1FE0
0200
0380
0080
0880
0780
ENDCHAR
STARTCHAR 00C8
ENCODING 200
SWIDTH 675 0
DWIDTH 15 0
BBX 12 21 2 0
BITMAP
1800
0C00
0600
0200
0000
FFE0
FFE0
C000
C000
C000
C000
C000
FFE0
FFE0
C000
C000
C000
C000
C000
FFF0
FFF0
ENDCHAR
STARTCHAR 00C9
ENCODING 201
SWIDTH 675 0
DWIDTH 15 0
BBX 12 21 2 0
BITMAP
0300
0600
0400
0800
0000
FFE0
FFE0
C000
C000
C000
C000
C000
FFE0
FFE0
C000
C000
C000
C000
C000
FFF0
FFF0
ENDCHAR
STARTCHAR 00CA
ENCODING 202
SWIDTH 675 0
DWIDTH 15 0
BBX 12 21 2 0
BITMAP
0E00
0E00
1B00
1180
0000
FFE0
FFE0
C000
C000
C000
C000
C000
FFE0
FFE0
C000
C000
C000
C000
C000
FFF0
FFF0
ENDCHAR
STARTCHAR 00CB
ENCODING 203
SWIDTH 675 0
DWIDTH 15 0
BBX 12 20 2 0
BITMAP
1B80
1B80
0000
0000
FFE0
FFE0
C000
C000
C000
C000
C000
FFE0
FFE0
C000
C000
C000
C000
C000
FFF0
FFF0
ENDCHAR
STARTCHAR 00CC
ENCODING 204
SWIDTH 270 0
DWIDTH 6 0
BBX 5 21 0 0
BITMAP
E0
60
30
18
00
30
30
30
30
30
30
30
30
30
30
30
30
30
30
30
30
ENDCHAR
STARTCHAR 00CD
ENCODING 205
SWIDTH 270 0
DWIDTH 6 0
BBX 4 21 2 0
BITMAP
30
60
C0
80
00
C0
C0
C0
C0
C0
C0
C0
C0
C0
C0
C0
C0
C0
C0
C0
C0
ENDCHAR
STARTCHAR 00CE
ENCODING 206
SWIDTH 270 0
DWIDTH 6 0
BBX 6 21 0 0
BITMAP
30
78
4C
C4
00
30
30
30
30
30
30
30
30
30
30
30
30
30
30
30
30
ENDCHAR
STARTCHAR 00CF
ENCODING 207
SWIDTH 270 0
DWIDTH 6 0
BBX 6 20 0 0
BITMAP
EC
EC
00
00
30
30
30
30
30
30
30
30
30
30
30
30
30
30
30
30
ENDCHAR
STARTCHAR 00D0
ENCODING 208
SWIDTH 720 0
DWIDTH 16 0
BBX 15 16 0 0
BITMAP
3FE0
3FF0
3018
300C
300C
3006
3006
FF06
3F06
3006
300E
300C
300C
3018
3FF0
3FE0
ENDCHAR
STARTCHAR 00D1
ENCODING 209
SWIDTH 720 0
DWIDTH 16 0
BBX 12 20 2 0
BITMAP
1FC0
1F80
0000
0000
C030
E030
F030
F030
D830
D830
CC30
C630
C630
C330
C3B0
C1B0
C0F0
C0F0
C070
C030
ENDCHAR
STARTCHAR 00D2
ENCODING 210
SWIDTH 765 0
DWIDTH 17 0
BBX 15 20 1 0
BITMAP
0700
0300
0180
0000
07E0
1FF8
381C
700C
6006
C006
C006
C006
C006
C006
C006
6006
600C
381C
1FF0
07E0
ENDCHAR
STARTCHAR 00D3
ENCODING 211
SWIDTH 765 0
DWIDTH 17 0
BBX 15 20 1 0
BITMAP
00C0
0180
0300
0000
07E0
1FF8
381C
700C
6006
C006
C006
C006
C006
C006
C006
6006
600C
381C
1FF0
07E0
ENDCHAR
STARTCHAR 00D4
ENCODING 212
SWIDTH 765 0
DWIDTH 17 0
BBX 15 20 1 0
BITMAP
0380
06C0
0460
0000
07E0
1FF8
381C
700C
6006
C006
C006
C006
C006
C006
C006
6006
600C
381C
1FF0
07E0
ENDCHAR
STARTCHAR 00D5
ENCODING 213
SWIDTH 765 0
DWIDTH 17 0
BBX 15 20 1 0
BITMAP
0720
0FE0
0000
0000
07E0
1FF8
381C
700C
6006
C006
C006
C006
C006
C006
C006
6006
600C
381C
1FF0
07E0
ENDCHAR
STARTCHAR 00D6
ENCODING 214
SWIDTH 765 0
DWIDTH 17 0
BBX 15 20 1 0
BITMAP
06E0
06E0
0000
0000
07E0
1FF8
381C
700C
6006
C006
C006
C006
C006
C006
C006
6006
600C
381C
1FF0
07E0
ENDCHAR
STARTCHAR 00D7
ENCODING 215
SWIDTH 585 0
DWIDTH 13 0
BBX 9 8 2 1
BITMAP
C180
6300
3600
1C00
1C00
3600
6300
C100
ENDCHAR
STARTCHAR 00D8
ENCODING 216
SWIDTH 765 0
DWIDTH 17 0
BBX 16 16 1 0
BITMAP
07E3
1FF6
383C
601C
E03E
C066
C0C6
C186
C306
C606
CC06
F80E
700C
7838
DFF0
87E0
ENDCHAR
STARTCHAR 00D9
ENCODING 217
SWIDTH 720 0
DWIDTH 16 0
BBX 12 21 2 0
BITMAP
1800
0C00
0600
0200
0000
C030
C030
C030
C030
C030
C030
C030
C030
C030
C030
C030
C030
C030
6070
7FE0
1F80
ENDCHAR
STARTCHAR 00DA
ENCODING 218
SWIDTH 720 0
DWIDTH 16 0
BBX 12 21 2 0
BITMAP
0380
0300
0600
0400
0000
C030
C030
C030
C030
C030
C030
C030
C030
C030
C030
C030
C030
C030
6070
7FE0
1F80
ENDCHAR
STARTCHAR 00DB
ENCODING 219
SWIDTH 720 0
DWIDTH 16 0
BBX 12 21 2 0
BITMAP
0600
0F00
0980
1080
0000
C030
C030
C030
C030
C030
C030
C030
C030
C030
C030
C030
C030
C030
6070
7FE0
1F80
ENDCHAR
STARTCHAR 00DC
ENCODING 220
SWIDTH 720 0
DWIDTH 16 0
BBX 12 20 2 0
BITMAP
1980
1980
0000
0000
C030
C030
C030
C030
C030
C030
C030
C030
C030
C030
C030
C030
C030
6070
7FE0
1F80
ENDCHAR
STARTCHAR 00DD
ENCODING 221
SWIDTH 675 0
DWIDTH 15 0
BBX 13 21 1 0
BITMAP
0180
0300
0200
0400
0000
C018
E038
6030
3060
3860
18C0
1DC0
0D80
0700
0700
0700
0700
0700
0700
0700
0700
ENDCHAR
STARTCHAR 00DE
ENCODING 222
SWIDTH 675 0
DWIDTH 15 0
BBX 12 16 2 0
BITMAP
C000
C000
C000
FF80
FFE0
C060
C070
C070
C070
C0E0
FFC0
FF80
C000
C000
C000
C000
ENDCHAR
STARTCHAR 00DF
ENCODING 223
SWIDTH 630 0
DWIDTH 14 0
BBX 10 16 2 0
BITMAP
3E00
7F80
C180
80C0
80C0
8180
8700
8F00
8180
80C0
80C0
80C0
80C0
81C0
8F80
8E00
ENDCHAR
STARTCHAR 00E0
ENCODING 224
SWIDTH 540 0
DWIDTH 12 0
BBX 11 16 1 0
BITMAP
1800
0C00
0400
0000
3F00
7F80
6180
C080
0180
1F80
7880
C080
C080
C180
FEE0
3CE0
ENDCHAR
STARTCHAR 00E1
ENCODING 225
SWIDTH 540 0
DWIDTH 12 0
BBX 11 16 1 0
BITMAP
0700
0600
0800
0000
3F00
7F80
6180
C080
0180
1F80
7880
C080
C080
C180
FEE0
3CE0
ENDCHAR
STARTCHAR 00E2
ENCODING 226
SWIDTH 540 0
DWIDTH 12 0
BBX 11 16 1 0
BITMAP
0E00
1E00
3300
0000
3F00
7F80
6180
C080
0180
1F80
7880
C080
C080
C180
FEE0
3CE0
ENDCHAR
STARTCHAR 00E3
ENCODING 227
SWIDTH 540 0
DWIDTH 12 0
BBX 11 16 1 0
BITMAP
3980
3F00
0200
0000
3F00
7F80
6180
C080
0180
1F80
7880
C080
C080
C180
FEE0
3CE0
ENDCHAR
STARTCHAR 00E4
ENCODING 228
SWIDTH 540 0
DWIDTH 12 0
BBX 11 16 1 0
BITMAP
3300
3300
0000
0000
3F00
7F80
6180
C080
0180
1F80
7880
C080
C080
C180
FEE0
3CE0
ENDCHAR
STARTCHAR 00E5
ENCODING 229
SWIDTH 540 0
DWIDTH 12 0
BBX 11 17 1 0
BITMAP
0C00
1200
1200
0C00
0000
3F00
7F80
6180
C080
0180
1F80
7880
C080
C080
C180
FEE0
3CE0
ENDCHAR
STARTCHAR 00E6
ENCODING 230
SWIDTH 900 0
DWIDTH 20 0
BBX 18 12 1 0
BITMAP
3E3E00
7FFF00
E1C180
C1C180
0180C0
3FFFC0
79FFC0
C18000
C1C080
C3C180
FE7F00
7C3E00
ENDCHAR
STARTCHAR 00E7
ENCODING 231
SWIDTH 495 0
DWIDTH 11 0
BBX 10 17 1 -5
BITMAP
1E00
7F00
6180
C180
C000
C000
C000
C000
C0C0
C180
6380
3F00
0800
0C00
0600
0600
3C00
ENDCHAR
STARTCHAR 00E8
ENCODING 232
SWIDTH 540 0
DWIDTH 12 0
BBX 10 16 1 0
BITMAP
1800
0C00
0400
0000
1F00
7F80
61C0
C0C0
C0C0
FFC0
FFC0
C000
C0C0
61C0
7F80
1F00
ENDCHAR
STARTCHAR 00E9
ENCODING 233
SWIDTH 540 0
DWIDTH 12 0
BBX 10 16 1 0
BITMAP
0700
0600
0C00
0000
1F00
7F80
61C0
C0C0
C0C0
FFC0
FFC0
C000
C0C0
61C0
7F80
1F00
ENDCHAR
STARTCHAR 00EA
ENCODING 234
SWIDTH 540 0
DWIDTH 12 0
BBX 10 16 1 0
BITMAP
0E00
1A00
1100
0000
1F00
7F80
61C0
C0C0
C0C0
FFC0
FFC0
C000
C0C0
61C0
7F80
1F00
ENDCHAR
STARTCHAR 00EB
ENCODING 235
SWIDTH 540 0
DWIDTH 12 0
BBX 10 16 1 0
BITMAP
3B00
3B00
0000
0000
1F00
7F80
61C0
C0C0
C0C0
FFC0
FFC0
C000
C0C0
61C0
7F80
1F00
ENDCHAR
STARTCHAR 00EC
ENCODING 236
SWIDTH 270 0
DWIDTH 6 0
BBX 4 16 0 0
BITMAP
E0
30
10
00
30
30
30
30
30
30
30
30
30
30
30
30
ENDCHAR
STARTCHAR 00ED
ENCODING 237
SWIDTH 270 0
DWIDTH 6 0
BBX 3 16 2 0
BITMAP
60
C0
80
00
C0
C0
C0
C0
C0
C0
C0
C0
C0
C0
C0
C0
ENDCHAR
STARTCHAR 00EE
ENCODING 238
SWIDTH 270 0
DWIDTH 6 0
BBX 6 16 0 0
BITMAP
30
78
C4
00
30
30
30
30
30
30
30
30
30
30
30
30
ENDCHAR
STARTCHAR 00EF
ENCODING 239
SWIDTH 270 0
DWIDTH 6 0
BBX 6 16 0 0
BITMAP
CC
CC
00
00
30
30
30
30
30
30
30
30
30
30
30
30
ENDCHAR
STARTCHAR 00F0
ENCODING 240
SWIDTH 540 0
DWIDTH 12 0
BBX 10 16 1 0
BITMAP
7600
1C00
7E00
0700
1F00
7F80
61C0
C0C0
C0C0
C0C0
C0C0
C0C0
C0C0
61C0
7F80
1F00
ENDCHAR
STARTCHAR 00F1
ENCODING 241
SWIDTH 540 0
DWIDTH 12 0
BBX 9 16 2 0
BITMAP
7300
7E00
0400
0000
9E00
BF00
C180
C180
8180
8180
8180
8180
8180
8180
8180
8180
ENDCHAR
STARTCHAR 00F2
ENCODING 242
SWIDTH 540 0
DWIDTH 12 0
BBX 10 16 1 0
BITMAP
3800
0C00
0400
0000
1E00
7F80
61C0
C0C0
C0C0
C0C0
C0C0
C0C0
C0C0
61C0
7F80
1E00
ENDCHAR
STARTCHAR 00F3
ENCODING 243
SWIDTH 540 0
DWIDTH 12 0
BBX 10 16 1 0
BITMAP
0700
0400
0800
0000
1E00
7F80
61C0
C0C0
C0C0
C0C0
C0C0
C0C0
C0C0
61C0
7F80
1E00
ENDCHAR
STARTCHAR 00F4
ENCODING 244
SWIDTH 540 0
DWIDTH 12 0
BBX 10 16 1 0
BITMAP
0C00
1E00
3300
0000
1E00
7F80
61C0
C0C0
C0C0
C0C0
C0C0
C0C0
C0C0
61C0
7F80
1E00
ENDCHAR
STARTCHAR 00F5
ENCODING 245
SWIDTH 540 0
DWIDTH 12 0
BBX 10 16 1 0
BITMAP
3980
3F00
0200
0000
1E00
7F80
61C0
C0C0
C0C0
C0C0
C0C0
C0C0
C0C0
61C0
7F80
1E00
ENDCHAR
STARTCHAR 00F6
ENCODING 246
SWIDTH 540 0
DWIDTH 12 0
BBX 10 16 1 0
BITMAP
3300
3300
0000
0000
1E00
7F80
61C0
C0C0
C0C0
C0C0
C0C0
C0C0
C0C0
61C0
7F80
1E00
ENDCHAR
STARTCHAR 00F7
ENCODING 247
SWIDTH 585 0
DWIDTH 13 0
BBX 11 10 1 0
BITMAP
0E00
0E00
0000
0000
FFE0
FFE0
0000
0000
0E00
0E00
ENDCHAR
STARTCHAR 00F8
ENCODING 248
SWIDTH 630 0
DWIDTH 14 0
BBX 12 12 0 0
BITMAP
0F10
3FE0
30E0
60E0
6160
6260
6460
6860
7060
30E0
7FC0
CF00
ENDCHAR
STARTCHAR 00F9
ENCODING 249
SWIDTH 540 0
DWIDTH 12 0
BBX 10 16 1 -1
BITMAP
3800
1800
0C00
0000
C0C0
C0C0
C0C0
C0C0
C0C0
C0C0
C0C0
C0C0
C0C0
E1C0
7FC0
3EC0
ENDCHAR
STARTCHAR 00FA
ENCODING 250
SWIDTH 540 0
DWIDTH 12 0
BBX 10 16 1 -1
BITMAP
0700
0600
0C00
0000
C0C0
C0C0
C0C0
C0C0
C0C0
C0C0
C0C0
C0C0
C0C0
E1C0
7FC0
3EC0
ENDCHAR
STARTCHAR 00FB
ENCODING 251
SWIDTH 540 0
DWIDTH 12 0
BBX 10 16 1 -1
BITMAP
0C00
1E00
3300
0000
C0C0
C0C0
C0C0
C0C0
C0C0
C0C0
C0C0
C0C0
C0C0
E1C0
7FC0
3EC0
ENDCHAR
STARTCHAR 00FC
ENCODING 252
SWIDTH 540 0
DWIDTH 12 0
BBX 10 16 1 -1
BITMAP
3300
3300
0000
0000
C0C0
C0C0
C0C0
C0C0
C0C0
C0C0
C0C0
C0C0
C0C0
E1C0
7FC0
3EC0
ENDCHAR
STARTCHAR 00FD
ENCODING 253
SWIDTH 495 0
DWIDTH 11 0
BBX 9 21 1 -5
BITMAP
0600
0C00
1800
0000
C180
C180
C180
6300
6300
6300
2600
3600
3600
1C00
1C00
1800
1800
1800
3000
F000
E000
ENDCHAR
STARTCHAR 00FE
ENCODING 254
SWIDTH 540 0
DWIDTH 12 0
BBX 11 20 1 -4
BITMAP
C000
C000
C000
C000
CF00
FF80
E1C0
E0C0
C0C0
C060
C060
C0C0
E0C0
E1C0
FF80
DF00
C000
C000
C000
C000
ENDCHAR
STARTCHAR 00FF
ENCODING 255
SWIDTH 495 0
DWIDTH 11 0
BBX 9 21 1 -5
BITMAP
7600
7600
0000
0000
C180
C180
C180
6300
6300
6300
2600
3600
3600
1C00
1C00
1800
1800
1800
3000
F000
E000
ENDCHAR
STARTCHAR 0100
ENCODING 256
SWIDTH 675 0
DWIDTH 15 0
BBX 13 20 1 0
BITMAP
1F80
1F80
0000
0000
0700
0700
0D80
0D80
0D80
18C0
18C0
30C0
3060
3FE0
7FF0
6030
6030
C038
C018
C018
ENDCHAR
STARTCHAR 0101
ENCODING 257
SWIDTH 540 0
DWIDTH 12 0
BBX 11 16 1 0
BITMAP
3F00
3F00
0000
0000
3F00
7F80
6180
C080
0180
1F80
7880
C080
C080
C180
FEE0
3CE0
ENDCHAR
STARTCHAR 0102
ENCODING 258
SWIDTH 675 0
DWIDTH 15 0
BBX 13 20 1 0
BITMAP
18C0
0F80
0200
0000
0700
0700
0D80
0D80
0D80
18C0
18C0
30C0
3060
3FE0
7FF0
6030
6030
C038
C018
C018
ENDCHAR
STARTCHAR 0103
ENCODING 259
SWIDTH 540 0
DWIDTH 12 0
BBX 11 16 1 0
BITMAP
2100
3F00
1E00
0000
3F00
7F80
6180
C080
0180
1F80
7880
C080
C080
C180
FEE0
3CE0
ENDCHAR
STARTCHAR 0104
ENCODING 260
SWIDTH 675 0
DWIDTH 15 0
BBX 14 21 1 -5
BITMAP
0700
0700
0D80
0D80
0D80
18C0
18C0
30C0
3060
3FE0
7FF0
6030
6030
C038
C018
C018
0018
0030
0020
0030
001C
ENDCHAR
STARTCHAR 0105
ENCODING 261
SWIDTH 540 0
DWIDTH 12 0
BBX 12 16 1 -4
BITMAP
1F00
7F80
6180
C0C0
01C0
1FC0
78C0
C0C0
C0C0
C1C0
FEE0
3CE0
00C0
0080
0080
0070
ENDCHAR
STARTCHAR 0106
ENCODING 262
SWIDTH 720 0
DWIDTH 16 0
BBX 14 20 1 0
BITMAP
01C0
0180
0300
0000
07C0
1FF0
3838
6018
601C
C000
C000
C000
C000
C000
C00C
600C
7018
3838
1FF0
0FC0
ENDCHAR
STARTCHAR 0107
ENCODING 263
SWIDTH 495 0
DWIDTH 11 0
BBX 9 16 1 0
BITMAP
0700
0400
0800
0000
1E00
7F00
6180
C180
C000
C000
C000
C000
C180
E180
7F00
1E00
ENDCHAR
STARTCHAR 0108
ENCODING 264
SWIDTH 720 0
DWIDTH 16 0
BBX 14 20 1 0
BITMAP
0380
06C0
0C40
0000
07C0
1FF0
3838
6018
601C
C000
C000
C000
C000
C000
C00C
600C
7018
3838
1FF0
0FC0
ENDCHAR
STARTCHAR 0109
ENCODING 265
SWIDTH 495 0
DWIDTH 11 0
BBX 9 16 1 0
BITMAP
0C00
1E00
3300
0000
1E00
7F00
6180
C180
C000
C000
C000
C000
C180
E180
7F00
1E00
ENDCHAR
STARTCHAR 010A
ENCODING 266
SWIDTH 720 0
DWIDTH 16 0
BBX 14 20 1 0
BITMAP
0380
0380
0000
0000
07C0
1FF0
3838
6018
601C
C000
C000
C000
C000
C000
C00C
600C
7018
3838
1FF0
0FC0
ENDCHAR
STARTCHAR 010B
ENCODING 267
SWIDTH 495 0
DWIDTH 11 0
BBX 9 16 1 0
BITMAP
0C00
0C00
0000
0000
1E00
7F00
6180
C180
C000
C000
C000
C000
C180
E180
7F00
1E00
ENDCHAR
STARTCHAR 010C
ENCODING 268
SWIDTH 720 0
DWIDTH 16 0
BBX 14 20 1 0
BITMAP
04C0
0680
0380
0000
07C0
1FF0
3838
6018
601C
C000
C000
C000
C000
C000
C00C
600C
7018
3838
1FF0
0FC0
ENDCHAR
STARTCHAR 010D
ENCODING 269
SWIDTH 495 0
DWIDTH 11 0
BBX 9 16 1 0
BITMAP
3300
1E00
0C00
0000
1E00
7F00
6180
C180
C000
C000
C000
C000
C180
E180
7F00
1E00
ENDCHAR
STARTCHAR 010E
ENCODING 270
SWIDTH 720 0
DWIDTH 16 0
BBX 13 21 2 0
BITMAP
3180
1B00
0E00
0E00
0000
FF80
FFC0
C060
C030
C030
C038
C018
C018
C018
C018
C038
C030
C030
C060
FFC0
FF80
ENDCHAR
STARTCHAR 010F
ENCODING 271
SWIDTH 630 0
DWIDTH 14 0
BBX 13 16 1 0
BITMAP
00D8
00D8
00C8
00C8
3ED0
7FC0
E1C0
C0C0
C0C0
C0C0
C0C0
C0C0
C0C0
E1C0
7FC0
3EC0
ENDCHAR
STARTCHAR 0110
ENCODING 272
SWIDTH 720 0
DWIDTH 16 0
BBX 15 16 0 0
BITMAP
3FE0
3FF0
3018
300C
300C
3006
3006
FF06
3F06
3006
300E
300C
300C
3018
3FF0
3FE0
ENDCHAR
STARTCHAR 0111
ENCODING 273
SWIDTH 540 0
DWIDTH 12 0
BBX 11 16 1 0
BITMAP
00C0
00C0
07E0
00C0
3EC0
7FC0
E1C0
C0C0
C0C0
C0C0
C0C0
C0C0
C0C0
E1C0
7FC0
3EC0
ENDCHAR
STARTCHAR 0112
ENCODING 274
SWIDTH 675 0
DWIDTH 15 0
BBX 12 20 2 0
BITMAP
1F80
1F80
0000
0000
FFE0
FFE0
C000
C000
C000
C000
C000
FFE0
FFE0
C000
C000
C000
C000
C000
FFF0
FFF0
ENDCHAR
STARTCHAR 0113
ENCODING 275
SWIDTH 540 0
DWIDTH 12 0
BBX 10 16 1 0
BITMAP
3F00
3F00
0000
0000
1F00
7F80
61C0
C0C0
C0C0
FFC0
FFC0
C000
C0C0
61C0
7F80
1F00
ENDCHAR
STARTCHAR 0114
ENCODING 276
SWIDTH 675 0
DWIDTH 15 0
BBX 12 20 2 0
BITMAP
3180
1F00
0400
0000
FFE0
FFE0
C000
C000
C000
C000
C000
FFE0
FFE0
C000
C000
C000
C000
C000
FFF0
FFF0
ENDCHAR
STARTCHAR 0115
ENCODING 277
SWIDTH 540 0
DWIDTH 12 0
BBX 10 16 1 0
BITMAP
2180
3F00
1E00
0000
1F00
7F80
61C0
C0C0
C0C0
FFC0
FFC0
C000
C0C0
61C0
7F80
1F00
ENDCHAR
STARTCHAR 0116
ENCODING 278
SWIDTH 675 0
DWIDTH 15 0
BBX 12 20 2 0
BITMAP
0E00
0E00
0000
0000
FFE0
FFE0
C000
C000
C000
C000
C000
FFE0
FFE0
C000
C000
C000
C000
C000
FFF0
FFF0
ENDCHAR
STARTCHAR 0117
ENCODING 279
SWIDTH 540 0
DWIDTH 12 0
BBX 10 16 1 0
BITMAP
0C00
0C00
0000
0000
1F00
7F80
61C0
C0C0
C0C0
FFC0
FFC0
C000
C0C0
61C0
7F80
1F00
ENDCHAR
STARTCHAR 0118
ENCODING 280
SWIDTH 675 0
DWIDTH 15 0
BBX 12 21 2 -5
BITMAP
FFE0
FFE0
C000
C000
C000
C000
C000
FFE0
FFE0
C000
C000
C000
C000
C000
FFF0
FFF0
0060
00C0
0080
00C0
0070
ENDCHAR
STARTCHAR 0119
ENCODING 281
SWIDTH 540 0
DWIDTH 12 0
BBX 10 16 1 -4
BITMAP
1F00
7F80
61C0
C0C0
C0C0
FFC0
FFC0
C000
C0C0
61C0
7F80
1F00
0200
0600
0600
03C0
ENDCHAR
STARTCHAR 011A
ENCODING 282
SWIDTH 675 0
DWIDTH 15 0
BBX 12 21 2 0
BITMAP
1180
1B00
0E00
0600
0000
FFE0
FFE0
C000
C000
C000
C000
C000
FFE0
FFE0
C000
C000
C000
C000
C000
FFF0
FFF0
ENDCHAR
STARTCHAR 011B
ENCODING 283
SWIDTH 540 0
DWIDTH 12 0
BBX 10 16 1 0
BITMAP
1100
1A00
0E00
0000
1F00
7F80
61C0
C0C0
C0C0
FFC0
FFC0
C000
C0C0
61C0
7F80
1F00
ENDCHAR
STARTCHAR 011C
ENCODING 284
SWIDTH 765 0
DWIDTH 17 0
BBX 15 20 1 0
BITMAP
0380
06C0
0440
0000
07E0
1FF8
381C
700C
600C
C000
C000
C0FE
C0FE
C006
C006
600E
700E
381E
1FF6
07C6
ENDCHAR
STARTCHAR 011D
ENCODING 285
SWIDTH 540 0
DWIDTH 12 0
BBX 10 21 1 -5
BITMAP
0C00
1E00
3100
0000
1EC0
7FC0
61C0
C1C0
C0C0
C0C0
C0C0
C0C0
C1C0
61C0
7EC0
1CC0
0080
C180
6180
7F00
0C00
ENDCHAR
STARTCHAR 011E
ENCODING 286
SWIDTH 765 0
DWIDTH 17 0
BBX 15 20 1 0
BITMAP
0420
07E0
03C0
0000
07E0
1FF8
381C
700C
600C
C000
C000
C0FE
C0FE
C006
C006
600E
700E
381E
1FF6
07C6
ENDCHAR
STARTCHAR 011F
ENCODING 287
SWIDTH 540 0
DWIDTH 12 0
BBX 10 21 1 -5
BITMAP
2100
3F00
1E00
0000
1EC0
7FC0
61C0
C1C0
C0C0
C0C0
C0C0
C0C0
C1C0
61C0
7EC0
1CC0
0080
C180
6180
7F00
0C00
ENDCHAR
STARTCHAR 0120
ENCODING 288
SWIDTH 765 0
DWIDTH 17 0
BBX 15 20 1 0
BITMAP
0380
0380
0000
0000
07E0
1FF8
381C
700C
600C
C000
C000
C0FE
C0FE
C006
C006
600E
700E
381E
1FF6
07C6
ENDCHAR
STARTCHAR 0121
ENCODING 289
SWIDTH 540 0
DWIDTH 12 0
BBX 10 21 1 -5
BITMAP
0C00
0C00
0000
0000
1EC0
7FC0
61C0
C1C0
C0C0
C0C0
C0C0
C0C0
C1C0
61C0
7EC0
1CC0
0080
C180
6180
7F00
0C00
ENDCHAR
STARTCHAR 0122
ENCODING 290
SWIDTH 765 0
DWIDTH 17 0
BBX 15 22 1 -6
BITMAP
07E0
1FF8
381C
700C
600C
C000
C000
C0FE
C0FE
C006
C006
600E
700E
381E
1FF6
07C6
0000
0380
0380
0080
0100
0300
ENDCHAR
STARTCHAR 0123
ENCODING 291
SWIDTH 540 0
DWIDTH 12 0
BBX 10 23 1 -5
BITMAP
0400
0800
0800
0C00
0C00
0000
1EC0
7FC0
61C0
C1C0
C0C0
C0C0
C0C0
C0C0
C1C0
61C0
7EC0
1CC0
0080
C180
6180
7F00
0C00
ENDCHAR
STARTCHAR 0124
ENCODING 292
SWIDTH 720 0
DWIDTH 16 0
BBX 12 21 2 0
BITMAP
0600
0F00
0980
1880
0000
C030
C030
C030
C030
C030
C030
C030
FFF0
FFF0
C030
C030
C030
C030
C030
C030
C030
ENDCHAR
STARTCHAR 0125
ENCODING 293
SWIDTH 540 0
DWIDTH 12 0
BBX 12 21 -1 0
BITMAP
3800
3800
6C00
C600
0000
1000
1000
1000
1000
13C0
17E0
1830
1830
1030
1030
1030
1030
1030
1030
1030
1030
ENDCHAR
STARTCHAR 0126
ENCODING 294
SWIDTH 720 0
DWIDTH 16 0
BBX 16 16 0 0
BITMAP
300C
300C
300C
FFFF
FFFF
300C
300C
3FFC
3FFC
300C
300C
300C
300C
300C
300C
300C
ENDCHAR
STARTCHAR 0127
ENCODING 295
SWIDTH 540 0
DWIDTH 12 0
BBX 11 16 0 0
BITMAP
2000
2000
FF00
2000
2780
2FC0
3060
3060
2060
2060
2060
2060
2060
2060
2060
2060
ENDCHAR
STARTCHAR 0128
ENCODING 296
SWIDTH 270 0
DWIDTH 6 0
BBX 6 20 0 0
BITMAP
FC
FC
00
00
30
30
30
30
30
30
30
30
30
30
30
30
30
30
30
30
ENDCHAR
STARTCHAR 0129
ENCODING 297
SWIDTH 270 0
DWIDTH 6 0
BBX 6 16 0 0
BITMAP
E4
FC
08
00
30
30
30
30
30
30
30
30
30
30
30
30
ENDCHAR
STARTCHAR 012A
ENCODING 298
SWIDTH 270 0
DWIDTH 6 0
BBX 6 20 0 0
BITMAP
FC
FC
00
00
30
30
30
30
30
30
30
30
30
30
30
30
30
30
30
30
ENDCHAR
STARTCHAR 012B
ENCODING 299
SWIDTH 270 0
DWIDTH 6 0
BBX 6 16 0 0
BITMAP
FC
FC
00
00
30
30
30
30
30
30
30
30
30
30
30
30
ENDCHAR
STARTCHAR 012C
ENCODING 300
SWIDTH 270 0
DWIDTH 6 0
BBX 6 20 0 0
BITMAP
84
FC
30
00
30
30
30
30
30
30
30
30
30
30
30
30
30
30
30
30
ENDCHAR
STARTCHAR 012D
ENCODING 301
SWIDTH 270 0
DWIDTH 6 0
BBX 6 16 0 0
BITMAP
84
FC
30
00
30
30
30
30
30
30
30
30
30
30
30
30
ENDCHAR
STARTCHAR 012E
ENCODING 302
SWIDTH 270 0
DWIDTH 6 0
BBX 4 21 1 -5
BITMAP
60
60
60
60
60
60
60
60
60
60
60
60
60
60
60
60
20
40
C0
40
70
ENDCHAR
STARTCHAR 012F
ENCODING 303
SWIDTH 225 0
DWIDTH 5 0
BBX 3 21 1 -5
BITMAP
C0
C0
00
00
C0
C0
C0
C0
C0
C0
C0
C0
C0
C0
C0
C0
40
80
80
80
E0
ENDCHAR
STARTCHAR 0130
ENCODING 304
SWIDTH 270 0
DWIDTH 6 0
BBX 2 20 2 0
BITMAP
C0
C0
00
00
C0
C0
C0
C0
C0
C0
C0
C0
C0
C0
C0
C0
C0
C0
C0
C0
ENDCHAR
STARTCHAR 0131
ENCODING 305
SWIDTH 270 0
DWIDTH 6 0
BBX 2 12 2 0
BITMAP
C0
C0
C0
C0
C0
C0
C0
C0
C0
C0
C0
C0
ENDCHAR
STARTCHAR 0132
ENCODING 306
SWIDTH 720 0
DWIDTH 16 0
BBX 13 16 2 0
BITMAP
C038
C038
C038
C038
C038
C038
C038
C038
C038
C038
DC38
DC38
CC30
CC30
CFF0
C3C0
ENDCHAR
STARTCHAR 0133
ENCODING 307
SWIDTH 450 0
DWIDTH 10 0
BBX 6 21 2 -5
BITMAP
CC
CC
00
00
CC
CC
CC
CC
CC
CC
CC
CC
CC
CC
CC
CC
0C
0C
0C
3C
38
ENDCHAR
STARTCHAR 0134
ENCODING 308
SWIDTH 495 0
DWIDTH 11 0
BBX 11 21 0 0
BITMAP
0180
03C0
0260
0620
0000
0180
0180
0180
0180
0180
0180
0180
0180
0180
0180
C180
C180
E180
6180
7F00
1E00
ENDCHAR
STARTCHAR 0135
ENCODING 309
SWIDTH 225 0
DWIDTH 5 0
BBX 6 21 -1 -5
BITMAP
38
6C
C4
00
10
10
10
10
10
10
10
10
10
10
10
10
10
10
30
70
60
ENDCHAR
STARTCHAR 0136
ENCODING 310
SWIDTH 675 0
DWIDTH 15 0
BBX 12 22 2 -6
BITMAP
C070
C0E0
C1C0
C380
C700
CE00
DC00
FE00
F600
E300
C380
C180
C0C0
C0E0
C070
C030
0000
0600
0600
0200
0200
0400
ENDCHAR
STARTCHAR 0137
ENCODING 311
SWIDTH 495 0
DWIDTH 11 0
BBX 10 22 1 -6
BITMAP
C000
C000
C000
C000
C180
C300
C600
CC00
DC00
FC00
E600
C600
C300
C380
C180
C0C0
0000
0C00
0C00
0400
0400
0800
ENDCHAR
STARTCHAR 0138
ENCODING 312
SWIDTH 495 0
DWIDTH 11 0
BBX 9 11 1 0
BITMAP
8300
8600
8C00
9800
B000
F800
CC00
8400
8600
8300
8180
ENDCHAR
STARTCHAR 0139
ENCODING 313
SWIDTH 540 0
DWIDTH 12 0
BBX 10 21 2 0
BITMAP
3000
6000
C000
8000
0000
C000
C000
C000
C000
C000
C000
C000
C000
C000
C000
C000
C000
C000
C000
FFC0
FFC0
ENDCHAR
STARTCHAR 013A
ENCODING 314
SWIDTH 225 0
DWIDTH 5 0
BBX 5 21 1 0
BITMAP
38
30
60
C0
00
C0
C0
C0
C0
C0
C0
C0
C0
C0
C0
C0
C0
C0
C0
C0
C0
ENDCHAR
STARTCHAR 013B
ENCODING 315
SWIDTH 540 0
DWIDTH 12 0
BBX 10 22 2 -6
BITMAP
C000
C000
C000
C000
C000
C000
C000
C000
C000
C000
C000
C000
C000
C000
FFC0
FFC0
0000
0C00
0C00
0400
0400
0800
ENDCHAR
STARTCHAR 013C
ENCODING 316
SWIDTH 225 0
DWIDTH 5 0
BBX 3 22 1 -6
BITMAP
C0
C0
C0
C0
C0
C0
C0
C0
C0
C0
C0
C0
C0
C0
C0
C0
00
E0
E0
20
40
C0
ENDCHAR
STARTCHAR 013D
ENCODING 317
SWIDTH 540 0
DWIDTH 12 0
BBX 10 16 2 0
BITMAP
CC00
CC00
C400
C400
C800
C000
C000
C000
C000
C000
C000
C000
C000
C000
FFC0
FFC0
ENDCHAR
STARTCHAR 013E
ENCODING 318
SWIDTH 315 0
DWIDTH 7 0
BBX 5 16 2 0
BITMAP
98
98
88
88
90
80
80
80
80
80
80
80
80
80
80
80
ENDCHAR
STARTCHAR 013F
ENCODING 319
SWIDTH 540 0
DWIDTH 12 0
BBX 10 16 2 0
BITMAP
C000
C000
C000
C000
C000
C000
C000
C300
C300
C000
C000
C000
C000
C000
FFC0
FFC0
ENDCHAR
STARTCHAR 0140
ENCODING 320
SWIDTH 315 0
DWIDTH 7 0
BBX 5 16 2 0
BITMAP
C0
C0
C0
C0
C0
C0
C0
D8
D8
C0
C0
C0
C0
C0
C0
C0
ENDCHAR
STARTCHAR 0141
ENCODING 321
SWIDTH 540 0
DWIDTH 12 0
BBX 12 16 0 0
BITMAP
3000
3000
3000
3000
3000
3300
3600
3C00
7000
F000
B000
3000
3000
3000
3FF0
3FF0
ENDCHAR
STARTCHAR 0142
ENCODING 322
SWIDTH 225 0
DWIDTH 5 0
BBX 5 16 0 0
BITMAP
60
60
60
60
60
60
68
70
E0
E0
60
60
60
60
60
60
ENDCHAR
STARTCHAR 0143
ENCODING 323
SWIDTH 720 0
DWIDTH 16 0
BBX 12 21 2 0
BITMAP
0180
0300
0600
0400
0000
C030
E030
F030
F030
D830
D830
CC30
C630
C630
C330
C3B0
C1B0
C0F0
C0F0
C070
C030
ENDCHAR
STARTCHAR 0144
ENCODING 324
SWIDTH 540 0
DWIDTH 12 0
BBX 9 16 2 0
BITMAP
0E00
0C00
1000
0000
9E00
BF00
C180
C180
8180
8180
8180
8180
8180
8180
8180
8180
ENDCHAR
STARTCHAR 0145
ENCODING 325
SWIDTH 720 0
DWIDTH 16 0
BBX 12 22 2 -6
BITMAP
C030
E030
F030
F030
D830
D830
CC30
C630
C630
C330
C3B0
C1B0
C0F0
C0F0
C070
C030
0000
0600
0600
0200
0200
0400
ENDCHAR
STARTCHAR 0146
ENCODING 326
SWIDTH 540 0
DWIDTH 12 0
BBX 9 18 2 -6
BITMAP
9E00
BF00
C180
C180
8180
8180
8180
8180
8180
8180
8180
8180
0000
1800
1800
0800
0800
1000
ENDCHAR
STARTCHAR 0147
ENCODING 327
SWIDTH 720 0
DWIDTH 16 0
BBX 12 21 2 0
BITMAP
1080
0900
0F00
0600
0000
C030
E030
F030
F030
D830
D830
CC30
C630
C630
C330
C3B0
C1B0
C0F0
C0F0
C070
C030
ENDCHAR
STARTCHAR 0148
ENCODING 328
SWIDTH 540 0
DWIDTH 12 0
BBX 9 16 2 0
BITMAP
6600
3400
1800
0000
9E00
BF00
C180
C180
8180
8180
8180
8180
8180
8180
8180
8180
ENDCHAR
STARTCHAR 0149
ENCODING 329
SWIDTH 585 0
DWIDTH 13 0
BBX 12 17 0 0
BITMAP
C000
C000
4000
4000
C000
13C0
17E0
1C30
1830
1830
1030
1030
1030
1030
1030
1030
1030
ENDCHAR
STARTCHAR 014A
ENCODING 330
SWIDTH 720 0
DWIDTH 16 0
BBX 12 23 2 -7
BITMAP
C7C0
DFE0
F070
E030
E030
C030
C030
C030
C030
C030
C030
C030
C030
C030
C030
C030
0030
0030
0030
0030
0030
01F0
01C0
ENDCHAR
STARTCHAR 014B
ENCODING 331
SWIDTH 540 0
DWIDTH 12 0
BBX 9 17 2 -5
BITMAP
9E00
BF00
C180
C180
C180
8180
8180
8180
8180
8180
8180
8180
0180
0180
0180
0780
0700
ENDCHAR
STARTCHAR 014C
ENCODING 332
SWIDTH 765 0
DWIDTH 17 0
BBX 15 20 1 0
BITMAP
07E0
07E0
0000
0000
07E0
1FF8
381C
700C
6006
C006
C006
C006
C006
C006
C006
6006
600C
381C
1FF0
07E0
ENDCHAR
STARTCHAR 014D
ENCODING 333
SWIDTH 540 0
DWIDTH 12 0
BBX 10 16 1 0
BITMAP
3F00
3F00
0000
0000
1E00
7F80
61C0
C0C0
C0C0
C0C0
C0C0
C0C0
C0C0
61C0
7F80
1E00
ENDCHAR
STARTCHAR 014E
ENCODING 334
SWIDTH 765 0
DWIDTH 17 0
BBX 15 20 1 0
BITMAP
0C20
07E0
03C0
0000
07E0
1FF8
381C
700C
6006
C006
C006
C006
C006
C006
C006
6006
600C
381C
1FF0
07E0
ENDCHAR
STARTCHAR 014F
ENCODING 335
SWIDTH 540 0
DWIDTH 12 0
BBX 10 16 1 0
BITMAP
2100
3F00
1E00
0000
1E00
7F80
61C0
C0C0
C0C0
C0C0
C0C0
C0C0
C0C0
61C0
7F80
1E00
ENDCHAR
STARTCHAR 0150
ENCODING 336
SWIDTH 765 0
DWIDTH 17 0
BBX 15 20 1 0
BITMAP
01B8
0330
0660
0000
07E0
1FF8
381C
700C
6006
C006
C006
C006
C006
C006
C006
6006
600C
381C
1FF0
07E0
ENDCHAR
STARTCHAR 0151
ENCODING 337
SWIDTH 540 0
DWIDTH 12 0
BBX 10 16 1 0
BITMAP
0CC0
1980
1300
0000
1E00
7F80
61C0
C0C0
C0C0
C0C0
C0C0
C0C0
C0C0
61C0
7F80
1E00
ENDCHAR
STARTCHAR 0152
ENCODING 338
SWIDTH 990 0
DWIDTH 22 0
BBX 20 16 1 0
BITMAP
0F9FF0
3FDFF0
307800
603800
E01800
C01800
C01800
C01FF0
C01FF0
C01800
C01800
E01800
603800
707800
3FDFF0
0F9FF0
ENDCHAR
STARTCHAR 0153
ENCODING 339
SWIDTH 945 0
DWIDTH 21 0
BBX 19 12 1 0
BITMAP
1F0F00
7FBFC0
61F0C0
C0E060
C0E060
C0FFE0
C0FFE0
C0C000
C0E060
61F0C0
7FBFC0
1F1F00
ENDCHAR
STARTCHAR 0154
ENCODING 340
SWIDTH 720 0
DWIDTH 16 0
BBX 13 21 2 0
BITMAP
0380
0300
0600
0C00
0000
FFC0
FFF0
C030
C030
C030
C030
C030
FFE0
FFE0
C070
C030
C030
C030
C030
C030
C038
ENDCHAR
STARTCHAR 0155
ENCODING 341
SWIDTH 315 0
DWIDTH 7 0
BBX 5 16 2 0
BITMAP
38
30
40
00
98
B8
C0
C0
80
80
80
80
80
80
80
80
ENDCHAR
STARTCHAR 0156
ENCODING 342
SWIDTH 720 0
DWIDTH 16 0
BBX 13 22 2 -6
BITMAP
FFC0
FFF0
C030
C030
C030
C030
C030
FFE0
FFE0
C070
C030
C030
C030
C030
C030
C038
0000
0600
0600
0200
0200
0400
ENDCHAR
STARTCHAR 0157
ENCODING 343
SWIDTH 315 0
DWIDTH 7 0
BBX 6 18 1 -6
BITMAP
4C
5C
60
60
40
40
40
40
40
40
40
40
00
E0
E0
20
40
C0
ENDCHAR
STARTCHAR 0158
ENCODING 344
SWIDTH 720 0
DWIDTH 16 0
BBX 13 21 2 0
BITMAP
1080
1900
0F00
0600
0000
FFC0
FFF0
C030
C030
C030
C030
C030
FFE0
FFE0
C070
C030
C030
C030
C030
C030
C038
ENDCHAR
STARTCHAR 0159
ENCODING 345
SWIDTH 315 0
DWIDTH 7 0
BBX 6 16 1 0
BITMAP
C4
68
38
00
4C
5C
60
60
40
40
40
40
40
40
40
40
ENDCHAR
STARTCHAR 015A
ENCODING 346
SWIDTH 675 0
DWIDTH 15 0
BBX 13 20 1 0
BITMAP
0380
0300
0600
0000
1F80
3FE0
7070
6030
6030
6000
7800
3F80
03E0
0070
0038
C018
E038
7030
3FE0
1FC0
ENDCHAR
STARTCHAR 015B
ENCODING 347
SWIDTH 495 0
DWIDTH 11 0
BBX 9 16 1 0
BITMAP
0600
0C00
1800
0000
3E00
7F00
C380
C000
E000
7C00
1F00
0180
C180
C180
FF00
3E00
ENDCHAR
STARTCHAR 015C
ENCODING 348
SWIDTH 675 0
DWIDTH 15 0
BBX 13 20 1 0
BITMAP
0700
0D80
1880
0000
1F80
3FE0
7070
6030
6030
6000
7800
3F80
03E0
0070
0038
C018
E038
7030
3FE0
1FC0
ENDCHAR
STARTCHAR 015D
ENCODING 349
SWIDTH 495 0
DWIDTH 11 0
BBX 9 16 1 0
BITMAP
1C00
3600
2200
0000
3E00
7F00
C380
C000
E000
7C00
1F00
0180
C180
C180
FF00
3E00
ENDCHAR
STARTCHAR 015E
ENCODING 350
SWIDTH 675 0
DWIDTH 15 0
BBX 13 21 1 -5
BITMAP
1F80
3FE0
7070
6030
6030
6000
7800
3F00
07E0
00F0
0038
C018
C018
6030
78F0
3FE0
0200
0700
0180
1100
0F00
ENDCHAR
STARTCHAR 015F
ENCODING 351
SWIDTH 495 0
DWIDTH 11 0
BBX 9 17 1 -5
BITMAP
3E00
7F00
C380
C180
E000
7C00
3F00
0380
0180
C180
E380
7F00
0800
1C00
0400
4400
3C00
ENDCHAR
STARTCHAR 0160
ENCODING 352
SWIDTH 675 0
DWIDTH 15 0
BBX 13 20 1 0
BITMAP
0980
0D00
0700
0000
1F80
3FE0
7070
6030
6030
6000
7800
3F80
03E0
0070
0038
C018
E038
7030
3FE0
1FC0
ENDCHAR
STARTCHAR 0161
ENCODING 353
SWIDTH 495 0
DWIDTH 11 0
BBX 9 16 1 0
BITMAP
2200
3600
1C00
0000
3E00
7F00
C380
C000
E000
7C00
1F00
0180
C180
C180
FF00
3E00
ENDCHAR
STARTCHAR 0162
ENCODING 354
SWIDTH 630 0
DWIDTH 14 0
BBX 13 21 0 -5
BITMAP
FFF8
FFF8
0300
0300
0300
0300
0300
0300
0300
0300
0300
0300
0300
0300
0300
0300
0100
0380
00C0
0880
0780
ENDCHAR
STARTCHAR 0163
ENCODING 355
SWIDTH 270 0
DWIDTH 6 0
BBX 6 19 0 -4
BITMAP
30
30
30
FC
FC
30
30
30
30
30
30
30
30
3C
3C
20
1C
0C
78
ENDCHAR
STARTCHAR 0164
ENCODING 356
SWIDTH 630 0
DWIDTH 14 0
BBX 13 21 0 0
BITMAP
08C0
0C80
0780
0300
0000
FFF8
FFF8
0300
0300
0300
0300
0300
0300
0300
0300
0300
0300
0300
0300
0300
0300
ENDCHAR
STARTCHAR 0165
ENCODING 357
SWIDTH 315 0
DWIDTH 7 0
BBX 7 18 0 0
BITMAP
06
06
02
32
34
30
FC
FC
30
30
30
30
30
30
30
30
3C
3C
ENDCHAR
STARTCHAR 0166
ENCODING 358
SWIDTH 630 0
DWIDTH 14 0
BBX 13 16 0 0
BITMAP
FFF8
FFF8
0300
0300
0300
0300
3FE0
0300
0300
0300
0300
0300
0300
0300
0300
0300
ENDCHAR
STARTCHAR 0167
ENCODING 359
SWIDTH 270 0
DWIDTH 6 0
BBX 6 15 0 0
BITMAP
30
30
30
FC
FC
30
78
30
30
30
30
30
30
3C
3C
ENDCHAR
STARTCHAR 0168
ENCODING 360
SWIDTH 720 0
DWIDTH 16 0
BBX 12 20 2 0
BITMAP
1F80
1F80
0000
0000
C030
C030
C030
C030
C030
C030
C030
C030
C030
C030
C030
C030
C030
6070
7FE0
1F80
ENDCHAR
STARTCHAR 0169
ENCODING 361
SWIDTH 540 0
DWIDTH 12 0
BBX 10 16 1 -1
BITMAP
3900
3F00
0200
0000
C0C0
C0C0
C0C0
C0C0
C0C0
C0C0
C0C0
C0C0
C0C0
E1C0
7FC0
3EC0
ENDCHAR
STARTCHAR 016A
ENCODING 362
SWIDTH 720 0
DWIDTH 16 0
BBX 12 20 2 0
BITMAP
1F80
1F80
0000
0000
C030
C030
C030
C030
C030
C030
C030
C030
C030
C030
C030
C030
C030
6070
7FE0
1F80
ENDCHAR
STARTCHAR 016B
ENCODING 363
SWIDTH 540 0
DWIDTH 12 0
BBX 10 16 1 -1
BITMAP
3F00
3F00
0000
0000
C0C0
C0C0
C0C0
C0C0
C0C0
C0C0
C0C0
C0C0
C0C0
E1C0
7FC0
3EC0
ENDCHAR
STARTCHAR 016C
ENCODING 364
SWIDTH 720 0
DWIDTH 16 0
BBX 12 20 2 0
BITMAP
1080
1F80
0600
0000
C030
C030
C030
C030
C030
C030
C030
C030
C030
C030
C030
C030
C030
6070
7FE0
1F80
ENDCHAR
STARTCHAR 016D
ENCODING 365
SWIDTH 540 0
DWIDTH 12 0
BBX 10 16 1 -1
BITMAP
2100
3F00
0C00
0000
C0C0
C0C0
C0C0
C0C0
C0C0
C0C0
C0C0
C0C0
C0C0
E1C0
7FC0
3EC0
ENDCHAR
STARTCHAR 016E
ENCODING 366
SWIDTH 720 0
DWIDTH 16 0
BBX 12 21 2 0
BITMAP
0600
0900
0900
0600
0000
C030
C030
C030
C030
C030
C030
C030
C030
C030
C030
C030
C030
C030
6070
7FE0
1F80
ENDCHAR
STARTCHAR 016F
ENCODING 367
SWIDTH 540 0
DWIDTH 12 0
BBX 10 17 1 -1
BITMAP
0C00
1200
1200
0C00
0000
C0C0
C0C0
C0C0
C0C0
C0C0
C0C0
C0C0
C0C0
C0C0
E1C0
7FC0
3EC0
ENDCHAR
STARTCHAR 0170
ENCODING 368
SWIDTH 720 0
DWIDTH 16 0
BBX 12 21 2 0
BITMAP
0770
06E0
0CC0
1980
0000
C030
C030
C030
C030
C030
C030
C030
C030
C030
C030
C030
C030
C030
6070
7FE0
1F80
ENDCHAR
STARTCHAR 0171
ENCODING 369
SWIDTH 540 0
DWIDTH 12 0
BBX 10 16 1 -1
BITMAP
0CC0
1980
1100
0000
C0C0
C0C0
C0C0
C0C0
C0C0
C0C0
C0C0
C0C0
C0C0
E1C0
7FC0
3EC0
ENDCHAR
STARTCHAR 0172
ENCODING 370
SWIDTH 720 0
DWIDTH 16 0
BBX 12 20 2 -4
BITMAP
C030
C030
C030
C030
C030
C030
C030
C030
C030
C030
C030
C030
C030
6070
7FE0
1FC0
0180
0100
0180
00E0
ENDCHAR
STARTCHAR 0173
ENCODING 371
SWIDTH 540 0
DWIDTH 12 0
BBX 11 16 1 -4
BITMAP
C0C0
C0C0
C0C0
C0C0
C0C0
C0C0
C0C0
C0C0
C1C0
E1C0
7FC0
3CC0
0080
0100
0300
01E0
ENDCHAR
STARTCHAR 0174
ENCODING 372
SWIDTH 945 0
DWIDTH 21 0
BBX 19 21 1 0
BITMAP
00E000
00E000
01B000
031000
000000
C0E060
C0E060
C0E060
E1B060
61B0C0
61B0C0
6198C0
7318C0
331980
331980
320D80
360D80
1E0F00
1E0700
1C0700
0C0700
ENDCHAR
STARTCHAR 0175
ENCODING 373
SWIDTH 720 0
DWIDTH 16 0
BBX 16 16 0 0
BITMAP
0380
02C0
0460
0000
C183
6386
63C6
63C6
62C4
364C
366C
366C
1468
1C38
1C38
1C30
ENDCHAR
STARTCHAR 0176
ENCODING 374
SWIDTH 675 0
DWIDTH 15 0
BBX 13 21 1 0
BITMAP
0700
0700
0D80
08C0
0000
C018
E038
6030
3060
3860
18C0
1DC0
0D80
0700
0700
0300
0300
0300
0300
0300
0300
ENDCHAR
STARTCHAR 0177
ENCODING 375
SWIDTH 495 0
DWIDTH 11 0
BBX 9 21 1 -5
BITMAP
1C00
3600
2300
0000
C180
C180
C180
6300
6300
6300
2600
3600
3600
1C00
1C00
1800
1800
1800
3000
F000
E000
ENDCHAR
STARTCHAR 0178
ENCODING 376
SWIDTH 675 0
DWIDTH 15 0
BBX 13 20 1 0
BITMAP
0DC0
0DC0
0000
0000
C018
E038
6030
3060
3860
18C0
1DC0
0D80
0700
0700
0300
0300
0300
0300
0300
0300
ENDCHAR
STARTCHAR 0179
ENCODING 377
SWIDTH 630 0
DWIDTH 14 0
BBX 12 21 1 0
BITMAP
0180
0300
0600
0400
0000
FFF0
FFF0
0060
00E0
01C0
0380
0300
0600
0E00
1C00
1800
3000
7000
E000
FFF0
FFF0
ENDCHAR
STARTCHAR 017A
ENCODING 378
SWIDTH 495 0
DWIDTH 11 0
BBX 9 16 1 0
BITMAP
0600
0C00
1800
0000
FF80
FF80
0300
0600
0E00
0C00
1800
3000
6000
E000
FF80
FF80
ENDCHAR
STARTCHAR 017B
ENCODING 379
SWIDTH 630 0
DWIDTH 14 0
BBX 12 20 1 0
BITMAP
0600
0600
0000
0000
FFF0
FFF0
0060
00E0
01C0
0380
0300
0600
0E00
1C00
1800
3000
7000
E000
FFF0
FFF0
ENDCHAR
STARTCHAR 017C
ENCODING 380
SWIDTH 495 0
DWIDTH 11 0
BBX 9 16 1 0
BITMAP
1C00
1C00
0000
0000
FF80
FF80
0300
0600
0E00
0C00
1800
3000
6000
E000
FF80
FF80
ENDCHAR
STARTCHAR 017D
ENCODING 381
SWIDTH 630 0
DWIDTH 14 0
BBX 12 21 1 0
BITMAP
1080
0900
0F00
0600
0000
FFF0
FFF0
0060
00E0
01C0
0380
0300
0600
0E00
1C00
1800
3000
7000
E000
FFF0
FFF0
ENDCHAR
STARTCHAR 017E
ENCODING 382
SWIDTH 495 0
DWIDTH 11 0
BBX 9 16 1 0
BITMAP
2200
1600
1C00
0000
FF80
FF80
0300
0600
0E00
0C00
1800
3000
6000
E000
FF80
FF80
ENDCHAR
STARTCHAR 017F
ENCODING 383
SWIDTH 225 0
DWIDTH 5 0
BBX 5 16 0 0
BITMAP
38
78
60
60
E0
E0
60
60
60
60
60
60
60
60
60
60
ENDCHAR
STARTCHAR 0192
ENCODING 402
SWIDTH 540 0
DWIDTH 12 0
BBX 12 21 0 -5
BITMAP
0070
01F0
0180
0300
0300
0300
1FC0
1FC0
0600
0600
0600
0600
0600
0C00
0C00
0C00
0C00
0C00
1800
F000
E000
ENDCHAR
STARTCHAR 01FA
ENCODING 506
SWIDTH 675 0
DWIDTH 15 0
BBX 13 24 1 0
BITMAP
0600
0C00
0800
1700
0500
0500
0700
0000
0700
0700
0D80
0D80
0D80
18C0
18C0
30C0
3060
3FE0
7FF0
6030
6030
C038
C018
C018
ENDCHAR
STARTCHAR 01FB
ENCODING 507
SWIDTH 540 0
DWIDTH 12 0
BBX 11 20 1 0
BITMAP
0C00
1800
3000
0C00
1200
1200
0C00
0000
3F00
7F80
6180
C080
0180
1F80
7880
C080
C080
C180
FEE0
3CE0
ENDCHAR
STARTCHAR 01FC
ENCODING 508
SWIDTH 990 0
DWIDTH 22 0
BBX 21 21 0 0
BITMAP
000700
000600
000C00
000800
000000
01FFF8
03FFF8
033000
073000
063000
063000
0C3000
0C3FF0
1C3FF0
183000
1FF000
3FF000
303000
703000
603FF8
E03FF8
ENDCHAR
STARTCHAR 01FD
ENCODING 509
SWIDTH 900 0
DWIDTH 20 0
BBX 18 16 1 0
BITMAP
006000
00C000
008000
000000
3E3E00
7FFF00
E1C180
C1C180
0180C0
3FFFC0
79FFC0
C18000
C1C080
C3C180
FE7F00
7C3E00
ENDCHAR
STARTCHAR 01FE
ENCODING 510
SWIDTH 765 0
DWIDTH 17 0
BBX 16 20 1 0
BITMAP
01C0
0300
0200
0000
07E3
1FF6
383C
601C
E03E
C066
C0C6
C186
C306
C606
CC06
F80E
700C
7838
DFF0
87E0
ENDCHAR
STARTCHAR 01FF
ENCODING 511
SWIDTH 630 0
DWIDTH 14 0
BBX 12 17 0 0
BITMAP
0380
0300
0600
0C00
0000
0F10
3FE0
30E0
60E0
6160
6260
6460
6860
7060
30E0
7FC0
CF00
ENDCHAR
STARTCHAR 0218
ENCODING 536
SWIDTH 675 0
DWIDTH 15 0
BBX 13 22 1 -6
BITMAP
1F80
3FE0
7070
6030
6030
6000
7800
3F80
03E0
0070
0038
C018
E038
7030
3FE0
1FC0
0000
0700
0700
0100
0200
0600
ENDCHAR
STARTCHAR 0219
ENCODING 537
SWIDTH 495 0
DWIDTH 11 0
BBX 9 18 1 -6
BITMAP
3E00
7F00
C380
C000
E000
7C00
1F00
0180
C180
C180
FF00
3E00
0000
1C00
1C00
0400
0800
1000
ENDCHAR
STARTCHAR 021A
ENCODING 538
SWIDTH 630 0
DWIDTH 14 0
BBX 13 22 0 -6
BITMAP
FFF8
FFF8
0300
0300
0300
0300
0300
0300
0300
0300
0300
0300
0300
0300
0300
0300
0000
0300
0300
0100
0100
0200
ENDCHAR
STARTCHAR 021B
ENCODING 539
SWIDTH 270 0
DWIDTH 6 0
BBX 6 21 0 -6
BITMAP
30
30
30
FC
FC
30
30
30
30
30
30
30
30
3C
3C
00
38
38
08
10
30
ENDCHAR
STARTCHAR 02C6
ENCODING 710
SWIDTH 315 0
DWIDTH 7 0
BBX 5 3 1 13
BITMAP
70
58
C8
ENDCHAR
STARTCHAR 02C7
ENCODING 711
SWIDTH 315 0
DWIDTH 7 0
BBX 5 3 1 13
BITMAP
88
D8
70
ENDCHAR
STARTCHAR 02C9
ENCODING 713
SWIDTH 315 0
DWIDTH 7 0
BBX 6 2 1 14
BITMAP
FC
FC
ENDCHAR
STARTCHAR 02D8
ENCODING 728
SWIDTH 315 0
DWIDTH 7 0
BBX 7 3 0 13
BITMAP
C2
7E
3C
ENDCHAR
STARTCHAR 02D9
ENCODING 729
SWIDTH 315 0
DWIDTH 7 0
BBX 2 2 3 14
BITMAP
C0
C0
ENDCHAR
STARTCHAR 02DA
ENCODING 730
SWIDTH 315 0
DWIDTH 7 0
BBX 4 4 2 13
BITMAP
E0
90
90
E0
ENDCHAR
STARTCHAR 02DB
ENCODING 731
SWIDTH 315 0
DWIDTH 7 0
BBX 5 5 1 -5
BITMAP
20
40
C0
C0
78
ENDCHAR
STARTCHAR 02DC
ENCODING 732
SWIDTH 315 0
DWIDTH 7 0
BBX 7 2 0 13
BITMAP
62
FE
ENDCHAR
STARTCHAR 02DD
ENCODING 733
SWIDTH 315 0
DWIDTH 7 0
BBX 7 3 0 13
BITMAP
66
CC
88
ENDCHAR
STARTCHAR 0384
ENCODING 900
SWIDTH 315 0
DWIDTH 7 0
BBX 2 4 3 13
BITMAP
C0
C0
80
80
ENDCHAR
STARTCHAR 0385
ENCODING 901
SWIDTH 315 0
DWIDTH 7 0
BBX 6 5 1 14
BITMAP
30
30
20
EC
CC
ENDCHAR
STARTCHAR 0386
ENCODING 902
SWIDTH 675 0
DWIDTH 15 0
BBX 13 16 1 0
BITMAP
C700
C700
CD80
4D80
0D80
18C0
18C0
30C0
3060
3FE0
7FF0
6030
6030
C038
C018
C018
ENDCHAR
STARTCHAR 0387
ENCODING 903
SWIDTH 270 0
DWIDTH 6 0
BBX 3 2 2 5
BITMAP
E0
E0
ENDCHAR
STARTCHAR 0388
ENCODING 904
SWIDTH 765 0
DWIDTH 17 0
BBX 14 16 1 0
BITMAP
9FFC
9FFC
9800
9800
1800
1800
1800
1FFC
1FFC
1800
1800
1800
1800
1800
1FFC
1FFC
ENDCHAR
STARTCHAR 0389
ENCODING 905
SWIDTH 855 0
DWIDTH 19 0
BBX 16 16 0 0
BITMAP
DC03
DC03
5C03
5C03
1C03
1C03
1C03
1FFF
1FFF
1C03
1C03
1C03
1C03
1C03
1C03
1C03
ENDCHAR
STARTCHAR 038A
ENCODING 906
SWIDTH 405 0
DWIDTH 9 0
BBX 5 16 1 0
BITMAP
98
98
98
98
18
18
18
18
18
18
18
18
18
18
18
18
ENDCHAR
STARTCHAR 038C
ENCODING 908
SWIDTH 765 0
DWIDTH 17 0
BBX 17 16 -1 0
BITMAP
C1F800
C7FC00
4E0F00
580300
380380
300180
300180
300180
300180
300180
300180
380380
180300
0E0E00
07FC00
01F800
ENDCHAR
STARTCHAR 038E
ENCODING 910
SWIDTH 855 0
DWIDTH 19 0
BBX 16 16 1 0
BITMAP
D803
DC07
8C06
8E0C
071C
0318
03B8
01B0
00E0
00E0
00E0
00E0
00E0
00E0
00E0
00E0
ENDCHAR
STARTCHAR 038F
ENCODING 911
SWIDTH 765 0
DWIDTH 17 0
BBX 16 16 0 0
BITMAP
83E0
8FF8
9C1C
B00E
7006
6007
6003
6003
6003
6006
7006
3006
180C
0C18
7E3F
7E3F
ENDCHAR
STARTCHAR 0390
ENCODING 912
SWIDTH 225 0
DWIDTH 5 0
BBX 5 19 0 0
BITMAP
20
20
20
F8
D8
00
00
20
20
20
20
20
20
20
20
20
20
20
20
ENDCHAR
STARTCHAR 0391
ENCODING 913
SWIDTH 675 0
DWIDTH 15 0
BBX 13 16 1 0
BITMAP
0700
0700
0D80
0D80
0D80
18C0
18C0
30C0
3060
3FE0
7FF0
6030
6030
C038
C018
C018
ENDCHAR
STARTCHAR 0392
ENCODING 914
SWIDTH 675 0
DWIDTH 15 0
BBX 12 16 2 0
BITMAP
FF80
FFC0
C0E0
C060
C060
C060
C0C0
FF80
FFC0
C060
C030
C030
C030
C060
FFE0
FF80
ENDCHAR
STARTCHAR 0393
ENCODING 915
SWIDTH 540 0
DWIDTH 12 0
BBX 10 16 2 0
BITMAP
FFC0
FFC0
C000
C000
C000
C000
C000
C000
C000
C000
C000
C000
C000
C000
C000
C000
ENDCHAR
STARTCHAR 0394
ENCODING 916
SWIDTH 675 0
DWIDTH 15 0
BBX 15 16 0 0
BITMAP
0380
0380
07C0
06C0
0EC0
0C60
0C60
1870
1830
3830
3018
3018
601C
600C
FFFC
FFFE
ENDCHAR
STARTCHAR 0395
ENCODING 917
SWIDTH 675 0
DWIDTH 15 0
BBX 12 16 2 0
BITMAP
FFE0
FFE0
C000
C000
C000
C000
C000
FFE0
FFE0
C000
C000
C000
C000
C000
FFF0
FFF0
ENDCHAR
STARTCHAR 0396
ENCODING 918
SWIDTH 630 0
DWIDTH 14 0
BBX 12 16 1 0
BITMAP
FFF0
FFF0
0060
00E0
01C0
0380
0300
0600
0E00
1C00
1800
3000
7000
E000
FFF0
FFF0
ENDCHAR
STARTCHAR 0397
ENCODING 919
SWIDTH 720 0
DWIDTH 16 0
BBX 12 16 2 0
BITMAP
C030
C030
C030
C030
C030
C030
C030
FFF0
FFF0
C030
C030
C030
C030
C030
C030
C030
ENDCHAR
STARTCHAR 0398
ENCODING 920
SWIDTH 765 0
DWIDTH 17 0
BBX 15 16 1 0
BITMAP
07E0
1FF8
381C
600C
E006
C006
C006
CFE6
CFE6
C006
C006
6006
700C
3838
1FF0
07E0
ENDCHAR
STARTCHAR 0399
ENCODING 921
SWIDTH 270 0
DWIDTH 6 0
BBX 2 16 2 0
BITMAP
C0
C0
C0
C0
C0
C0
C0
C0
C0
C0
C0
C0
C0
C0
C0
C0
ENDCHAR
STARTCHAR 039A
ENCODING 922
SWIDTH 675 0
DWIDTH 15 0
BBX 12 16 2 0
BITMAP
C070
C0E0
C1C0
C380
C700
CE00
DC00
FE00
F600
E300
C380
C180
C0C0
C0E0
C070
C030
ENDCHAR
STARTCHAR 039B
ENCODING 923
SWIDTH 675 0
DWIDTH 15 0
BBX 13 16 1 0
BITMAP
0700
0F00
0D80
0D80
1D80
18C0
18C0
38C0
3060
3060
7070
6030
6030
E038
C018
C018
ENDCHAR
STARTCHAR 039C
ENCODING 924
SWIDTH 855 0
DWIDTH 19 0
BBX 15 16 2 0
BITMAP
E00E
E00E
E01E
F01E
F016
D036
D836
D826
C866
CC66
CCC6
C4C6
C6C6
C786
C386
C386
ENDCHAR
STARTCHAR 039D
ENCODING 925
SWIDTH 720 0
DWIDTH 16 0
BBX 12 16 2 0
BITMAP
C030
E030
F030
F030
D830
D830
CC30
C630
C630
C330
C3B0
C1B0
C0F0
C0F0
C070
C030
ENDCHAR
STARTCHAR 039E
ENCODING 926
SWIDTH 630 0
DWIDTH 14 0
BBX 12 16 1 0
BITMAP
FFF0
FFF0
0000
0000
0000
0000
0000
7FE0
7FE0
0000
0000
0000
0000
0000
FFF0
FFF0
ENDCHAR
STARTCHAR 039F
ENCODING 927
SWIDTH 765 0
DWIDTH 17 0
BBX 15 16 1 0
BITMAP
07E0
1FF8
381C
700C
6006
C006
C006
C006
C006
C006
C006
6006
600C
381C
1FF0
07E0
ENDCHAR
STARTCHAR 03A0
ENCODING 928
SWIDTH 720 0
DWIDTH 16 0
BBX 12 16 2 0
BITMAP
FFF0
FFF0
C030
C030
C030
C030
C030
C030
C030
C030
C030
C030
C030
C030
C030
C030
ENDCHAR
STARTCHAR 03A1
ENCODING 929
SWIDTH 675 0
DWIDTH 15 0
BBX 12 16 2 0
BITMAP
FF80
FFE0
C060
C070
C030
C070
C060
FFE0
FF80
C000
C000
C000
C000
C000
C000
C000
ENDCHAR
STARTCHAR 03A3
ENCODING 931
SWIDTH 630 0
DWIDTH 14 0
BBX 12 16 1 0
BITMAP
FFE0
FFE0
6000
3000
1800
0C00
0600
0300
0300
0600
0C00
1800
3000
6000
FFF0
FFF0
ENDCHAR
STARTCHAR 03A4
ENCODING 932
SWIDTH 630 0
DWIDTH 14 0
BBX 13 16 0 0
BITMAP
FFF8
FFF8
0300
0300
0300
0300
0300
0300
0300
0300
0300
0300
0300
0300
0300
0300
ENDCHAR
STARTCHAR 03A5
ENCODING 933
SWIDTH 675 0
DWIDTH 15 0
BBX 13 16 1 0
BITMAP
C018
E038
6030
3060
3860
18C0
1DC0
0D80
0700
0700
0300
0300
0300
0300
0300
0300
ENDCHAR
STARTCHAR 03A6
ENCODING 934
SWIDTH 810 0
DWIDTH 18 0
BBX 14 16 2 0
BITMAP
0300
0300
1FC0
3FF0
6338
C31C
C30C
C30C
C30C
C30C
C31C
6338
3FF0
1FE0
0300
0300
ENDCHAR
STARTCHAR 03A7
ENCODING 935
SWIDTH 675 0
DWIDTH 15 0
BBX 13 16 1 0
BITMAP
E038
6030
3060
38E0
18C0
0D80
0F80
0700
0700
0D80
1DC0
18C0
3060
7070
6030
C018
ENDCHAR
STARTCHAR 03A8
ENCODING 936
SWIDTH 855 0
DWIDTH 19 0
BBX 16 16 1 0
BITMAP
E183
E183
E183
E183
E183
E183
E183
6183
6183
6187
318E
3FFC
0FF0
0180
0180
0180
ENDCHAR
STARTCHAR 03A9
ENCODING 937
SWIDTH 765 0
DWIDTH 17 0
BBX 15 16 1 0
BITMAP
07C0
1FF0
3838
601C
E00C
C00C
C006
C006
C006
C00C
E00C
600C
3018
1830
FC7E
FC7E
ENDCHAR
STARTCHAR 03AA
ENCODING 938
SWIDTH 270 0
DWIDTH 6 0
BBX 6 20 0 0
BITMAP
CC
CC
00
00
30
30
30
30
30
30
30
30
30
30
30
30
30
30
30
30
ENDCHAR
STARTCHAR 03AB
ENCODING 939
SWIDTH 675 0
DWIDTH 15 0
BBX 13 20 1 0
BITMAP
1D80
1D80
0000
0000
C018
E038
6030
3060
3860
18C0
1DC0
0D80
0700
0700
0300
0300
0300
0300
0300
0300
ENDCHAR
STARTCHAR 03AC
ENCODING 940
SWIDTH 585 0
DWIDTH 13 0
BBX 13 17 0 0
BITMAP
0C00
0C00
0400
0400
0000
1E18
3FB0
61B0
60F0
C0E0
C060
C060
C0F0
60F0
61B0
3F18
1E18
ENDCHAR
STARTCHAR 03AD
ENCODING 941
SWIDTH 450 0
DWIDTH 10 0
BBX 10 17 0 0
BITMAP
0C00
0C00
0C00
0800
0000
1E00
7F80
6180
60C0
6000
3C00
7C00
6000
C0C0
6180
7F80
1E00
ENDCHAR
STARTCHAR 03AE
ENCODING 942
SWIDTH 540 0
DWIDTH 12 0
BBX 9 23 2 -5
BITMAP
0C00
0C00
0800
0800
0800
0000
9E00
BF00
C180
C180
8180
8180
8180
8180
8180
8180
8180
8180
0180
0180
0180
0180
0180
ENDCHAR
STARTCHAR 03AF
ENCODING 943
SWIDTH 225 0
DWIDTH 5 0
BBX 1 18 2 0
BITMAP
80
80
80
80
80
00
80
80
80
80
80
80
80
80
80
80
80
80
ENDCHAR
STARTCHAR 03B0
ENCODING 944
SWIDTH 540 0
DWIDTH 12 0
BBX 10 19 1 0
BITMAP
0C00
0C00
0C00
3700
3300
0000
0000
C0C0
C0C0
C0C0
C0C0
C0C0
C0C0
C0C0
C0C0
C0C0
61C0
7F80
3F00
ENDCHAR
STARTCHAR 03B1
ENCODING 945
SWIDTH 585 0
DWIDTH 13 0
BBX 12 12 1 0
BITMAP
3E30
7F30
6360
C1E0
C0C0
C0C0
C0C0
C1E0
C1E0
E360
7E30
3C30
ENDCHAR
STARTCHAR 03B2
ENCODING 946
SWIDTH 585 0
DWIDTH 13 0
BBX 10 20 2 -4
BITMAP
3E00
7F00
C300
C180
C180
C300
CE00
CF00
C180
C180
C0C0
C0C0
C180
C180
FF00
FE00
C000
C000
C000
C000
ENDCHAR
STARTCHAR 03B3
ENCODING 947
SWIDTH 495 0
DWIDTH 11 0
BBX 11 16 0 -4
BITMAP
E060
60C0
60C0
31C0
3180
3180
1B00
1B00
0F00
0E00
0E00
0600
0600
0600
0600
0600
ENDCHAR
STARTCHAR 03B4
ENCODING 948
SWIDTH 540 0
DWIDTH 12 0
BBX 10 16 1 0
BITMAP
7F80
7F80
3800
0C00
1F00
3F80
61C0
C0C0
C0C0
C0C0
C040
C0C0
C0C0
61C0
7F80
1F00
ENDCHAR
STARTCHAR 03B5
ENCODING 949
SWIDTH 450 0
DWIDTH 10 0
BBX 10 12 0 0
BITMAP
1E00
7F80
6180
60C0
6000
3C00
7C00
6000
C0C0
6180
7F80
1E00
ENDCHAR
STARTCHAR 03B6
ENCODING 950
SWIDTH 450 0
DWIDTH 10 0
BBX 9 21 1 -5
BITMAP
7F80
7F80
0600
0C00
1800
3000
6000
6000
C000
C000
C000
C000
C000
C000
7800
3F80
0180
0180
0180
0180
0300
ENDCHAR
STARTCHAR 03B7
ENCODING 951
SWIDTH 540 0
DWIDTH 12 0
BBX 9 17 2 -5
BITMAP
9E00
BF00
C180
C180
8180
8180
8180
8180
8180
8180
8180
8180
0180
0180
0180
0180
0180
ENDCHAR
STARTCHAR 03B8
ENCODING 952
SWIDTH 540 0
DWIDTH 12 0
BBX 10 17 1 0
BITMAP
1E00
3F80
6180
60C0
C0C0
C0C0
C0C0
C0C0
FFC0
C0C0
C0C0
C0C0
C0C0
40C0
6180
3F80
1E00
ENDCHAR
STARTCHAR 03B9
ENCODING 953
SWIDTH 225 0
DWIDTH 5 0
BBX 1 12 2 0
BITMAP
80
80
80
80
80
80
80
80
80
80
80
80
ENDCHAR
STARTCHAR 03BA
ENCODING 954
SWIDTH 495 0
DWIDTH 11 0
BBX 10 12 1 0
BITMAP
C180
C300
C600
CC00
DC00
FC00
E600
C600
C300
C380
C180
C0C0
ENDCHAR
STARTCHAR 03BB
ENCODING 955
SWIDTH 495 0
DWIDTH 11 0
BBX 9 16 1 0
BITMAP
3000
3000
1800
1800
1800
1C00
1C00
1400
3600
3600
6300
6300
6300
C180
C180
C180
ENDCHAR
STARTCHAR 03BC
ENCODING 956
SWIDTH 585 0
DWIDTH 13 0
BBX 9 16 2 -4
BITMAP
C180
C180
C180
C180
C180
C180
C180
C180
C180
C380
FF80
FC00
C000
C000
C000
C000
ENDCHAR
STARTCHAR 03BD
ENCODING 957
SWIDTH 495 0
DWIDTH 11 0
BBX 11 12 0 0
BITMAP
E060
60C0
60C0
60C0
3180
3180
3300
1B00
1B00
1E00
0E00
0E00
ENDCHAR
STARTCHAR 03BE
ENCODING 958
SWIDTH 450 0
DWIDTH 10 0
BBX 9 21 1 -5
BITMAP
FF00
FF00
6000
6000
6000
6000
7000
3F00
7F00
E000
C000
C000
C000
C000
F000
7F80
0180
0180
0180
0180
0100
ENDCHAR
STARTCHAR 03BF
ENCODING 959
SWIDTH 540 0
DWIDTH 12 0
BBX 10 12 1 0
BITMAP
1F00
7F80
61C0
C0C0
C0C0
C0C0
C0C0
C0C0
C0C0
61C0
7F80
1F00
ENDCHAR
STARTCHAR 03C0
ENCODING 960
SWIDTH 675 0
DWIDTH 15 0
BBX 13 12 1 0
BITMAP
FFF8
FFF8
3060
3060
3060
3060
3060
3060
3060
3060
3060
3060
ENDCHAR
STARTCHAR 03C1
ENCODING 961
SWIDTH 585 0
DWIDTH 13 0
BBX 11 16 1 -4
BITMAP
1F00
3F80
60C0
60C0
C060
C060
C060
C060
E0C0
E0C0
FF80
CF00
C000
C000
C000
C000
ENDCHAR
STARTCHAR 03C2
ENCODING 962
SWIDTH 495 0
DWIDTH 11 0
BBX 10 17 1 -5
BITMAP
1E00
7F80
E180
C0C0
C000
C000
C000
C000
C000
7000
3C00
0F80
0180
0180
0180
0180
0100
ENDCHAR
STARTCHAR 03C3
ENCODING 963
SWIDTH 630 0
DWIDTH 14 0
BBX 12 12 1 0
BITMAP
1FF0
3FF0
60C0
60E0
C060
C060
C060
C060
60E0
60C0
3F80
1F00
ENDCHAR
STARTCHAR 03C4
ENCODING 964
SWIDTH 405 0
DWIDTH 9 0
BBX 9 12 0 0
BITMAP
FF80
FF80
1800
1800
1800
1800
1800
1800
1800
1800
1800
1800
ENDCHAR
STARTCHAR 03C5
ENCODING 965
SWIDTH 540 0
DWIDTH 12 0
BBX 10 12 1 0
BITMAP
C0C0
C0C0
C0C0
C0C0
C0C0
C0C0
C0C0
C0C0
C0C0
61C0
7F80
3F00
ENDCHAR
STARTCHAR 03C6
ENCODING 966
SWIDTH 630 0
DWIDTH 14 0
BBX 12 17 1 -5
BITMAP
1780
37E0
6660
C630
C630
C630
C630
C630
C630
E630
76E0
3FC0
0600
0600
0600
0600
0600
ENDCHAR
STARTCHAR 03C7
ENCODING 967
SWIDTH 540 0
DWIDTH 12 0
BBX 10 16 1 -4
BITMAP
C180
6180
6300
3300
3600
1E00
1C00
0C00
0C00
1E00
1E00
3700
3300
6380
6180
C1C0
ENDCHAR
STARTCHAR 03C8
ENCODING 968
SWIDTH 720 0
DWIDTH 16 0
BBX 12 17 2 -5
BITMAP
C630
C630
C630
C630
C630
C630
C630
C630
C630
E630
76E0
3FC0
0600
0600
0600
0600
0600
ENDCHAR
STARTCHAR 03C9
ENCODING 969
SWIDTH 765 0
DWIDTH 17 0
BBX 13 12 2 0
BITMAP
3060
6030
6018
C318
C318
C318
C318
C318
C318
E718
7DF0
38E0
ENDCHAR
STARTCHAR 03CA
ENCODING 970
SWIDTH 225 0
DWIDTH 5 0
BBX 6 16 -1 0
BITMAP
EC
EC
00
00
10
10
10
10
10
10
10
10
10
10
10
10
ENDCHAR
STARTCHAR 03CB
ENCODING 971
SWIDTH 540 0
DWIDTH 12 0
BBX 10 16 1 0
BITMAP
3300
3300
0000
0000
C0C0
C0C0
C0C0
C0C0
C0C0
C0C0
C0C0
C0C0
C0C0
61C0
7F80
3F00
ENDCHAR
STARTCHAR 03CC
ENCODING 972
SWIDTH 540 0
DWIDTH 12 0
BBX 10 17 1 0
BITMAP
0C00
0C00
0C00
0400
0000
1F00
7F80
61C0
C0C0
C0C0
C0C0
C0C0
C0C0
C0C0
61C0
7F80
1F00
ENDCHAR
STARTCHAR 03CD
ENCODING 973
SWIDTH 540 0
DWIDTH 12 0
BBX 10 18 1 0
BITMAP
0C00
0C00
0C00
0C00
0000
0000
C0C0
C0C0
C0C0
C0C0
C0C0
C0C0
C0C0
C0C0
C0C0
61C0
7F80
3F00
ENDCHAR
STARTCHAR 03CE
ENCODING 974
SWIDTH 765 0
DWIDTH 17 0
BBX 13 18 2 0
BITMAP
0300
0300
0300
0200
0200
0000
3060
6030
6018
C318
C318
C318
C318
C318
C318
E718
7DF0
38E0
ENDCHAR
STARTCHAR 03D1
ENCODING 977
SWIDTH 540 0
DWIDTH 12 0
BBX 12 17 0 0
BITMAP
0F00
3F80
30C0
30C0
3060
3060
3860
1F70
07F0
0060
E060
6060
6060
60C0
30C0
3F80
1F00
ENDCHAR
STARTCHAR 03D5
ENCODING 981
SWIDTH 540 0
DWIDTH 12 0
BBX 12 20 0 -5
BITMAP
0600
0600
0600
1F80
3FC0
6660
6630
C630
C630
C630
C630
6630
6670
76E0
3FC0
0600
0600
0600
0600
0600
ENDCHAR
STARTCHAR 03D6
ENCODING 982
SWIDTH 765 0
DWIDTH 17 0
BBX 13 12 2 0
BITMAP
FF80
FFE0
6030
C018
C018
C318
C318
C318
C718
C718
7DF0
38E0
ENDCHAR
STARTCHAR 0400
ENCODING 1024
SWIDTH 675 0
DWIDTH 15 0
BBX 12 21 2 0
BITMAP
1800
0C00
0600
0200
0000
FFE0
FFE0
C000
C000
C000
C000
C000
FFE0
FFE0
C000
C000
C000
C000
C000
FFF0
FFF0
ENDCHAR
STARTCHAR 0401
ENCODING 1025
SWIDTH 675 0
DWIDTH 15 0
BBX 12 20 2 0
BITMAP
1B00
1B00
0000
0000
FFE0
FFE0
C000
C000
C000
C000
C000
FFE0
FFE0
C000
C000
C000
C000
C000
FFF0
FFF0
ENDCHAR
STARTCHAR 0402
ENCODING 1026
SWIDTH 855 0
DWIDTH 19 0
BBX 16 16 1 0
BITMAP
FFE0
FFE0
0600
0600
0600
067C
07FE
0707
0603
0603
0603
0603
0603
0603
063F
063E
ENDCHAR
STARTCHAR 0403
ENCODING 1027
SWIDTH 540 0
DWIDTH 12 0
BBX 10 21 2 0
BITMAP
0600
0C00
1800
1000
0000
FFC0
FFC0
C000
C000
C000
C000
C000
C000
C000
C000
C000
C000
C000
C000
C000
C000
ENDCHAR
STARTCHAR 0404
ENCODING 1028
SWIDTH 720 0
DWIDTH 16 0
BBX 16 16 0 0
BITMAP
07E0
1FF8
381C
300E
6006
6000
E000
FF80
FF80
E000
6003
6006
700E
381C
1FF8
07E0
ENDCHAR
STARTCHAR 0405
ENCODING 1029
SWIDTH 675 0
DWIDTH 15 0
BBX 13 16 1 0
BITMAP
1F80
3FE0
7070
6030
6030
6000
7800
3F80
03E0
0070
0038
C018
E038
7030
3FE0
1FC0
ENDCHAR
STARTCHAR 0406
ENCODING 1030
SWIDTH 270 0
DWIDTH 6 0
BBX 2 16 2 0
BITMAP
C0
C0
C0
C0
C0
C0
C0
C0
C0
C0
C0
C0
C0
C0
C0
C0
ENDCHAR
STARTCHAR 0407
ENCODING 1031
SWIDTH 270 0
DWIDTH 6 0
BBX 6 20 0 0
BITMAP
CC
CC
00
00
30
30
30
30
30
30
30
30
30
30
30
30
30
30
30
30
ENDCHAR
STARTCHAR 0408
ENCODING 1032
SWIDTH 495 0
DWIDTH 11 0
BBX 9 16 0 0
BITMAP
0180
0180
0180
0180
0180
0180
0180
0180
0180
0180
C180
C180
E180
6180
7F00
3E00
ENDCHAR
STARTCHAR 0409
ENCODING 1033
SWIDTH 1035 0
DWIDTH 23 0
BBX 22 16 1 0
BITMAP
3FF000
3FF000
303000
303000
303000
303000
303000
303FF0
303FF8
30301C
30300C
30300C
30300C
70301C
E03FF8
C03FF0
ENDCHAR
STARTCHAR 040A
ENCODING 1034
SWIDTH 990 0
DWIDTH 22 0
BBX 21 16 1 0
BITMAP
C06000
C06000
C06000
C06000
C06000
C06000
C06000
FFFFE0
FFFFF0
C06030
C06018
C06018
C06018
C06038
C07FF0
C07FE0
ENDCHAR
STARTCHAR 040B
ENCODING 1035
SWIDTH 855 0
DWIDTH 19 0
BBX 17 16 0 0
BITMAP
FFF000
FFF000
030000
030000
030000
033C00
03FF00
038300
030380
030180
030180
030180
030180
030180
030180
030180
ENDCHAR
STARTCHAR 040C
ENCODING 1036
SWIDTH 585 0
DWIDTH 13 0
BBX 11 21 1 0
BITMAP
0300
0600
0400
0800
0000
C0C0
C180
C380
C300
C700
C600
CC00
FC00
FC00
CE00
C600
C300
C380
C180
C0C0
C060
ENDCHAR
STARTCHAR 040D
ENCODING 1037
SWIDTH 720 0
DWIDTH 16 0
BBX 12 21 2 0
BITMAP
1C00
0C00
0600
0300
0000
C030
C030
C030
C070
C0F0
C1F0
C3B0
C730
CE30
DC30
F830
F030
E030
C030
C030
C030
ENDCHAR
STARTCHAR 040E
ENCODING 1038
SWIDTH 630 0
DWIDTH 14 0
BBX 13 20 1 0
BITMAP
1080
1F80
0600
0000
C038
E030
6070
6060
3060
30E0
38C0
19C0
1D80
0D80
0F00
0700
0600
0600
3E00
3C00
ENDCHAR
STARTCHAR 040F
ENCODING 1039
SWIDTH 720 0
DWIDTH 16 0
BBX 12 20 2 -4
BITMAP
C030
C030
C030
C030
C030
C030
C030
C030
C030
C030
C030
C030
C030
C030
FFF0
FFF0
0600
0600
0600
0600
ENDCHAR
STARTCHAR 0410
ENCODING 1040
SWIDTH 675 0
DWIDTH 15 0
BBX 13 16 1 0
BITMAP
0700
0700
0D80
0D80
1D80
18C0
18C0
30C0
3060
3FE0
7FF0
6030
6030
C038
C018
C018
ENDCHAR
STARTCHAR 0411
ENCODING 1041
SWIDTH 675 0
DWIDTH 15 0
BBX 12 16 2 0
BITMAP
FFC0
FFC0
C000
C000
C000
C000
C000
FF80
FFE0
C060
C030
C030
C030
C060
FFE0
FF80
ENDCHAR
STARTCHAR 0412
ENCODING 1042
SWIDTH 675 0
DWIDTH 15 0
BBX 12 16 2 0
BITMAP
FF80
FFC0
C0E0
C060
C060
C060
C0C0
FF80
FFE0
C060
C030
C030
C030
C060
FFE0
FFC0
ENDCHAR
STARTCHAR 0413
ENCODING 1043
SWIDTH 540 0
DWIDTH 12 0
BBX 10 16 2 0
BITMAP
FFC0
FFC0
C000
C000
C000
C000
C000
C000
C000
C000
C000
C000
C000
C000
C000
C000
ENDCHAR
STARTCHAR 0414
ENCODING 1044
SWIDTH 675 0
DWIDTH 15 0
BBX 15 20 0 -4
BITMAP
0FF8
0FF8
0C18
0C18
0C18
0C18
0C18
0C18
0C18
0C18
0C18
0C18
1818
3818
FFFE
FFFE
C006
C006
C006
C006
ENDCHAR
STARTCHAR 0415
ENCODING 1045
SWIDTH 675 0
DWIDTH 15 0
BBX 12 16 2 0
BITMAP
FFE0
FFE0
C000
C000
C000
C000
C000
FFE0
FFE0
C000
C000
C000
C000
C000
FFF0
FFF0
ENDCHAR
STARTCHAR 0416
ENCODING 1046
SWIDTH 945 0
DWIDTH 21 0
BBX 20 16 0 0
BITMAP
606060
306060
3060C0
1861C0
1C6180
0C6380
0E6300
07FE00
07FF00
0E6300
0C6180
1861C0
3060C0
706060
606070
C06030
ENDCHAR
STARTCHAR 0417
ENCODING 1047
SWIDTH 585 0
DWIDTH 13 0
BBX 11 16 1 0
BITMAP
1F00
3FC0
70C0
60E0
60E0
00C0
01C0
0700
03C0
00E0
0060
C060
E060
60C0
3FC0
1F00
ENDCHAR
STARTCHAR 0418
ENCODING 1048
SWIDTH 720 0
DWIDTH 16 0
BBX 12 16 2 0
BITMAP
C030
C030
C030
C070
C0F0
C1F0
C3B0
C730
CE30
DC30
F830
F030
E030
C030
C030
C030
ENDCHAR
STARTCHAR 0419
ENCODING 1049
SWIDTH 720 0
DWIDTH 16 0
BBX 12 20 2 0
BITMAP
1080
1F80
0600
0000
C030
C030
C030
C070
C0F0
C1B0
C3B0
C730
CE30
DC30
F830
F030
E030
C030
C030
C030
ENDCHAR
STARTCHAR 041A
ENCODING 1050
SWIDTH 585 0
DWIDTH 13 0
BBX 11 16 1 0
BITMAP
C0C0
C180
C380
C300
C700
C600
CC00
FC00
FC00
CE00
C600
C300
C380
C180
C0C0
C060
ENDCHAR
STARTCHAR 041B
ENCODING 1051
SWIDTH 675 0
DWIDTH 15 0
BBX 14 16 0 0
BITMAP
1FFC
1FFC
181C
181C
181C
181C
181C
181C
181C
181C
181C
181C
301C
301C
E01C
C01C
ENDCHAR
STARTCHAR 041C
ENCODING 1052
SWIDTH 855 0
DWIDTH 19 0
BBX 15 16 2 0
BITMAP
E00E
E00E
E01E
F01E
F036
D036
D836
D866
C866
CC66
CCC6
C4C6
C6C6
C786
C386
C386
ENDCHAR
STARTCHAR 041D
ENCODING 1053
SWIDTH 720 0
DWIDTH 16 0
BBX 12 16 2 0
BITMAP
C030
C030
C030
C030
C030
C030
C030
FFF0
FFF0
C030
C030
C030
C030
C030
C030
C030
ENDCHAR
STARTCHAR 041E
ENCODING 1054
SWIDTH 765 0
DWIDTH 17 0
BBX 15 16 1 0
BITMAP
07E0
1FF0
383C
600C
E006
C006
C006
C006
C006
C006
C006
E006
600C
3838
1FF0
07E0
ENDCHAR
STARTCHAR 041F
ENCODING 1055
SWIDTH 720 0
DWIDTH 16 0
BBX 12 16 2 0
BITMAP
FFF0
FFF0
C030
C030
C030
C030
C030
C030
C030
C030
C030
C030
C030
C030
C030
C030
ENDCHAR
STARTCHAR 0420
ENCODING 1056
SWIDTH 675 0
DWIDTH 15 0
BBX 12 16 2 0
BITMAP
FF80
FFE0
C060
C070
C030
C070
C060
FFE0
FF80
C000
C000
C000
C000
C000
C000
C000
ENDCHAR
STARTCHAR 0421
ENCODING 1057
SWIDTH 720 0
DWIDTH 16 0
BBX 14 16 1 0
BITMAP
07C0
1FF0
3838
601C
600C
C000
C000
C000
C000
C000
C00C
600C
601C
3838
1FF0
0FC0
ENDCHAR
STARTCHAR 0422
ENCODING 1058
SWIDTH 630 0
DWIDTH 14 0
BBX 13 16 0 0
BITMAP
FFF8
FFF8
0300
0300
0300
0300
0300
0300
0300
0300
0300
0300
0300
0300
0300
0300
ENDCHAR
STARTCHAR 0423
ENCODING 1059
SWIDTH 630 0
DWIDTH 14 0
BBX 13 16 1 0
BITMAP
C038
E030
6070
6060
3060
30E0
38C0
19C0
1D80
0D80
0F00
0700
0600
0600
3E00
3C00
ENDCHAR
STARTCHAR 0424
ENCODING 1060
SWIDTH 765 0
DWIDTH 17 0
BBX 15 16 1 0
BITMAP
0300
0300
0FE0
3FF8
731C
C30E
C306
C306
C306
C306
C30E
731C
3FF8
0FE0
0300
0300
ENDCHAR
STARTCHAR 0425
ENCODING 1061
SWIDTH 675 0
DWIDTH 15 0
BBX 13 16 1 0
BITMAP
E038
6030
3060
38E0
18C0
0D80
0F80
0700
0700
0F80
1DC0
18C0
30E0
7070
E030
C038
ENDCHAR
STARTCHAR 0426
ENCODING 1062
SWIDTH 720 0
DWIDTH 16 0
BBX 14 20 2 -4
BITMAP
C030
C030
C030
C030
C030
C030
C030
C030
C030
C030
C030
C030
C030
C030
FFFC
FFFC
001C
001C
001C
001C
ENDCHAR
STARTCHAR 0427
ENCODING 1063
SWIDTH 675 0
DWIDTH 15 0
BBX 12 16 1 0
BITMAP
C030
C030
C030
C030
C030
C030
C030
C030
E030
7FF0
1FB0
0030
0030
0030
0030
0030
ENDCHAR
STARTCHAR 0428
ENCODING 1064
SWIDTH 900 0
DWIDTH 20 0
BBX 18 16 1 0
BITMAP
C0C0C0
C0C0C0
C0C0C0
C0C0C0
C0C0C0
C0C0C0
C0C0C0
C0C0C0
C0C0C0
C0C0C0
C0C0C0
C0C0C0
C0C0C0
C0C0C0
FFFFC0
FFFFC0
ENDCHAR
STARTCHAR 0429
ENCODING 1065
SWIDTH 945 0
DWIDTH 21 0
BBX 20 20 1 -4
BITMAP
C0C0E0
C0C0E0
C0C0E0
C0C0E0
C0C0E0
C0C0E0
C0C0E0
C0C0E0
C0C0E0
C0C0E0
C0C0E0
C0C0E0
C0C0E0
C0C0E0
FFFFF0
FFFFF0
000030
000030
000030
000030
ENDCHAR
STARTCHAR 042A
ENCODING 1066
SWIDTH 810 0
DWIDTH 18 0
BBX 18 16 -1 0
BITMAP
FF8000
FF8000
038000
038000
038000
038000
038000
03FF00
03FF80
0381C0
0380C0
0380C0
0380C0
0381C0
03FF80
03FF00
ENDCHAR
STARTCHAR 042B
ENCODING 1067
SWIDTH 900 0
DWIDTH 20 0
BBX 16 16 2 0
BITMAP
C003
C003
C003
C003
C003
C003
C003
FFC3
FFE3
C073
C033
C033
C033
C073
FFE3
FFC3
ENDCHAR
STARTCHAR 042C
ENCODING 1068
SWIDTH 675 0
DWIDTH 15 0
BBX 12 16 2 0
BITMAP
C000
C000
C000
C000
C000
C000
C000
FF80
FFE0
C060
C030
C030
C030
C060
FFE0
FF80
ENDCHAR
STARTCHAR 042D
ENCODING 1069
SWIDTH 720 0
DWIDTH 16 0
BBX 16 16 0 0
BITMAP
07E0
1FF8
381C
700C
6006
0006
0007
01FF
01FF
0007
C006
6006
700C
381C
1FF8
07E0
ENDCHAR
STARTCHAR 042E
ENCODING 1070
SWIDTH 990 0
DWIDTH 22 0
BBX 19 16 2 0
BITMAP
C03E00
C0FF80
C1C1C0
C380C0
C30060
C60060
C60060
FE0060
FE0060
C60060
C60060
C30060
C300E0
C1C1C0
C0FF80
C03E00
ENDCHAR
STARTCHAR 042F
ENCODING 1071
SWIDTH 720 0
DWIDTH 16 0
BBX 12 16 2 0
BITMAP
3FF0
7FF0
E030
C030
C030
C030
E030
7FF0
7FF0
E030
C030
C030
C030
C030
C030
C030
ENDCHAR
STARTCHAR 0430
ENCODING 1072
SWIDTH 540 0
DWIDTH 12 0
BBX 11 12 1 0
BITMAP
3F00
7F80
6180
C080
0180
3F80
7C80
C080
C080
C180
FEE0
3CE0
ENDCHAR
STARTCHAR 0431
ENCODING 1073
SWIDTH 585 0
DWIDTH 13 0
BBX 11 17 1 0
BITMAP
0180
0300
1F00
3E00
6000
7F00
7F80
E1C0
E0C0
C060
C060
C060
C060
E0C0
61C0
3F80
1F00
ENDCHAR
STARTCHAR 0432
ENCODING 1074
SWIDTH 540 0
DWIDTH 12 0
BBX 10 12 1 0
BITMAP
FF00
FF80
C0C0
C0C0
C180
FF80
FF80
C0C0
C0C0
C0C0
FFC0
FF80
ENDCHAR
STARTCHAR 0433
ENCODING 1075
SWIDTH 360 0
DWIDTH 8 0
BBX 7 12 1 0
BITMAP
FE
FE
C0
C0
C0
C0
C0
C0
C0
C0
C0
C0
ENDCHAR
STARTCHAR 0434
ENCODING 1076
SWIDTH 585 0
DWIDTH 13 0
BBX 12 14 0 -2
BITMAP
0FE0
0FE0
0C60
0C60
0860
1860
1860
1860
3060
3060
FFF0
FFF0
C030
C030
ENDCHAR
STARTCHAR 0435
ENCODING 1077
SWIDTH 540 0
DWIDTH 12 0
BBX 10 12 1 0
BITMAP
1F00
3F80
61C0
C0C0
C0C0
FFC0
FFC0
C000
C0C0
60C0
7F80
1F00
ENDCHAR
STARTCHAR 0436
ENCODING 1078
SWIDTH 675 0
DWIDTH 15 0
BBX 15 12 0 0
BITMAP
630C
7318
3318
3B30
1FF0
1FF0
1B30
3318
3318
630C
E30C
C306
ENDCHAR
STARTCHAR 0437
ENCODING 1079
SWIDTH 450 0
DWIDTH 10 0
BBX 8 12 1 0
BITMAP
3C
7E
C3
C3
07
1E
1E
03
C3
C3
7E
3C
ENDCHAR
STARTCHAR 0438
ENCODING 1080
SWIDTH 540 0
DWIDTH 12 0
BBX 9 12 2 0
BITMAP
C180
C380
C380
C780
CD80
CD80
D980
F180
E180
E180
C180
C180
ENDCHAR
STARTCHAR 0439
ENCODING 1081
SWIDTH 540 0
DWIDTH 12 0
BBX 9 16 2 0
BITMAP
4200
3E00
1800
0000
C180
C380
C380
C780
CD80
CD80
D980
F180
E180
E180
C180
C180
ENDCHAR
STARTCHAR 043A
ENCODING 1082
SWIDTH 450 0
DWIDTH 10 0
BBX 9 12 1 0
BITMAP
C300
C300
C600
CE00
FC00
FC00
CC00
C600
C700
C300
C380
C180
ENDCHAR
STARTCHAR 043B
ENCODING 1083
SWIDTH 585 0
DWIDTH 13 0
BBX 10 12 1 0
BITMAP
7FC0
7FC0
60C0
60C0
60C0
60C0
60C0
60C0
60C0
60C0
C0C0
80C0
ENDCHAR
STARTCHAR 043C
ENCODING 1084
SWIDTH 675 0
DWIDTH 15 0
BBX 13 12 1 0
BITMAP
E038
E038
F038
F078
D058
D8D8
C8D8
CC98
CD98
C598
C718
C718
ENDCHAR
STARTCHAR 043D
ENCODING 1085
SWIDTH 540 0
DWIDTH 12 0
BBX 9 12 2 0
BITMAP
8180
8180
8180
8180
8180
FF80
FF80
8180
8180
8180
8180
8180
ENDCHAR
STARTCHAR 043E
ENCODING 1086
SWIDTH 540 0
DWIDTH 12 0
BBX 10 12 1 0
BITMAP
1F00
7F80
61C0
C0C0
C0C0
C0C0
C0C0
C0C0
C0C0
61C0
7F80
1F00
ENDCHAR
STARTCHAR 043F
ENCODING 1087
SWIDTH 540 0
DWIDTH 12 0
BBX 8 12 2 0
BITMAP
FF
FF
81
81
81
81
81
81
81
81
81
81
ENDCHAR
STARTCHAR 0440
ENCODING 1088
SWIDTH 540 0
DWIDTH 12 0
BBX 11 16 1 -4
BITMAP
CF00
FF80
E1C0
E0C0
C060
C060
C060
C060
E0C0
E1C0
FF80
CF00
C000
C000
C000
C000
ENDCHAR
STARTCHAR 0441
ENCODING 1089
SWIDTH 495 0
DWIDTH 11 0
BBX 9 12 1 0
BITMAP
1E00
7F00
6180
C180
C000
C000
C000
C000
C180
E180
7F00
3E00
ENDCHAR
STARTCHAR 0442
ENCODING 1090
SWIDTH 450 0
DWIDTH 10 0
BBX 8 12 1 0
BITMAP
FF
FF
18
18
18
18
18
18
18
18
18
18
ENDCHAR
STARTCHAR 0443
ENCODING 1091
SWIDTH 495 0
DWIDTH 11 0
BBX 9 17 1 -5
BITMAP
C180
C180
C180
6300
6300
6300
3600
3600
3600
1C00
1C00
1C00
1800
1800
3000
F000
E000
ENDCHAR
STARTCHAR 0444
ENCODING 1092
SWIDTH 810 0
DWIDTH 18 0
BBX 15 20 2 -5
BITMAP
0300
0300
0300
0FE0
3FF8
631C
C30C
C306
C306
C306
C306
C30C
E30C
7338
3FF0
0300
0300
0300
0300
0300
ENDCHAR
STARTCHAR 0445
ENCODING 1093
SWIDTH 495 0
DWIDTH 11 0
BBX 9 12 1 0
BITMAP
C180
6380
6300
3600
1E00
1C00
1C00
3E00
3600
6300
6380
C180
ENDCHAR
STARTCHAR 0446
ENCODING 1094
SWIDTH 585 0
DWIDTH 13 0
BBX 10 16 2 -4
BITMAP
C180
C180
C180
C180
C180
C180
C180
C180
C180
C180
FFC0
FFC0
00C0
00C0
00C0
00C0
ENDCHAR
STARTCHAR 0447
ENCODING 1095
SWIDTH 540 0
DWIDTH 12 0
BBX 9 12 1 0
BITMAP
C180
C180
C180
C180
C180
C180
7F80
3F80
0180
0180
0180
0180
ENDCHAR
STARTCHAR 0448
ENCODING 1096
SWIDTH 810 0
DWIDTH 18 0
BBX 15 12 1 0
BITMAP
C186
C186
C186
C186
C186
C186
C186
C186
C186
C186
FFFE
FFFE
ENDCHAR
STARTCHAR 0449
ENCODING 1097
SWIDTH 810 0
DWIDTH 18 0
BBX 15 16 2 -4
BITMAP
8306
8306
8306
8306
8306
8306
8306
8306
8306
8306
FFFE
FFFE
0002
0002
0002
0002
ENDCHAR
STARTCHAR 044A
ENCODING 1098
SWIDTH 630 0
DWIDTH 14 0
BBX 13 12 0 0
BITMAP
FC00
FC00
0C00
0C00
0C00
0FF0
0FF8
0C18
0C08
0C18
0FF8
0FF0
ENDCHAR
STARTCHAR 044B
ENCODING 1099
SWIDTH 720 0
DWIDTH 16 0
BBX 12 12 2 0
BITMAP
C030
C030
C030
C030
C030
FE30
FFB0
C1B0
C1B0
C1B0
FFB0
FE30
ENDCHAR
STARTCHAR 044C
ENCODING 1100
SWIDTH 540 0
DWIDTH 12 0
BBX 9 12 2 0
BITMAP
8000
8000
8000
8000
8000
FE00
FF00
8180
8180
8180
FF00
FE00
ENDCHAR
STARTCHAR 044D
ENCODING 1101
SWIDTH 495 0
DWIDTH 11 0
BBX 10 12 1 0
BITMAP
3E00
7F00
C180
C180
00C0
0FC0
0FC0
00C0
C180
C180
7F00
3E00
ENDCHAR
STARTCHAR 044E
ENCODING 1102
SWIDTH 765 0
DWIDTH 17 0
BBX 15 12 1 0
BITMAP
C0F0
C3FC
C70C
C606
C606
FE06
FE06
C606
C606
C70C
C3FC
C1F0
ENDCHAR
STARTCHAR 044F
ENCODING 1103
SWIDTH 540 0
DWIDTH 12 0
BBX 9 12 1 0
BITMAP
3F80
7F80
C180
C180
C180
7F80
3F80
6180
6180
6180
6180
4180
ENDCHAR
STARTCHAR 0450
ENCODING 1104
SWIDTH 540 0
DWIDTH 12 0
BBX 10 16 1 0
BITMAP
1800
0C00
0400
0000
1F00
7F80
61C0
C0C0
C0C0
FFC0
FFC0
C000
C0C0
61C0
7F80
1F00
ENDCHAR
STARTCHAR 0451
ENCODING 1105
SWIDTH 540 0
DWIDTH 12 0
BBX 10 16 1 0
BITMAP
3B00
3B00
0000
0000
1F00
3F80
61C0
C0C0
C0C0
FFC0
FFC0
C000
C0C0
60C0
7F80
1F00
ENDCHAR
STARTCHAR 0452
ENCODING 1106
SWIDTH 540 0
DWIDTH 12 0
BBX 12 19 -1 -3
BITMAP
1800
FE00
FE00
1800
1BC0
1FE0
1C30
1830
1830
1830
1830
1830
1830
1830
1830
1830
0070
07E0
07C0
ENDCHAR
STARTCHAR 0453
ENCODING 1107
SWIDTH 360 0
DWIDTH 8 0
BBX 7 16 1 0
BITMAP
0C
18
30
00
FE
FE
C0
C0
C0
C0
C0
C0
C0
C0
C0
C0
ENDCHAR
STARTCHAR 0454
ENCODING 1108
SWIDTH 495 0
DWIDTH 11 0
BBX 11 12 0 0
BITMAP
1F00
3FC0
70C0
6060
6000
7E00
FE00
6000
6060
70C0
3FC0
1F00
ENDCHAR
STARTCHAR 0455
ENCODING 1109
SWIDTH 495 0
DWIDTH 11 0
BBX 9 12 1 0
BITMAP
3E00
7F00
C380
C000
E000
7C00
1F00
0180
C180
C180
FF00
3E00
ENDCHAR
STARTCHAR 0456
ENCODING 1110
SWIDTH 225 0
DWIDTH 5 0
BBX 1 16 2 0
BITMAP
80
80
00
00
80
80
80
80
80
80
80
80
80
80
80
80
ENDCHAR
STARTCHAR 0457
ENCODING 1111
SWIDTH 270 0
DWIDTH 6 0
BBX 6 16 0 0
BITMAP
CC
CC
00
00
30
30
30
30
30
30
30
30
30
30
30
30
ENDCHAR
STARTCHAR 0458
ENCODING 1112
SWIDTH 225 0
DWIDTH 5 0
BBX 3 20 0 -5
BITMAP
20
20
00
00
20
20
20
20
20
20
20
20
20
20
20
20
20
20
60
E0
ENDCHAR
STARTCHAR 0459
ENCODING 1113
SWIDTH 900 0
DWIDTH 20 0
BBX 18 12 1 0
BITMAP
7FC000
7FC000
60C000
60C000
60C000
60FF00
60FF80
60C0C0
60C0C0
60C0C0
C0FF80
80FF00
ENDCHAR
STARTCHAR 045A
ENCODING 1114
SWIDTH 810 0
DWIDTH 18 0
BBX 17 12 1 0
BITMAP
C18000
C18000
C18000
C18000
C18000
FFFE00
FFFF00
C18180
C18180
C18180
C1FF00
C1FE00
ENDCHAR
STARTCHAR 045B
ENCODING 1115
SWIDTH 540 0
DWIDTH 12 0
BBX 12 16 -1 0
BITMAP
1800
FE00
FE00
1800
1BC0
1FE0
1C30
1830
1830
1830
1830
1830
1830
1830
1830
1830
ENDCHAR
STARTCHAR 045C
ENCODING 1116
SWIDTH 450 0
DWIDTH 10 0
BBX 9 16 1 0
BITMAP
0C00
1800
3000
0000
C300
C300
C600
CE00
FC00
FC00
CC00
C600
C700
C300
C380
C180
ENDCHAR
STARTCHAR 045D
ENCODING 1117
SWIDTH 540 0
DWIDTH 12 0
BBX 9 16 2 0
BITMAP
7000
3000
0800
0000
C180
C380
C380
C780
CD80
CD80
D980
F180
E180
E180
C180
C180
ENDCHAR
STARTCHAR 045E
ENCODING 1118
SWIDTH 495 0
DWIDTH 11 0
BBX 9 21 1 -5
BITMAP
6300
3E00
0800
0000
C180
C180
C180
6300
6300
6300
3600
3600
3600
1C00
1C00
1C00
1800
1800
3000
F000
E000
ENDCHAR
STARTCHAR 045F
ENCODING 1119
SWIDTH 540 0
DWIDTH 12 0
BBX 8 16 2 -4
BITMAP
C1
C1
C1
C1
C1
C1
C1
C1
C1
C1
FF
FF
18
18
18
18
ENDCHAR
STARTCHAR 0462
ENCODING 1122
SWIDTH 765 0
DWIDTH 17 0
BBX 16 16 0 0
BITMAP
0C00
0C00
FFC0
FFC0
0C00
0C00
0C00
0FFC
0FFE
0C07
0C03
0C03
0C03
0C07
0FFE
0FFC
ENDCHAR
STARTCHAR 0463
ENCODING 1123
SWIDTH 630 0
DWIDTH 14 0
BBX 11 15 1 0
BITMAP
3000
3000
3000
FC00
FC00
3000
3000
3000
3F80
3FE0
3060
3060
3060
3FE0
3F80
ENDCHAR
STARTCHAR 0472
ENCODING 1138
SWIDTH 765 0
DWIDTH 17 0
BBX 15 16 1 0
BITMAP
07E0
1FF8
381C
600C
E006
C006
CE06
FF0E
C1FE
C0E6
C006
600E
600C
381C
1FF0
07E0
ENDCHAR
STARTCHAR 0473
ENCODING 1139
SWIDTH 540 0
DWIDTH 12 0
BBX 10 12 1 0
BITMAP
1F00
7F80
61C0
C0C0
D8C0
FCC0
C7C0
C2C0
C0C0
61C0
7F80
1F00
ENDCHAR
STARTCHAR 0474
ENCODING 1140
SWIDTH 810 0
DWIDTH 18 0
BBX 14 16 2 0
BITMAP
C01C
E01C
6030
6030
3030
3060
3060
1860
18C0
18C0
0CC0
0C80
0D80
0780
0700
0700
ENDCHAR
STARTCHAR 0475
ENCODING 1141
SWIDTH 630 0
DWIDTH 14 0
BBX 10 12 2 0
BITMAP
C0C0
C1C0
6180
6300
6300
3300
3200
3600
1E00
1E00
1C00
0C00
ENDCHAR
STARTCHAR 0490
ENCODING 1168
SWIDTH 495 0
DWIDTH 11 0
BBX 13 19 1 0
BITMAP
0038
0020
0040
FFC0
FFC0
C000
C000
C000
C000
C000
C000
C000
C000
C000
C000
C000
C000
C000
C000
ENDCHAR
STARTCHAR 0491
ENCODING 1169
SWIDTH 405 0
DWIDTH 9 0
BBX 10 15 2 0
BITMAP
01C0
0100
0200
FE00
FE00
C000
C000
C000
C000
C000
C000
C000
C000
C000
C000
ENDCHAR
STARTCHAR 0492
ENCODING 1170
SWIDTH 540 0
DWIDTH 12 0
BBX 11 16 1 0
BITMAP
7FE0
7FE0
6000
6000
6000
6000
6000
FF80
FF80
6000
6000
6000
6000
6000
6000
6000
ENDCHAR
STARTCHAR 0493
ENCODING 1171
SWIDTH 405 0
DWIDTH 9 0
BBX 8 12 1 0
BITMAP
7F
7F
40
40
FC
FC
40
40
40
40
40
40
ENDCHAR
STARTCHAR 0496
ENCODING 1174
SWIDTH 1035 0
DWIDTH 23 0
BBX 23 19 0 -3
BITMAP
703030
303070
383060
1830E0
0C30C0
0C31C0
063180
07FF00
07FF00
063180
0C30C0
1830E0
383060
303030
60303E
E0301E
000006
000006
000006
ENDCHAR
STARTCHAR 0497
ENCODING 1175
SWIDTH 810 0
DWIDTH 18 0
BBX 18 15 0 -3
BITMAP
60C300
30C700
30C600
18CE00
1FFC00
0FFC00
18CC00
38C600
30C700
70C300
60C3C0
C0C1C0
0000C0
0000C0
0000C0
ENDCHAR
STARTCHAR 0498
ENCODING 1176
SWIDTH 585 0
DWIDTH 13 0
BBX 11 21 1 -5
BITMAP
1F00
3FC0
70C0
60E0
6060
00C0
00C0
0780
07C0
00E0
0060
C060
E060
6060
79C0
3F80
0400
0600
0300
0300
1E00
ENDCHAR
STARTCHAR 0499
ENCODING 1177
SWIDTH 450 0
DWIDTH 10 0
BBX 8 17 1 -5
BITMAP
3C
7E
E3
C3
03
1E
1E
03
C3
C3
E7
7E
10
1C
04
44
38
ENDCHAR
STARTCHAR 049A
ENCODING 1178
SWIDTH 675 0
DWIDTH 15 0
BBX 12 20 2 -4
BITMAP
C180
C180
C300
C700
C600
CE00
CC00
F800
FC00
CC00
C600
C700
C300
C180
C1F0
C0F0
0030
0030
0030
0030
ENDCHAR
STARTCHAR 049B
ENCODING 1179
SWIDTH 540 0
DWIDTH 12 0
BBX 10 15 2 -3
BITMAP
8300
8600
8600
8C00
FC00
FC00
8C00
8600
8600
8300
83C0
81C0
00C0
00C0
00C0
ENDCHAR
STARTCHAR 049C
ENCODING 1180
SWIDTH 630 0
DWIDTH 14 0
BBX 11 16 2 0
BITMAP
C0C0
C1C0
C180
D380
D300
D600
D600
FC00
FC00
D600
D300
D380
D180
C0C0
C0E0
C060
ENDCHAR
STARTCHAR 049D
ENCODING 1181
SWIDTH 495 0
DWIDTH 11 0
BBX 9 12 2 0
BITMAP
8300
8600
9600
9C00
FC00
FC00
9C00
9600
9600
8300
8300
8180
ENDCHAR
STARTCHAR 04A0
ENCODING 1184
SWIDTH 585 0
DWIDTH 13 0
BBX 17 16 -5 0
BITMAP
FF0300
FF0600
030E00
030C00
031C00
031800
033000
03F000
03F000
033800
031800
030C00
030E00
030600
030300
030180
ENDCHAR
STARTCHAR 04A1
ENCODING 1185
SWIDTH 450 0
DWIDTH 10 0
BBX 14 12 -4 0
BITMAP
FE18
FE18
0630
0670
07E0
07E0
0660
0630
0638
0618
061C
060C
ENDCHAR
STARTCHAR 04A2
ENCODING 1186
SWIDTH 720 0
DWIDTH 16 0
BBX 14 20 2 -4
BITMAP
C030
C030
C030
C030
C030
C030
C030
FFF0
FFF0
C030
C030
C030
C030
C030
C03C
C03C
001C
001C
001C
001C
ENDCHAR
STARTCHAR 04A3
ENCODING 1187
SWIDTH 540 0
DWIDTH 12 0
BBX 9 16 2 -4
BITMAP
8180
8180
8180
8180
8180
FF80
FF80
8180
8180
8180
8180
8180
0080
0080
0080
0080
ENDCHAR
STARTCHAR 04AA
ENCODING 1194
SWIDTH 720 0
DWIDTH 16 0
BBX 14 21 1 -5
BITMAP
07C0
1FF0
3838
7018
601C
E000
C000
C000
C000
C000
C00C
600C
601C
7018
3C70
0FE0
0100
0380
00C0
00C0
0780
ENDCHAR
STARTCHAR 04AB
ENCODING 1195
SWIDTH 495 0
DWIDTH 11 0
BBX 10 17 1 -5
BITMAP
1E00
7F00
6180
C180
C000
C000
C000
C000
C0C0
C180
7380
3F00
0800
0E00
0200
2600
1C00
ENDCHAR
STARTCHAR 04AE
ENCODING 1198
SWIDTH 675 0
DWIDTH 15 0
BBX 13 16 1 0
BITMAP
C018
E038
6030
3060
3860
18C0
1DC0
0D80
0700
0700
0700
0700
0700
0700
0700
0700
ENDCHAR
STARTCHAR 04AF
ENCODING 1199
SWIDTH 495 0
DWIDTH 11 0
BBX 9 17 1 -5
BITMAP
C080
C180
C180
6100
6300
6300
3200
3600
3600
1C00
1C00
1C00
0C00
0C00
0C00
0C00
0C00
ENDCHAR
STARTCHAR 04B0
ENCODING 1200
SWIDTH 675 0
DWIDTH 15 0
BBX 13 16 1 0
BITMAP
C018
E038
6030
3060
3860
18C0
1DC0
0D80
0700
0700
0700
3FE0
3FE0
0700
0700
0700
ENDCHAR
STARTCHAR 04B1
ENCODING 1201
SWIDTH 495 0
DWIDTH 11 0
BBX 9 17 1 -5
BITMAP
C180
C180
C180
6300
6300
6300
3200
3600
3600
1C00
1C00
1C00
7F00
0C00
0C00
0C00
0C00
ENDCHAR
STARTCHAR 04B2
ENCODING 1202
SWIDTH 720 0
DWIDTH 16 0
BBX 14 20 1 -4
BITMAP
E038
6030
3060
38E0
18C0
0D80
0F80
0700
0700
0F80
1DC0
18C0
30E0
7070
E03C
C03C
000C
000C
000C
000C
ENDCHAR
STARTCHAR 04B3
ENCODING 1203
SWIDTH 540 0
DWIDTH 12 0
BBX 10 15 1 -3
BITMAP
C180
6300
6300
3600
1C00
1C00
1C00
3600
3600
6300
C3C0
C1C0
00C0
00C0
00C0
ENDCHAR
STARTCHAR 04B6
ENCODING 1206
SWIDTH 675 0
DWIDTH 15 0
BBX 14 20 1 -4
BITMAP
C018
C018
C018
C018
C018
C018
C018
E018
7038
3FF8
1F98
0018
0018
0018
001C
001C
000C
000C
000C
000C
ENDCHAR
STARTCHAR 04B7
ENCODING 1207
SWIDTH 495 0
DWIDTH 11 0
BBX 9 16 1 -4
BITMAP
C180
C180
C180
C180
C180
C180
FF80
3D80
0180
0180
0180
0180
0080
0080
0080
0080
ENDCHAR
STARTCHAR 04B8
ENCODING 1208
SWIDTH 675 0
DWIDTH 15 0
BBX 13 16 1 0
BITMAP
C018
C018
C018
C018
C218
C218
C218
E218
7278
3FF8
0618
0218
0218
0218
0018
0018
ENDCHAR
STARTCHAR 04B9
ENCODING 1209
SWIDTH 495 0
DWIDTH 11 0
BBX 9 12 1 0
BITMAP
C180
C180
C180
C980
C980
C980
7F80
3F80
0980
0980
0180
0180
ENDCHAR
STARTCHAR 04BA
ENCODING 1210
SWIDTH 675 0
DWIDTH 15 0
BBX 13 16 1 0
BITMAP
C000
C000
C000
C000
C000
CFC0
FFE0
E070
C038
C018
C018
C018
C018
C018
C018
C018
ENDCHAR
STARTCHAR 04BB
ENCODING 1211
SWIDTH 585 0
DWIDTH 13 0
BBX 9 16 2 0
BITMAP
C000
C000
C000
C000
CE00
FF00
E180
C180
C180
C180
C180
C180
C180
C180
C180
C180
ENDCHAR
STARTCHAR 04C0
ENCODING 1216
SWIDTH 270 0
DWIDTH 6 0
BBX 2 16 2 0
BITMAP
C0
C0
C0
C0
C0
C0
C0
C0
C0
C0
C0
C0
C0
C0
C0
C0
ENDCHAR
STARTCHAR 04CB
ENCODING 1227
SWIDTH 675 0
DWIDTH 15 0
BBX 12 20 1 -4
BITMAP
C030
C030
C030
C030
C030
C030
C030
C030
E030
7FF0
1FB0
0030
0030
0030
0070
0070
0060
0060
0060
0060
ENDCHAR
STARTCHAR 04CC
ENCODING 1228
SWIDTH 540 0
DWIDTH 12 0
BBX 9 15 1 -3
BITMAP
C180
C180
C180
C180
C180
C180
7F80
3F80
0180
0180
0380
0380
0300
0300
0300
ENDCHAR
STARTCHAR 04CF
ENCODING 1231
SWIDTH 270 0
DWIDTH 6 0
BBX 2 16 2 0
BITMAP
C0
C0
C0
C0
C0
C0
C0
C0
C0
C0
C0
C0
C0
C0
C0
C0
ENDCHAR
STARTCHAR 04D8
ENCODING 1240
SWIDTH 765 0
DWIDTH 17 0
BBX 15 16 1 0
BITMAP
07E0
1FF0
383C
600C
6006
0006
0006
FFFE
FFFE
C006
C006
E006
600C
381C
1FF8
07E0
ENDCHAR
STARTCHAR 04D9
ENCODING 1241
SWIDTH 540 0
DWIDTH 12 0
BBX 10 12 1 0
BITMAP
1F00
7F80
61C0
C0C0
00C0
FFC0
FFC0
C0C0
C0C0
61C0
7F80
1E00
ENDCHAR
STARTCHAR 04E2
ENCODING 1250
SWIDTH 720 0
DWIDTH 16 0
BBX 12 19 2 0
BITMAP
1F80
1F80
0000
C030
C030
C030
C070
C0F0
C1F0
C3B0
C730
CE30
DC30
F830
F030
E030
C030
C030
C030
ENDCHAR
STARTCHAR 04E3
ENCODING 1251
SWIDTH 540 0
DWIDTH 12 0
BBX 9 15 2 0
BITMAP
7E00
7E00
0000
C180
C380
C380
C780
CD80
CD80
D980
F180
E180
E180
C180
C180
ENDCHAR
STARTCHAR 04E8
ENCODING 1256
SWIDTH 765 0
DWIDTH 17 0
BBX 15 16 1 0
BITMAP
07E0
1FF0
381C
600C
6006
C006
C006
FFFE
FFFE
C006
C006
E006
600C
381C
1FF0
07E0
ENDCHAR
STARTCHAR 04E9
ENCODING 1257
SWIDTH 540 0
DWIDTH 12 0
BBX 10 12 1 0
BITMAP
1F00
7F80
61C0
C0C0
C0C0
FFC0
FFC0
C0C0
C0C0
61C0
7F80
1F00
ENDCHAR
STARTCHAR 04EE
ENCODING 1262
SWIDTH 630 0
DWIDTH 14 0
BBX 13 20 1 0
BITMAP
1F80
1F80
0000
0000
C038
E030
6070
6060
3060
30E0
38C0
19C0
1D80
0D80
0F00
0700
0600
0600
3E00
3C00
ENDCHAR
STARTCHAR 04EF
ENCODING 1263
SWIDTH 495 0
DWIDTH 11 0
BBX 9 20 1 -5
BITMAP
7E00
7E00
0000
C180
C180
C180
6300
6300
6300
3600
3600
3600
1C00
1C00
1C00
1800
1800
3000
F000
E000
ENDCHAR
STARTCHAR 1E80
ENCODING 7808
SWIDTH 945 0
DWIDTH 21 0
BBX 19 21 1 0
BITMAP
018000
00C000
006000
002000
000000
C0E060
C0E060
C0E060
E1B060
61B0C0
61B0C0
6198C0
7318C0
331980
331980
320D80
360D80
1E0F00
1E0700
1C0700
0C0700
ENDCHAR
STARTCHAR 1E81
ENCODING 7809
SWIDTH 720 0
DWIDTH 16 0
BBX 16 16 0 0
BITMAP
0700
0100
0080
0000
C183
6386
63C6
63C6
62C4
364C
366C
366C
1468
1C38
1C38
1C30
ENDCHAR
STARTCHAR 1E82
ENCODING 7810
SWIDTH 945 0
DWIDTH 21 0
BBX 19 21 1 0
BITMAP
001C00
003800
003000
006000
000000
C0E060
C0E060
C0E060
E1B060
61B0C0
61B0C0
6198C0
7318C0
331980
331980
320D80
360D80
1E0F00
1E0700
1C0700
0C0700
ENDCHAR
STARTCHAR 1E83
ENCODING 7811
SWIDTH 720 0
DWIDTH 16 0
BBX 16 16 0 0
BITMAP
00C0
0180
0300
0000
C183
6386
63C6
63C6
62C4
364C
366C
366C
1468
1C38
1C38
1C30
ENDCHAR
STARTCHAR 1E84
ENCODING 7812
SWIDTH 945 0
DWIDTH 21 0
BBX 19 20 1 0
BITMAP
01B000
01B000
000000
000000
C0E060
C0E060
C0E060
E1B060
61B0C0
61B0C0
6198C0
7318C0
331980
331980
320D80
360D80
1E0F00
1E0700
1C0700
0C0700
ENDCHAR
STARTCHAR 1E85
ENCODING 7813
SWIDTH 720 0
DWIDTH 16 0
BBX 16 16 0 0
BITMAP
06E0
06E0
0000
0000
C183
6386
63C6
63C6
62C4
364C
366C
366C
1468
1C38
1C38
1C30
ENDCHAR
STARTCHAR 1EF2
ENCODING 7922
SWIDTH 675 0
DWIDTH 15 0
BBX 13 21 1 0
BITMAP
1C00
0C00
0600
0300
0000
C018
E038
6030
3060
3860
18C0
1DC0
0D80
0700
0700
0300
0300
0300
0300
0300
0300
ENDCHAR
STARTCHAR 1EF3
ENCODING 7923
SWIDTH 495 0
DWIDTH 11 0
BBX 9 21 1 -5
BITMAP
3000
1800
0C00
0000
C180
C180
C180
6300
6300
6300
2600
3600
3600
1C00
1C00
1800
1800
1800
3000
F000
E000
ENDCHAR
STARTCHAR 2002
ENCODING 8194
SWIDTH 495 0
DWIDTH 11 0
BBX 0 0 0 0
BITMAP
ENDCHAR
STARTCHAR 2013
ENCODING 8211
SWIDTH 540 0
DWIDTH 12 0
BBX 12 2 0 5
BITMAP
FFF0
FFF0
ENDCHAR
STARTCHAR 2014
ENCODING 8212
SWIDTH 990 0
DWIDTH 22 0
BBX 22 2 0 5
BITMAP
FFFFFC
FFFFFC
ENDCHAR
STARTCHAR 2015
ENCODING 8213
SWIDTH 990 0
DWIDTH 22 0
BBX 22 2 0 5
BITMAP
FFFFFC
FFFFFC
ENDCHAR
STARTCHAR 2017
ENCODING 8215
SWIDTH 540 0
DWIDTH 12 0
BBX 14 3 -1 -5
BITMAP
FFFC
0000
FFFC
ENDCHAR
STARTCHAR 2018
ENCODING 8216
SWIDTH 225 0
DWIDTH 5 0
BBX 3 5 1 11
BITMAP
60
40
80
E0
E0
ENDCHAR
STARTCHAR 2019
ENCODING 8217
SWIDTH 225 0
DWIDTH 5 0
BBX 3 5 1 11
BITMAP
E0
E0
40
40
C0
ENDCHAR
STARTCHAR 201A
ENCODING 8218
SWIDTH 225 0
DWIDTH 5 0
BBX 3 5 1 -3
BITMAP
E0
E0
40
40
80
ENDCHAR
STARTCHAR 201B
ENCODING 8219
SWIDTH 225 0
DWIDTH 5 0
BBX 3 5 1 11
BITMAP
E0
E0
80
40
60
ENDCHAR
STARTCHAR 201C
ENCODING 8220
SWIDTH 315 0
DWIDTH 7 0
BBX 6 5 1 11
BITMAP
44
88
88
CC
CC
ENDCHAR
STARTCHAR 201D
ENCODING 8221
SWIDTH 315 0
DWIDTH 7 0
BBX 6 5 1 11
BITMAP
CC
CC
44
44
88
ENDCHAR
STARTCHAR 201E
ENCODING 8222
SWIDTH 315 0
DWIDTH 7 0
BBX 6 5 1 -3
BITMAP
CC
CC
44
48
88
ENDCHAR
STARTCHAR 2020
ENCODING 8224
SWIDTH 540 0
DWIDTH 12 0
BBX 10 20 1 -4
BITMAP
0C00
0C00
0C00
0C00
0C00
FFC0
FFC0
0C00
0C00
0C00
0C00
0C00
0C00
0C00
0C00
0C00
0C00
0C00
0C00
0C00
ENDCHAR
STARTCHAR 2021
ENCODING 8225
SWIDTH 540 0
DWIDTH 12 0
BBX 10 20 1 -4
BITMAP
0C00
0C00
0C00
0C00
0C00
FFC0
FFC0
0C00
0C00
0C00
0C00
0C00
0C00
FFC0
FFC0
0C00
0C00
0C00
0C00
0C00
ENDCHAR
STARTCHAR 2022
ENCODING 8226
SWIDTH 360 0
DWIDTH 8 0
BBX 6 6 1 5
BITMAP
20
78
FC
FC
F8
70
ENDCHAR
STARTCHAR 2026
ENCODING 8230
SWIDTH 990 0
DWIDTH 22 0
BBX 17 2 3 0
BITMAP
C18380
C18380
ENDCHAR
STARTCHAR 2030
ENCODING 8240
SWIDTH 990 0
DWIDTH 22 0
BBX 22 16 0 0
BITMAP
381000
6C3000
C62000
C24000
46C000
7C8000
018000
010000
030000
020000
067878
048C8C
0D8584
198584
10CCCC
307078
ENDCHAR
STARTCHAR 2032
ENCODING 8242
SWIDTH 180 0
DWIDTH 4 0
BBX 2 6 1 9
BITMAP
40
40
C0
C0
80
80
ENDCHAR
STARTCHAR 2033
ENCODING 8243
SWIDTH 360 0
DWIDTH 8 0
BBX 6 6 1 9
BITMAP
6C
6C
48
48
D8
90
ENDCHAR
STARTCHAR 2039
ENCODING 8249
SWIDTH 315 0
DWIDTH 7 0
BBX 3 6 2 3
BITMAP
20
60
C0
C0
60
20
ENDCHAR
STARTCHAR 203A
ENCODING 8250
SWIDTH 315 0
DWIDTH 7 0
BBX 3 6 2 3
BITMAP
80
E0
20
20
E0
80
ENDCHAR
STARTCHAR 203C
ENCODING 8252
SWIDTH 495 0
DWIDTH 11 0
BBX 8 16 2 0
BITMAP
C3
C3
C3
C3
C3
C3
C3
C3
43
43
43
42
00
00
C3
C3
ENDCHAR
STARTCHAR 203E
ENCODING 8254
SWIDTH 315 0
DWIDTH 7 0
BBX 13 1 -3 19
BITMAP
FFF8
ENDCHAR
STARTCHAR 2044
ENCODING 8260
SWIDTH 270 0
DWIDTH 6 0
BBX 10 16 -2 0
BITMAP
0040
00C0
0080
0100
0300
0200
0600
0400
0800
1800
1000
2000
2000
4000
C000
8000
ENDCHAR
STARTCHAR 2070
ENCODING 8304
SWIDTH 315 0
DWIDTH 7 0
BBX 7 10 0 6
BITMAP
38
64
46
C6
C2
C2
C6
46
64
38
ENDCHAR
STARTCHAR 2074
ENCODING 8308
SWIDTH 315 0
DWIDTH 7 0
BBX 7 9 0 7
BITMAP
0C
1C
1C
2C
6C
CC
FE
0C
0C
ENDCHAR
STARTCHAR 2075
ENCODING 8309
SWIDTH 315 0
DWIDTH 7 0
BBX 7 10 0 6
BITMAP
7E
40
40
7C
46
06
02
C2
44
38
ENDCHAR
STARTCHAR 2076
ENCODING 8310
SWIDTH 315 0
DWIDTH 7 0
BBX 7 10 0 6
BITMAP
3C
64
46
C0
FC
C6
C2
42
66
3C
ENDCHAR
STARTCHAR 2077
ENCODING 8311
SWIDTH 315 0
DWIDTH 7 0
BBX 7 9 0 7
BITMAP
FE
02
04
08
08
10
10
30
20
ENDCHAR
STARTCHAR 2078
ENCODING 8312
SWIDTH 315 0
DWIDTH 7 0
BBX 7 10 0 6
BITMAP
3C
64
46
46
38
46
C2
C2
46
3C
ENDCHAR
STARTCHAR 2079
ENCODING 8313
SWIDTH 315 0
DWIDTH 7 0
BBX 7 10 0 6
BITMAP
38
44
C6
C6
46
7A
06
C6
4C
38
ENDCHAR
STARTCHAR 207F
ENCODING 8319
SWIDTH 360 0
DWIDTH 8 0
BBX 6 7 1 6
BITMAP
B8
CC
84
84
84
84
84
ENDCHAR
STARTCHAR 20A3
ENCODING 8355
SWIDTH 540 0
DWIDTH 12 0
BBX 11 16 1 0
BITMAP
FFE0
FFE0
C000
C000
C260
C2C0
FB00
FB00
C300
C300
C300
C300
C300
C300
C300
C300
ENDCHAR
STARTCHAR 20A4
ENCODING 8356
SWIDTH 540 0
DWIDTH 12 0
BBX 11 16 1 0
BITMAP
1F00
3F80
60C0
C0C0
C0C0
C000
6000
6000
FE00
3000
FE00
3000
3000
7C00
FFE0
07C0
ENDCHAR
STARTCHAR 20A7
ENCODING 8359
SWIDTH 1080 0
DWIDTH 24 0
BBX 19 16 3 0
BITMAP
F80000
FC0000
CE0000
C60000
C60000
C60000
CE0000
FC4000
F84000
C0E3C0
C04260
C04200
C041C0
C04020
C04620
C063C0
ENDCHAR
STARTCHAR 20AC
ENCODING 8364
SWIDTH 540 0
DWIDTH 12 0
BBX 12 16 0 0
BITMAP
07C0
0FF0
1C30
1800
3000
3000
FFC0
3000
3000
FF80
3000
3000
1800
1C20
0FE0
07C0
ENDCHAR
STARTCHAR 20AF
ENCODING 8367
SWIDTH 900 0
DWIDTH 20 0
BBX 18 18 1 -4
BITMAP
1F8000
3CC000
4C6000
C86000
C86780
086CC0
1868C0
1868C0
1878C0
1058C0
10D080
319180
271900
FC3E00
003000
003000
002000
002000
ENDCHAR
STARTCHAR 20DD
ENCODING 8413
SWIDTH 990 0
DWIDTH 22 0
BBX 16 16 3 0
BITMAP
07E0
1C38
300C
6006
4002
4003
C001
8001
8001
C001
4003
4002
6006
300C
1C38
07E0
ENDCHAR
STARTCHAR 2105
ENCODING 8453
SWIDTH 900 0
DWIDTH 20 0
BBX 17 16 1 0
BITMAP
7C0800
661800
C21000
C03000
C02000
C26000
664000
7CCF00
009B80
01B180
013080
022080
063080
043180
0C1B80
080F00
ENDCHAR
STARTCHAR 210F
ENCODING 8463
SWIDTH 585 0
DWIDTH 13 0
BBX 11 16 1 0
BITMAP
1E00
0C00
0C80
0F00
1C00
38C0
5BE0
1640
34C0
38C0
30C0
6180
6180
6180
C1C0
C180
ENDCHAR
STARTCHAR 2111
ENCODING 8465
SWIDTH 720 0
DWIDTH 16 0
BBX 12 16 2 -1
BITMAP
3E00
4700
8390
8190
80E0
8000
C0E0
4190
3190
0180
0180
C1C0
60C0
30C0
38C0
1F00
ENDCHAR
STARTCHAR 2112
ENCODING 8466
SWIDTH 810 0
DWIDTH 18 0
BBX 16 17 1 0
BITMAP
060E
1811
1031
2021
2061
2062
1066
0868
0670
01E0
0060
0040
00C0
00C0
F981
8702
7CFC
ENDCHAR
STARTCHAR 2113
ENCODING 8467
SWIDTH 315 0
DWIDTH 7 0
BBX 8 16 -1 0
BITMAP
07
05
09
09
19
1A
14
14
38
30
70
B0
20
24
28
30
ENDCHAR
STARTCHAR 2116
ENCODING 8470
SWIDTH 1080 0
DWIDTH 24 0
BBX 22 16 1 0
BITMAP
C061E0
E063F0
E06618
F0660C
D06C0C
D86C0C
CC6C0C
CC6C0C
C6660C
C66618
C363F0
C361E0
C1E000
C1E000
C0E7FC
C067FC
ENDCHAR
STARTCHAR 2118
ENCODING 8472
SWIDTH 630 0
DWIDTH 14 0
BBX 12 12 1 -3
BITMAP
0C00
10E0
2330
2430
6830
7030
2620
3440
5280
9900
9000
F000
ENDCHAR
STARTCHAR 211C
ENCODING 8476
SWIDTH 765 0
DWIDTH 17 0
BBX 13 13 2 0
BITMAP
7DF0
8E30
8638
8638
8630
E7C0
76E0
2660
0660
0670
2C30
7C38
B830
ENDCHAR
STARTCHAR 211E
ENCODING 8478
SWIDTH 765 0
DWIDTH 17 0
BBX 10 15 4 0
BITMAP
FE00
FF80
81C0
80C0
80C0
80C0
81C0
FF80
FE00
86C0
83C0
8380
8380
83C0
86C0
ENDCHAR
STARTCHAR 2120
ENCODING 8480
SWIDTH 630 0
DWIDTH 14 0
BBX 11 7 1 8
BITMAP
F220
9360
8360
7360
8B60
93A0
F280
ENDCHAR
STARTCHAR 2122
ENCODING 8482
SWIDTH 990 0
DWIDTH 22 0
BBX 20 10 1 6
BITMAP
FFB030
083870
083870
082870
082CB0
0824B0
0825B0
082730
082330
082330
ENDCHAR
STARTCHAR 2126
ENCODING 8486
SWIDTH 765 0
DWIDTH 17 0
BBX 15 16 1 0
BITMAP
07C0
1FF0
3838
700C
E00E
C006
C006
C006
C006
C006
C006
600C
3018
1830
FC7E
FC7E
ENDCHAR
STARTCHAR 2128
ENCODING 8488
SWIDTH 630 0
DWIDTH 14 0
BBX 13 19 0 -4
BITMAP
03C0
0C60
0030
0030
0010
0430
0C30
0460
0380
07E0
0870
1030
0018
0018
7018
9C18
8C10
0C20
03C0
ENDCHAR
STARTCHAR 212D
ENCODING 8493
SWIDTH 675 0
DWIDTH 15 0
BBX 14 18 1 -2
BITMAP
0E00
1270
21F8
6310
4200
4300
C180
C1C0
C0C0
C460
C860
6860
6440
7384
3808
1C10
0FE0
07C0
ENDCHAR
STARTCHAR 212E
ENCODING 8494
SWIDTH 585 0
DWIDTH 13 0
BBX 11 12 1 0
BITMAP
1F00
3180
60C0
4040
C060
FFE0
C000
C000
4040
60C0
3180
1F00
ENDCHAR
STARTCHAR 212F
ENCODING 8495
SWIDTH 495 0
DWIDTH 11 0
BBX 9 11 1 0
BITMAP
0780
1980
3180
3100
6600
7C00
E000
C000
E100
6200
3C00
ENDCHAR
STARTCHAR 2135
ENCODING 8501
SWIDTH 495 0
DWIDTH 11 0
BBX 9 13 1 1
BITMAP
8780
C780
4780
6100
7200
5A00
CE00
C600
E600
F300
7180
7080
F080
ENDCHAR
STARTCHAR 2136
ENCODING 8502
SWIDTH 450 0
DWIDTH 10 0
BBX 9 12 1 0
BITMAP
8000
FE00
FF00
0300
0180
0080
0080
0100
0100
0100
FF80
FF00
ENDCHAR
STARTCHAR 2137
ENCODING 8503
SWIDTH 315 0
DWIDTH 7 0
BBX 6 12 1 0
BITMAP
40
78
78
08
08
08
08
08
0C
0C
74
F4
ENDCHAR
STARTCHAR 215B
ENCODING 8539
SWIDTH 855 0
DWIDTH 19 0
BBX 17 16 1 0
BITMAP
100800
701000
F03000
302000
304000
304000
308E00
319100
311100
021100
060E00
041100
0C3180
083180
101100
300E00
ENDCHAR
STARTCHAR 215C
ENCODING 8540
SWIDTH 855 0
DWIDTH 19 0
BBX 17 16 1 0
BITMAP
780C00
CC0800
841000
041000
382000
046000
864E00
849100
CD9100
791100
021200
021E00
041100
0C3080
081100
100F00
ENDCHAR
STARTCHAR 215D
ENCODING 8541
SWIDTH 855 0
DWIDTH 19 0
BBX 17 16 1 0
BITMAP
7C0C00
400800
C01000
F83000
8C2000
044000
844E00
CC9100
799100
011100
020E00
061100
043180
0C3180
081100
100E00
ENDCHAR
STARTCHAR 215E
ENCODING 8542
SWIDTH 855 0
DWIDTH 19 0
BBX 17 16 1 0
BITMAP
FE1000
043000
082000
084000
10C000
108000
210E00
211100
221100
061100
040E00
081100
182180
102180
301100
201E00
ENDCHAR
STARTCHAR 2190
ENCODING 8592
SWIDTH 990 0
DWIDTH 22 0
BBX 18 7 2 3
BITMAP
080000
300000
700000
FFFFC0
700000
100000
080000
ENDCHAR
STARTCHAR 2191
ENCODING 8593
SWIDTH 495 0
DWIDTH 11 0
BBX 7 18 2 -2
BITMAP
10
30
38
7C
96
10
10
10
10
10
10
10
10
10
10
10
10
10
ENDCHAR
STARTCHAR 2192
ENCODING 8594
SWIDTH 990 0
DWIDTH 22 0
BBX 18 7 2 3
BITMAP
000600
000300
000380
FFFFC0
000380
000200
000400
ENDCHAR
STARTCHAR 2193
ENCODING 8595
SWIDTH 495 0
DWIDTH 11 0
BBX 7 18 2 -2
BITMAP
10
10
10
10
10
10
10
10
10
10
10
10
10
92
DC
78
38
10
ENDCHAR
STARTCHAR 2194
ENCODING 8596
SWIDTH 990 0
DWIDTH 22 0
BBX 16 7 3 3
BITMAP
1808
300C
6007
FFFF
700E
100C
0818
ENDCHAR
STARTCHAR 2195
ENCODING 8597
SWIDTH 495 0
DWIDTH 11 0
BBX 7 17 2 -1
BITMAP
10
38
38
7C
D6
10
10
10
10
10
10
10
D6
7C
38
18
10
ENDCHAR
STARTCHAR 2196
ENCODING 8598
SWIDTH 720 0
DWIDTH 16 0
BBX 16 15 0 0
BITMAP
F000
FC00
7200
5800
2C00
2600
3300
0180
00C0
0060
0030
0018
000C
0006
0003
ENDCHAR
STARTCHAR 2197
ENCODING 8599
SWIDTH 720 0
DWIDTH 16 0
BBX 16 16 0 -1
BITMAP
0002
000F
0036
00CE
001E
0034
006C
00C8
0180
0300
0600
0C00
1800
3000
4000
8000
ENDCHAR
STARTCHAR 2198
ENCODING 8600
SWIDTH 720 0
DWIDTH 16 0
BBX 16 15 0 0
BITMAP
C000
6000
3000
1800
0C00
0600
0300
0180
00C8
0064
0034
009A
00EE
001F
0006
ENDCHAR
STARTCHAR 2199
ENCODING 8601
SWIDTH 720 0
DWIDTH 16 0
BBX 15 15 0 0
BITMAP
0002
0004
0008
0010
0020
0040
0080
0100
2200
2400
6800
5000
E600
F800
E000
ENDCHAR
STARTCHAR 21A8
ENCODING 8616
SWIDTH 495 0
DWIDTH 11 0
BBX 7 20 2 -2
BITMAP
10
38
38
7C
D6
10
10
10
10
10
10
10
D6
7C
38
38
10
00
00
7E
ENDCHAR
STARTCHAR 21B5
ENCODING 8629
SWIDTH 990 0
DWIDTH 22 0
BBX 16 8 4 3
BITMAP
0003
0C03
3803
C003
FFFF
E000
1C00
0400
ENDCHAR
STARTCHAR 21C4
ENCODING 8644
SWIDTH 990 0
DWIDTH 22 0
BBX 16 12 3 2
BITMAP
0008
000C
0006
FFFF
0006
180C
3018
6000
FFFF
6000
3000
1000
ENDCHAR
STARTCHAR 21C6
ENCODING 8646
SWIDTH 990 0
DWIDTH 22 0
BBX 16 12 3 2
BITMAP
1000
3000
6000
FFFF
6000
3018
080C
0006
FFFF
0006
000C
0008
ENDCHAR
STARTCHAR 21D0
ENCODING 8656
SWIDTH 720 0
DWIDTH 16 0
BBX 16 9 0 2
BITMAP
0400
0800
1FFF
6000
C000
6000
1FFF
0800
0400
ENDCHAR
STARTCHAR 21D1
ENCODING 8657
SWIDTH 720 0
DWIDTH 16 0
BBX 8 14 4 0
BITMAP
18
3C
24
42
C3
42
42
42
42
42
42
42
42
42
ENDCHAR
STARTCHAR 21D2
ENCODING 8658
SWIDTH 720 0
DWIDTH 16 0
BBX 16 9 0 2
BITMAP
0020
0010
FFFC
0006
0003
0006
FFF8
0010
0020
ENDCHAR
STARTCHAR 21D3
ENCODING 8659
SWIDTH 720 0
DWIDTH 16 0
BBX 10 14 3 0
BITMAP
2100
2100
2100
2100
2100
2100
2100
2100
E1C0
6180
2100
1200
0C00
0800
ENDCHAR
STARTCHAR 21D4
ENCODING 8660
SWIDTH 720 0
DWIDTH 16 0
BBX 16 9 0 2
BITMAP
0420
0810
3FFC
6006
C003
6006
3FFC
0810
0420
ENDCHAR
STARTCHAR 21D5
ENCODING 8661
SWIDTH 720 0
DWIDTH 16 0
BBX 10 16 3 -1
BITMAP
0800
1C00
3300
7380
9240
1200
1200
1200
1200
1200
1200
9240
7380
3300
1E00
0C00
ENDCHAR
STARTCHAR 2200
ENCODING 8704
SWIDTH 585 0
DWIDTH 13 0
BBX 12 13 1 0
BITMAP
C070
C060
E060
60C0
7FC0
3FC0
3180
3980
1B00
1B00
0F00
0E00
0E00
ENDCHAR
STARTCHAR 2202
ENCODING 8706
SWIDTH 495 0
DWIDTH 11 0
BBX 9 17 1 0
BITMAP
7800
4600
0300
0100
0180
0180
0180
0180
3D80
6380
C180
C180
8180
8300
C300
C600
3C00
ENDCHAR
STARTCHAR 2203
ENCODING 8707
SWIDTH 405 0
DWIDTH 9 0
BBX 7 13 1 0
BITMAP
FE
FE
06
06
06
06
FE
FE
06
06
06
FE
FE
ENDCHAR
STARTCHAR 2205
ENCODING 8709
SWIDTH 990 0
DWIDTH 22 0
BBX 18 16 2 0
BITMAP
01F000
071CC0
0C0780
180700
300D00
201980
203180
206180
21C080
230180
260180
3C0100
180300
3C0600
C71C00
01F000
ENDCHAR
STARTCHAR 2206
ENCODING 8710
SWIDTH 630 0
DWIDTH 14 0
BBX 13 14 0 0
BITMAP
0300
0700
0780
0D80
0CC0
08C0
18C0
1860
3060
3030
2030
6030
7FF8
FFF8
ENDCHAR
STARTCHAR 2207
ENCODING 8711
SWIDTH 720 0
DWIDTH 16 0
BBX 13 14 2 0
BITMAP
FFF8
FFF0
6030
6020
6060
3060
30C0
18C0
1880
1980
0D80
0F00
0700
0600
ENDCHAR
STARTCHAR 2208
ENCODING 8712
SWIDTH 990 0
DWIDTH 22 0
BBX 12 11 5 0
BITMAP
1FF0
7000
6000
C000
C000
FFF0
C000
C000
4000
7000
1FF0
ENDCHAR
STARTCHAR 2209
ENCODING 8713
SWIDTH 990 0
DWIDTH 22 0
BBX 12 14 5 -1
BITMAP
0020
0060
1FF0
7080
6080
C100
C100
FFF0
C600
C400
4800
7800
1FF0
3000
ENDCHAR
STARTCHAR 220B
ENCODING 8715
SWIDTH 990 0
DWIDTH 22 0
BBX 12 11 5 0
BITMAP
FF80
00E0
0020
0030
0030
FFF0
0030
0030
0020
00E0
FFC0
ENDCHAR
STARTCHAR 220D
ENCODING 8717
SWIDTH 540 0
DWIDTH 12 0
BBX 9 10 2 0
BITMAP
FE00
0100
0080
0080
FF80
0080
0080
0180
0300
FE00
ENDCHAR
STARTCHAR 220F
ENCODING 8719
SWIDTH 990 0
DWIDTH 22 0
BBX 17 21 3 -5
BITMAP
FFFF80
FFFF80
300C00
300C00
300C00
300C00
300C00
300C00
300C00
300C00
300C00
300C00
300C00
300C00
300C00
300C00
300C00
300C00
300C00
FC1F00
FC1F00
ENDCHAR
STARTCHAR 2211
ENCODING 8721
SWIDTH 990 0
DWIDTH 22 0
BBX 11 20 5 -3
BITMAP
FFE0
FFE0
C060
6060
2060
3000
1800
1800
0C00
0C00
0C00
0C00
1800
1800
3000
3020
6060
4060
FFE0
FFE0
ENDCHAR
STARTCHAR 2212
ENCODING 8722
SWIDTH 585 0
DWIDTH 13 0
BBX 11 2 1 4
BITMAP
FFE0
FFE0
ENDCHAR
STARTCHAR 2213
ENCODING 8723
SWIDTH 990 0
DWIDTH 22 0
BBX 10 14 6 0
BITMAP
FFC0
FFC0
0000
0C00
0C00
0C00
0C00
0C00
FFC0
FFC0
0C00
0C00
0C00
0C00
ENDCHAR
STARTCHAR 2215
ENCODING 8725
SWIDTH 270 0
DWIDTH 6 0
BBX 10 16 -2 0
BITMAP
0040
00C0
0080
0100
0300
0200
0600
0400
0800
1800
1000
2000
2000
4000
C000
8000
ENDCHAR
STARTCHAR 2217
ENCODING 8727
SWIDTH 990 0
DWIDTH 22 0
BBX 6 6 8 2
BITMAP
34
DC
30
DC
34
30
ENDCHAR
STARTCHAR 2219
ENCODING 8729
SWIDTH 270 0
DWIDTH 6 0
BBX 3 2 2 5
BITMAP
E0
E0
ENDCHAR
STARTCHAR 221A
ENCODING 8730
SWIDTH 450 0
DWIDTH 10 0
BBX 11 20 -1 -1
BITMAP
0020
0020
0020
0020
0020
0040
0040
0040
0040
7040
9040
1840
0880
0C80
0480
0680
0280
0380
0100
0100
ENDCHAR
STARTCHAR 221D
ENCODING 8733
SWIDTH 990 0
DWIDTH 22 0
BBX 11 5 4 3
BITMAP
7C60
4780
C300
4780
7C60
ENDCHAR
STARTCHAR 221E
ENCODING 8734
SWIDTH 720 0
DWIDTH 16 0
BBX 14 6 1 3
BITMAP
7078
CCCC
8704
8304
8CCC
7878
ENDCHAR
STARTCHAR 221F
ENCODING 8735
SWIDTH 990 0
DWIDTH 22 0
BBX 20 19 1 0
BITMAP
C00000
C00000
C00000
C00000
C00000
C00000
C00000
C00000
C00000
C00000
C00000
C00000
C00000
C00000
C00000
C00000
C00000
C00000
FFFFF0
ENDCHAR
STARTCHAR 2220
ENCODING 8736
SWIDTH 990 0
DWIDTH 22 0
BBX 13 9 5 0
BITMAP
0040
0180
0300
0600
0C00
1800
3000
6000
FFF8
ENDCHAR
STARTCHAR 2223
ENCODING 8739
SWIDTH 720 0
DWIDTH 16 0
BBX 2 22 7 -6
BITMAP
C0
C0
C0
C0
C0
C0
C0
C0
C0
C0
C0
C0
C0
C0
C0
C0
C0
C0
C0
C0
C0
C0
ENDCHAR
STARTCHAR 2225
ENCODING 8741
SWIDTH 720 0
DWIDTH 16 0
BBX 4 26 6 -6
BITMAP
90
90
90
90
90
90
90
90
90
90
90
90
90
90
90
90
90
90
90
90
90
90
90
90
90
90
ENDCHAR
STARTCHAR 2227
ENCODING 8743
SWIDTH 990 0
DWIDTH 22 0
BBX 11 11 6 0
BITMAP
0C00
0E00
1E00
1300
3300
3100
6180
6080
C0C0
C0C0
8060
ENDCHAR
STARTCHAR 2228
ENCODING 8744
SWIDTH 990 0
DWIDTH 22 0
BBX 10 11 6 0
BITMAP
C040
C0C0
40C0
6180
2180
3300
3300
1A00
1E00
0C00
0C00
ENDCHAR
STARTCHAR 2229
ENCODING 8745
SWIDTH 720 0
DWIDTH 16 0
BBX 10 13 3 0
BITMAP
3F00
6180
C0C0
80C0
8040
8040
8040
8040
8040
8040
8040
8040
8040
ENDCHAR
STARTCHAR 222A
ENCODING 8746
SWIDTH 720 0
DWIDTH 16 0
BBX 10 14 3 0
BITMAP
8040
8040
8040
8040
8040
8040
8040
8040
8040
8040
C0C0
C0C0
7380
1E00
ENDCHAR
STARTCHAR 222B
ENCODING 8747
SWIDTH 270 0
DWIDTH 6 0
BBX 6 23 0 -3
BITMAP
0C
1C
10
10
10
10
10
10
10
10
10
10
10
10
10
10
10
10
10
10
50
E0
60
ENDCHAR
STARTCHAR 222E
ENCODING 8750
SWIDTH 990 0
DWIDTH 22 0
BBX 10 28 6 -6
BITMAP
0300
0580
0980
0800
0800
0800
0800
1800
1C00
1C00
3F00
4C80
8C80
8C40
8C40
8C80
4C80
2F00
1C00
0C00
0C00
0400
0400
0400
0400
6400
6800
3000
ENDCHAR
STARTCHAR 2234
ENCODING 8756
SWIDTH 990 0
DWIDTH 22 0
BBX 14 14 4 0
BITMAP
0300
0300
0300
0000
0000
0000
0000
0000
0000
0000
0000
6018
E01C
601C
ENDCHAR
STARTCHAR 2235
ENCODING 8757
SWIDTH 990 0
DWIDTH 22 0
BBX 14 14 4 0
BITMAP
6018
E01C
E01C
0000
0000
0000
0000
0000
0000
0000
0000
0300
0300
0300
ENDCHAR
STARTCHAR 2237
ENCODING 8759
SWIDTH 990 0
DWIDTH 22 0
BBX 14 14 4 0
BITMAP
6018
E01C
601C
0000
0000
0000
0000
0000
0000
0000
0000
6018
E01C
601C
ENDCHAR
STARTCHAR 2245
ENCODING 8773
SWIDTH 990 0
DWIDTH 22 0
BBX 10 7 6 2
BITMAP
7C40
8780
0000
FFC0
0000
0000
FFC0
ENDCHAR
STARTCHAR 2248
ENCODING 8776
SWIDTH 540 0
DWIDTH 12 0
BBX 10 7 1 2
BITMAP
3000
7C40
87C0
8100
7840
FFC0
8780
ENDCHAR
STARTCHAR 2260
ENCODING 8800
SWIDTH 540 0
DWIDTH 12 0
BBX 10 11 1 -1
BITMAP
0100
0300
0200
FFC0
FFC0
0C00
0800
FFC0
FFC0
2000
6000
ENDCHAR
STARTCHAR 2261
ENCODING 8801
SWIDTH 585 0
DWIDTH 13 0
BBX 11 10 1 0
BITMAP
FFE0
FFE0
0000
0000
FFE0
FFE0
0000
0000
FFE0
FFE0
ENDCHAR
STARTCHAR 2262
ENCODING 8802
SWIDTH 990 0
DWIDTH 22 0
BBX 10 12 6 0
BITMAP
0180
FFC0
FFC0
0600
0400
FFC0
FFC0
1800
1000
FFC0
FFC0
4000
ENDCHAR
STARTCHAR 2264
ENCODING 8804
SWIDTH 540 0
DWIDTH 12 0
BBX 10 14 1 0
BITMAP
00C0
03C0
0F00
7800
E000
E000
7C00
0F00
03C0
0040
0000
0000
0000
FFC0
ENDCHAR
STARTCHAR 2265
ENCODING 8805
SWIDTH 540 0
DWIDTH 12 0
BBX 10 14 1 0
BITMAP
C000
F000
3E00
0780
01C0
01C0
0780
3C00
F000
8000
0000
0000
0000
FFC0
ENDCHAR
STARTCHAR 226A
ENCODING 8810
SWIDTH 990 0
DWIDTH 22 0
BBX 14 14 4 -1
BITMAP
0004
001C
0078
01C4
0F1C
3C78
F1C0
E3C0
3C78
0F1C
01C4
0078
001C
0004
ENDCHAR
STARTCHAR 226B
ENCODING 8811
SWIDTH 990 0
DWIDTH 22 0
BBX 14 14 4 -1
BITMAP
8000
E000
3800
8E00
E3C0
78F0
0E1C
0F1C
78F0
E3C0
8F00
3800
E000
8000
ENDCHAR
STARTCHAR 2282
ENCODING 8834
SWIDTH 990 0
DWIDTH 22 0
BBX 12 11 5 0
BITMAP
1FF0
7000
6000
C000
C000
C000
C000
C000
6000
7000
1FF0
ENDCHAR
STARTCHAR 2283
ENCODING 8835
SWIDTH 990 0
DWIDTH 22 0
BBX 12 11 5 0
BITMAP
FF80
00E0
0020
0030
0030
0030
0030
0030
0020
00E0
FFC0
ENDCHAR
STARTCHAR 2284
ENCODING 8836
SWIDTH 990 0
DWIDTH 22 0
BBX 12 14 5 -1
BITMAP
0020
0020
1FF0
7040
6080
C080
C100
C300
C200
C400
6400
7800
1FF0
1000
ENDCHAR
STARTCHAR 2285
ENCODING 8837
SWIDTH 990 0
DWIDTH 22 0
BBX 12 14 5 -1
BITMAP
4000
4000
FF80
20E0
1020
1830
0830
0430
0430
0230
0320
01E0
FF80
0080
ENDCHAR
STARTCHAR 2286
ENCODING 8838
SWIDTH 990 0
DWIDTH 22 0
BBX 12 13 5 0
BITMAP
3FF0
6000
4000
C000
C000
C000
C000
C000
6000
7000
1FF0
0000
FFF0
ENDCHAR
STARTCHAR 2287
ENCODING 8839
SWIDTH 990 0
DWIDTH 22 0
BBX 12 13 5 0
BITMAP
FFC0
0060
0030
0030
0030
0030
0030
0030
0020
00E0
FFC0
0000
FFF0
ENDCHAR
STARTCHAR 2295
ENCODING 8853
SWIDTH 990 0
DWIDTH 22 0
BBX 16 16 3 0
BITMAP
07F0
1998
318C
6186
4182
C183
8181
FFFF
8181
C181
4183
4182
2186
318C
1DB8
07E0
ENDCHAR
STARTCHAR 2296
ENCODING 8854
SWIDTH 990 0
DWIDTH 22 0
BBX 16 15 3 0
BITMAP
07F0
1818
300C
6006
4002
C003
8001
FFFF
8001
C003
4002
6006
300C
1818
0FF0
ENDCHAR
STARTCHAR 2297
ENCODING 8855
SWIDTH 990 0
DWIDTH 22 0
BBX 16 16 3 0
BITMAP
07E0
1E38
300C
380E
4C12
4623
C341
8181
81C1
C261
4433
4812
300E
300C
1E38
07E0
ENDCHAR
STARTCHAR 2298
ENCODING 8856
SWIDTH 990 0
DWIDTH 22 0
BBX 16 16 3 0
BITMAP
07E0
1E78
300C
600E
401A
C033
C061
80C1
8181
C301
C603
4C02
7806
300C
1E38
07E0
ENDCHAR
STARTCHAR 2299
ENCODING 8857
SWIDTH 990 0
DWIDTH 22 0
BBX 16 15 3 0
BITMAP
07F0
1818
300C
6006
4002
C003
8181
8181
8181
C003
4002
6006
300C
1818
0FF0
ENDCHAR
STARTCHAR 22A2
ENCODING 8866
SWIDTH 990 0
DWIDTH 22 0
BBX 14 12 4 0
BITMAP
8000
8000
8000
8000
8000
FFFC
FFFC
8000
8000
8000
8000
8000
ENDCHAR
STARTCHAR 22A3
ENCODING 8867
SWIDTH 990 0
DWIDTH 22 0
BBX 14 12 4 0
BITMAP
000C
000C
000C
000C
000C
FFFC
000C
000C
000C
000C
000C
000C
ENDCHAR
STARTCHAR 22A4
ENCODING 8868
SWIDTH 990 0
DWIDTH 22 0
BBX 12 14 5 0
BITMAP
FFF0
07F0
0600
0600
0600
0600
0600
0600
0600
0600
0600
0600
0600
0600
ENDCHAR
STARTCHAR 22A5
ENCODING 8869
SWIDTH 990 0
DWIDTH 22 0
BBX 14 13 4 0
BITMAP
0300
0300
0300
0300
0300
0300
0300
0300
0300
0300
0300
0300
FFFC
ENDCHAR
STARTCHAR 22BB
ENCODING 8891
SWIDTH 990 0
DWIDTH 22 0
BBX 12 16 5 -3
BITMAP
C030
C030
4020
6060
2040
30C0
30C0
1980
1980
0900
0F00
0600
0600
0000
0000
FFF0
ENDCHAR
STARTCHAR 2302
ENCODING 8962
SWIDTH 585 0
DWIDTH 13 0
BBX 12 16 1 0
BITMAP
0400
0E00
0B00
1180
3080
6040
C060
8030
8030
8030
8030
8030
8030
8030
8030
FFF0
ENDCHAR
STARTCHAR 2310
ENCODING 8976
SWIDTH 585 0
DWIDTH 13 0
BBX 11 7 1 2
BITMAP
FFE0
FFE0
8000
8000
8000
8000
8000
ENDCHAR
STARTCHAR 2320
ENCODING 8992
SWIDTH 585 0
DWIDTH 13 0
BBX 4 25 6 -5
BITMAP
60
70
80
80
80
80
80
80
C0
C0
C0
C0
C0
C0
C0
C0
C0
C0
C0
C0
C0
C0
C0
C0
C0
ENDCHAR
STARTCHAR 2321
ENCODING 8993
SWIDTH 585 0
DWIDTH 13 0
BBX 4 25 4 -5
BITMAP
30
30
30
30
30
30
30
30
30
30
30
30
30
30
30
30
20
20
20
20
20
20
A0
E0
C0
ENDCHAR
STARTCHAR 2329
ENCODING 9001
SWIDTH 315 0
DWIDTH 7 0
BBX 5 16 1 -3
BITMAP
08
18
10
30
20
60
60
C0
40
60
20
30
10
10
08
08
ENDCHAR
STARTCHAR 232A
ENCODING 9002
SWIDTH 315 0
DWIDTH 7 0
BBX 5 16 1 -3
BITMAP
80
40
40
20
20
30
10
18
18
10
30
20
60
40
40
80
ENDCHAR
STARTCHAR 2500
ENCODING 9472
SWIDTH 990 0
DWIDTH 22 0
BBX 22 1 0 5
BITMAP
FFFFFC
ENDCHAR
STARTCHAR 2502
ENCODING 9474
SWIDTH 990 0
DWIDTH 22 0
BBX 2 22 10 -6
BITMAP
C0
C0
C0
C0
C0
C0
C0
C0
C0
C0
C0
C0
C0
C0
C0
C0
C0
C0
C0
C0
C0
C0
ENDCHAR
STARTCHAR 250C
ENCODING 9484
SWIDTH 990 0
DWIDTH 22 0
BBX 12 11 10 -5
BITMAP
FFF0
C000
C000
C000
C000
C000
C000
C000
C000
C000
C000
ENDCHAR
STARTCHAR 2510
ENCODING 9488
SWIDTH 990 0
DWIDTH 22 0
BBX 12 11 0 -5
BITMAP
FFF0
0030
0030
0030
0030
0030
0030
0030
0030
0030
0030
ENDCHAR
STARTCHAR 2514
ENCODING 9492
SWIDTH 990 0
DWIDTH 22 0
BBX 12 11 10 5
BITMAP
C000
C000
C000
C000
C000
C000
C000
C000
C000
C000
FFF0
ENDCHAR
STARTCHAR 2518
ENCODING 9496
SWIDTH 990 0
DWIDTH 22 0
BBX 12 11 0 5
BITMAP
0030
0030
0030
0030
0030
0030
0030
0030
0030
0030
FFF0
ENDCHAR
STARTCHAR 251C
ENCODING 9500
SWIDTH 990 0
DWIDTH 22 0
BBX 12 21 10 -5
BITMAP
C000
C000
C000
C000
C000
C000
C000
C000
C000
C000
FFF0
C000
C000
C000
C000
C000
C000
C000
C000
C000
C000
ENDCHAR
STARTCHAR 2524
ENCODING 9508
SWIDTH 990 0
DWIDTH 22 0
BBX 12 21 0 -5
BITMAP
0030
0030
0030
0030
0030
0030
0030
0030
0030
0030
FFF0
0030
0030
0030
0030
0030
0030
0030
0030
0030
0030
ENDCHAR
STARTCHAR 252C
ENCODING 9516
SWIDTH 990 0
DWIDTH 22 0
BBX 22 11 0 -5
BITMAP
FFFFFC
003000
003000
003000
003000
003000
003000
003000
003000
003000
003000
ENDCHAR
STARTCHAR 2534
ENCODING 9524
SWIDTH 990 0
DWIDTH 22 0
BBX 22 11 0 5
BITMAP
003000
003000
003000
003000
003000
003000
003000
003000
003000
003000
FFFFFC
ENDCHAR
STARTCHAR 253C
ENCODING 9532
SWIDTH 990 0
DWIDTH 22 0
BBX 22 21 0 -5
BITMAP
003000
003000
003000
003000
003000
003000
003000
003000
003000
003000
FFFFFC
003000
003000
003000
003000
003000
003000
003000
003000
003000
003000
ENDCHAR
STARTCHAR 2550
ENCODING 9552
SWIDTH 990 0
DWIDTH 22 0
BBX 22 4 0 4
BITMAP
FFFFFC
000000
000000
FFFFFC
ENDCHAR
STARTCHAR 2551
ENCODING 9553
SWIDTH 990 0
DWIDTH 22 0
BBX 4 22 9 -6
BITMAP
90
90
90
90
90
90
90
90
90
90
90
90
90
90
90
90
90
90
90
90
90
90
ENDCHAR
STARTCHAR 2552
ENCODING 9554
SWIDTH 990 0
DWIDTH 22 0
BBX 12 13 10 -5
BITMAP
FFF0
C000
C000
FFF0
C000
C000
C000
C000
C000
C000
C000
C000
C000
ENDCHAR
STARTCHAR 2553
ENCODING 9555
SWIDTH 990 0
DWIDTH 22 0
BBX 13 11 9 -5
BITMAP
FFF8
9000
9000
9000
9000
9000
9000
9000
9000
9000
9000
ENDCHAR
STARTCHAR 2554
ENCODING 9556
SWIDTH 990 0
DWIDTH 22 0
BBX 13 13 9 -5
BITMAP
FFF8
8000
8000
9FF8
9000
9000
9000
9000
9000
9000
9000
9000
9000
ENDCHAR
STARTCHAR 2555
ENCODING 9557
SWIDTH 990 0
DWIDTH 22 0
BBX 12 13 0 -5
BITMAP
FFF0
0030
0030
FFF0
0030
0030
0030
0030
0030
0030
0030
0030
0030
ENDCHAR
STARTCHAR 2556
ENCODING 9558
SWIDTH 990 0
DWIDTH 22 0
BBX 13 11 0 -5
BITMAP
FFF8
0048
0048
0048
0048
0048
0048
0048
0048
0048
0048
ENDCHAR
STARTCHAR 2557
ENCODING 9559
SWIDTH 990 0
DWIDTH 22 0
BBX 13 13 0 -5
BITMAP
FFF8
0008
0008
FFC8
0048
0048
0048
0048
0048
0048
0048
0048
0048
ENDCHAR
STARTCHAR 2558
ENCODING 9560
SWIDTH 990 0
DWIDTH 22 0
BBX 12 12 10 4
BITMAP
C000
C000
C000
C000
C000
C000
C000
C000
FFF0
C000
C000
FFF0
ENDCHAR
STARTCHAR 2559
ENCODING 9561
SWIDTH 990 0
DWIDTH 22 0
BBX 13 11 9 5
BITMAP
9000
9000
9000
9000
9000
9000
9000
9000
9000
9000
FFF8
ENDCHAR
STARTCHAR 255A
ENCODING 9562
SWIDTH 990 0
DWIDTH 22 0
BBX 13 12 9 4
BITMAP
9000
9000
9000
9000
9000
9000
9000
9000
9FF8
8000
8000
FFF8
ENDCHAR
STARTCHAR 255B
ENCODING 9563
SWIDTH 990 0
DWIDTH 22 0
BBX 12 12 0 4
BITMAP
0030
0030
0030
0030
0030
0030
0030
0030
FFF0
0030
0030
FFF0
ENDCHAR
STARTCHAR 255C
ENCODING 9564
SWIDTH 990 0
DWIDTH 22 0
BBX 13 11 0 5
BITMAP
0048
0048
0048
0048
0048
0048
0048
0048
0048
0048
FFF8
ENDCHAR
STARTCHAR 255D
ENCODING 9565
SWIDTH 990 0
DWIDTH 22 0
BBX 13 12 0 4
BITMAP
0048
0048
0048
0048
0048
0048
0048
0048
FFC8
0008
0008
FFF8
ENDCHAR
STARTCHAR 255E
ENCODING 9566
SWIDTH 990 0
DWIDTH 22 0
BBX 12 21 10 -5
BITMAP
C000
C000
C000
C000
C000
C000
C000
C000
FFF0
C000
C000
FFF0
C000
C000
C000
C000
C000
C000
C000
C000
C000
ENDCHAR
STARTCHAR 255F
ENCODING 9567
SWIDTH 990 0
DWIDTH 22 0
BBX 13 21 9 -5
BITMAP
9000
9000
9000
9000
9000
9000
9000
9000
9000
9000
9FF8
9000
9000
9000
9000
9000
9000
9000
9000
9000
9000
ENDCHAR
STARTCHAR 2560
ENCODING 9568
SWIDTH 990 0
DWIDTH 22 0
BBX 13 21 9 -5
BITMAP
9000
9000
9000
9000
9000
9000
9000
9000
9FF8
8000
8000
9FF8
9000
9000
9000
9000
9000
9000
9000
9000
9000
ENDCHAR
STARTCHAR 2561
ENCODING 9569
SWIDTH 990 0
DWIDTH 22 0
BBX 12 21 0 -5
BITMAP
0030
0030
0030
0030
0030
0030
0030
0030
FFF0
0030
0030
FFF0
0030
0030
0030
0030
0030
0030
0030
0030
0030
ENDCHAR
STARTCHAR 2562
ENCODING 9570
SWIDTH 990 0
DWIDTH 22 0
BBX 13 21 0 -5
BITMAP
0048
0048
0048
0048
0048
0048
0048
0048
0048
0048
FFC8
0048
0048
0048
0048
0048
0048
0048
0048
0048
0048
ENDCHAR
STARTCHAR 2563
ENCODING 9571
SWIDTH 990 0
DWIDTH 22 0
BBX 13 21 0 -5
BITMAP
0048
0048
0048
0048
0048
0048
0048
0048
FFC8
0008
0008
FFC8
0048
0048
0048
0048
0048
0048
0048
0048
0048
ENDCHAR
STARTCHAR 2564
ENCODING 9572
SWIDTH 990 0
DWIDTH 22 0
BBX 22 13 0 -5
BITMAP
FFFFFC
000000
000000
FFFFFC
003000
003000
003000
003000
003000
003000
003000
003000
003000
ENDCHAR
STARTCHAR 2565
ENCODING 9573
SWIDTH 990 0
DWIDTH 22 0
BBX 22 11 0 -5
BITMAP
FFFFFC
004800
004800
004800
004800
004800
004800
004800
004800
004800
004800
ENDCHAR
STARTCHAR 2566
ENCODING 9574
SWIDTH 990 0
DWIDTH 22 0
BBX 22 13 0 -5
BITMAP
FFFFFC
000000
000000
FFCFFC
004800
004800
004800
004800
004800
004800
004800
004800
004800
ENDCHAR
STARTCHAR 2567
ENCODING 9575
SWIDTH 990 0
DWIDTH 22 0
BBX 22 12 0 4
BITMAP
003000
003000
003000
003000
003000
003000
003000
003000
FFFFFC
000000
000000
FFFFFC
ENDCHAR
STARTCHAR 2568
ENCODING 9576
SWIDTH 990 0
DWIDTH 22 0
BBX 22 11 0 5
BITMAP
004800
004800
004800
004800
004800
004800
004800
004800
004800
004800
FFFFFC
ENDCHAR
STARTCHAR 2569
ENCODING 9577
SWIDTH 990 0
DWIDTH 22 0
BBX 22 12 0 4
BITMAP
004800
004800
004800
004800
004800
004800
004800
004800
FFCFFC
000000
000000
FFFFFC
ENDCHAR
STARTCHAR 256A
ENCODING 9578
SWIDTH 990 0
DWIDTH 22 0
BBX 22 21 0 -5
BITMAP
003000
003000
003000
003000
003000
003000
003000
003000
FFFFFC
003000
003000
FFFFFC
003000
003000
003000
003000
003000
003000
003000
003000
003000
ENDCHAR
STARTCHAR 256B
ENCODING 9579
SWIDTH 990 0
DWIDTH 22 0
BBX 22 21 0 -5
BITMAP
004800
004800
004800
004800
004800
004800
004800
004800
004800
004800
FFFFFC
004800
004800
004800
004800
004800
004800
004800
004800
004800
004800
ENDCHAR
STARTCHAR 256C
ENCODING 9580
SWIDTH 990 0
DWIDTH 22 0
BBX 22 21 0 -5
BITMAP
004800
004800
004800
004800
004800
004800
004800
004800
FFCFFC
000000
000000
FFCFFC
004800
004800
004800
004800
004800
004800
004800
004800
004800
ENDCHAR
STARTCHAR 256D
ENCODING 9581
SWIDTH 990 0
DWIDTH 22 0
BBX 12 11 10 -5
BITMAP
03F0
0E00
1800
3000
6000
4000
4000
C000
C000
C000
C000
ENDCHAR
STARTCHAR 256E
ENCODING 9582
SWIDTH 990 0
DWIDTH 22 0
BBX 12 11 0 -5
BITMAP
FE00
0700
0180
00C0
0060
0020
0020
0030
0030
0030
0030
ENDCHAR
STARTCHAR 256F
ENCODING 9583
SWIDTH 990 0
DWIDTH 22 0
BBX 12 11 0 5
BITMAP
0030
0030
0030
0030
0020
0020
0060
00C0
0180
1F00
F800
ENDCHAR
STARTCHAR 2570
ENCODING 9584
SWIDTH 990 0
DWIDTH 22 0
BBX 12 11 10 5
BITMAP
C000
C000
C000
4000
4000
6000
6000
3000
1800
0F80
01F0
ENDCHAR
STARTCHAR 2580
ENCODING 9600
SWIDTH 990 0
DWIDTH 22 0
BBX 22 11 0 5
BITMAP
FFFFFC
FFFFFC
FFFFFC
FFFFFC
FFFFFC
FFFFFC
FFFFFC
FFFFFC
FFFFFC
FFFFFC
FFFFFC
ENDCHAR
STARTCHAR 2584
ENCODING 9604
SWIDTH 990 0
DWIDTH 22 0
BBX 22 12 0 -6
BITMAP
FFFFFC
FFFFFC
FFFFFC
FFFFFC
FFFFFC
FFFFFC
FFFFFC
FFFFFC
FFFFFC
FFFFFC
FFFFFC
FFFFFC
ENDCHAR
STARTCHAR 2588
ENCODING 9608
SWIDTH 990 0
DWIDTH 22 0
BBX 22 22 0 -6
BITMAP
FFFFFC
FFFFFC
FFFFFC
FFFFFC
FFFFFC
FFFFFC
FFFFFC
FFFFFC
FFFFFC
FFFFFC
FFFFFC
FFFFFC
FFFFFC
FFFFFC
FFFFFC
FFFFFC
FFFFFC
FFFFFC
FFFFFC
FFFFFC
FFFFFC
FFFFFC
ENDCHAR
STARTCHAR 258C
ENCODING 9612
SWIDTH 990 0
DWIDTH 22 0
BBX 11 22 0 -6
BITMAP
FFE0
FFE0
FFE0
FFE0
FFE0
FFE0
FFE0
FFE0
FFE0
FFE0
FFE0
FFE0
FFE0
FFE0
FFE0
FFE0
FFE0
FFE0
FFE0
FFE0
FFE0
FFE0
ENDCHAR
STARTCHAR 2590
ENCODING 9616
SWIDTH 990 0
DWIDTH 22 0
BBX 11 22 11 -6
BITMAP
FFE0
FFE0
FFE0
FFE0
FFE0
FFE0
FFE0
FFE0
FFE0
FFE0
FFE0
FFE0
FFE0
FFE0
FFE0
FFE0
FFE0
FFE0
FFE0
FFE0
FFE0
FFE0
ENDCHAR
STARTCHAR 2591
ENCODING 9617
SWIDTH 990 0
DWIDTH 22 0
BBX 18 19 1 -2
BITMAP
E1E3C0
E1E3C0
E1E3C0
E1E3C0
000000
000000
000000
000000
E1E3C0
E1E3C0
E1E3C0
E1E3C0
000000
000000
000000
E1E3C0
E1E3C0
E1E3C0
E1E3C0
ENDCHAR
STARTCHAR 2592
ENCODING 9618
SWIDTH 990 0
DWIDTH 22 0
BBX 22 21 0 -5
BITMAP
F1E1C0
F1E1C0
F1E1C0
0E1E3C
0E1E3C
0E1E3C
0E1E3C
F1E1C0
F1E1C0
F1E1C0
0E1E3C
0E1E3C
0E1E3C
0E1E3C
F1E1C0
F1E1C0
F1E1C0
F1E1C0
0E1E3C
0E1E3C
0E1E3C
ENDCHAR
STARTCHAR 2593
ENCODING 9619
SWIDTH 990 0
DWIDTH 22 0
BBX 22 22 0 -5
BITMAP
FFFFFC
FFFFFC
FFFFFC
FFFFFC
F1E1C0
F1E1C0
F1E1C0
F1E1C0
FFFFFC
FFFFFC
FFFFFC
FFFFFC
F1E1C0
F1E1C0
F1E1C0
FFFFFC
FFFFFC
FFFFFC
FFFFFC
F1E1C0
F1E1C0
F1E1C0
ENDCHAR
STARTCHAR 25A0
ENCODING 9632
SWIDTH 585 0
DWIDTH 13 0
BBX 16 16 -1 0
BITMAP
FFFF
FFFF
FFFF
FFFF
FFFF
FFFF
FFFF
FFFF
FFFF
FFFF
FFFF
FFFF
FFFF
FFFF
FFFF
FFFF
ENDCHAR
STARTCHAR 25A1
ENCODING 9633
SWIDTH 585 0
DWIDTH 13 0
BBX 11 11 1 0
BITMAP
FFE0
8020
8020
8020
8020
8020
8020
8020
8020
8020
FFE0
ENDCHAR
STARTCHAR 25AA
ENCODING 9642
SWIDTH 360 0
DWIDTH 8 0
BBX 6 6 1 3
BITMAP
FC
FC
FC
FC
FC
FC
ENDCHAR
STARTCHAR 25AB
ENCODING 9643
SWIDTH 360 0
DWIDTH 8 0
BBX 6 6 1 3
BITMAP
FC
84
84
84
84
FC
ENDCHAR
STARTCHAR 25AC
ENCODING 9644
SWIDTH 990 0
DWIDTH 22 0
BBX 16 8 3 0
BITMAP
FFFF
FFFF
FFFF
FFFF
FFFF
FFFF
FFFF
FFFF
ENDCHAR
STARTCHAR 25B2
ENCODING 9650
SWIDTH 990 0
DWIDTH 22 0
BBX 14 12 4 2
BITMAP
0300
0300
0780
0780
0FC0
0FC0
1FE0
3FF0
3FF0
7FF8
7FF8
FFFC
ENDCHAR
STARTCHAR 25B5
ENCODING 9653
SWIDTH 720 0
DWIDTH 16 0
BBX 10 10 3 1
BITMAP
0800
0C00
0C00
1E00
1200
3300
2100
6180
4080
FFC0
ENDCHAR
STARTCHAR 25B9
ENCODING 9657
SWIDTH 720 0
DWIDTH 16 0
BBX 10 10 3 1
BITMAP
C000
E000
9800
8600
8180
83C0
8E00
B800
E000
8000
ENDCHAR
STARTCHAR 25BA
ENCODING 9658
SWIDTH 990 0
DWIDTH 22 0
BBX 13 9 5 3
BITMAP
C000
F000
FE00
FFC0
FFF8
FFC0
FE00
F000
8000
ENDCHAR
STARTCHAR 25BC
ENCODING 9660
SWIDTH 990 0
DWIDTH 22 0
BBX 12 12 5 1
BITMAP
FFF0
FFF0
7FE0
7FE0
3FC0
3FC0
1F80
0F00
0F00
0600
0600
0400
ENDCHAR
STARTCHAR 25BF
ENCODING 9663
SWIDTH 720 0
DWIDTH 16 0
BBX 10 10 3 1
BITMAP
FFC0
4080
6180
2100
3300
1200
1E00
0C00
0C00
0800
ENDCHAR
STARTCHAR 25C3
ENCODING 9667
SWIDTH 720 0
DWIDTH 16 0
BBX 10 10 3 1
BITMAP
00C0
01C0
0640
1840
6040
F040
1C40
0740
01C0
0040
ENDCHAR
STARTCHAR 25C4
ENCODING 9668
SWIDTH 990 0
DWIDTH 22 0
BBX 13 9 4 3
BITMAP
0018
0078
03F8
1FF8
FFF8
1FF8
03F8
0078
0008
ENDCHAR
STARTCHAR 25C6
ENCODING 9670
SWIDTH 990 0
DWIDTH 22 0
BBX 12 12 5 2
BITMAP
0600
0F00
1F80
3FC0
7FE0
FFF0
7FE0
3FC0
1FC0
0F80
0700
0200
ENDCHAR
STARTCHAR 25C7
ENCODING 9671
SWIDTH 990 0
DWIDTH 22 0
BBX 14 15 4 0
BITMAP
0300
0280
0440
0860
1020
2010
4008
8004
4008
2010
1020
0840
0480
0300
0100
ENDCHAR
STARTCHAR 25CA
ENCODING 9674
SWIDTH 450 0
DWIDTH 10 0
BBX 10 16 0 0
BITMAP
0C00
1E00
1200
3300
2100
6180
4080
C040
40C0
4080
2180
2100
1300
1A00
0E00
0C00
ENDCHAR
STARTCHAR 25CB
ENCODING 9675
SWIDTH 585 0
DWIDTH 13 0
BBX 12 12 1 2
BITMAP
1F00
20C0
4060
8020
8010
8010
8010
8010
8020
4060
20C0
1F00
ENDCHAR
STARTCHAR 25CF
ENCODING 9679
SWIDTH 585 0
DWIDTH 13 0
BBX 11 12 1 0
BITMAP
0400
3F80
7FC0
7FE0
FFE0
FFE0
FFE0
FFE0
FFE0
7FC0
3FC0
1F00
ENDCHAR
STARTCHAR 25D8
ENCODING 9688
SWIDTH 585 0
DWIDTH 13 0
BBX 14 14 0 0
BITMAP
FFFC
FFFC
FFFC
FFFC
F8FC
F07C
F03C
F07C
F07C
F8FC
FFFC
FFFC
FFFC
FFFC
ENDCHAR
STARTCHAR 25D9
ENCODING 9689
SWIDTH 585 0
DWIDTH 13 0
BBX 16 16 -1 0
BITMAP
FFFF
FFFF
F81F
E7CF
EFF7
DFF7
DFFB
DFFB
DFFB
DFFB
DFF7
EFE7
F7CF
F83F
FFFF
FFFF
ENDCHAR
STARTCHAR 25E6
ENCODING 9702
SWIDTH 495 0
DWIDTH 11 0
BBX 9 8 1 2
BITMAP
3E00
6300
4100
C180
C180
4100
6300
3E00
ENDCHAR
STARTCHAR 263A
ENCODING 9786
SWIDTH 1035 0
DWIDTH 23 0
BBX 16 16 3 0
BITMAP
03E0
0C18
1004
2002
4003
4631
C631
8001
9009
9009
4C19
47F3
23C2
3004
0C18
07E0
ENDCHAR
STARTCHAR 263B
ENCODING 9787
SWIDTH 1035 0
DWIDTH 23 0
BBX 16 16 4 0
BITMAP
07E0
1FF0
3FFC
7FFC
FFFE
F39E
F39F
DFFF
FFF7
EFF7
E7CE
F01E
7C3C
3FFC
1FF0
07E0
ENDCHAR
STARTCHAR 263C
ENCODING 9788
SWIDTH 900 0
DWIDTH 20 0
BBX 17 17 2 0
BITMAP
008000
008000
208400
37EC00
1E3800
181800
180C00
100C00
F00F80
300C00
180C00
181800
1E7800
37EC00
208400
008000
008000
ENDCHAR
STARTCHAR 2640
ENCODING 9792
SWIDTH 765 0
DWIDTH 17 0
BBX 8 15 4 1
BITMAP
3C
62
41
C1
C1
41
62
1C
08
08
FF
08
08
08
08
ENDCHAR
STARTCHAR 2642
ENCODING 9794
SWIDTH 765 0
DWIDTH 17 0
BBX 12 13 2 3
BITMAP
01F0
0070
0070
00D0
0090
3D00
6300
4100
8100
8100
4100
6200
3C00
ENDCHAR
STARTCHAR 2660
ENCODING 9824
SWIDTH 540 0
DWIDTH 12 0
BBX 13 16 0 1
BITMAP
0200
0300
0700
0F80
1FC0
3FE0
7FF0
FFF8
FFF8
FFF8
FDF8
7AF0
0200
0300
0780
7FF0
ENDCHAR
STARTCHAR 2663
ENCODING 9827
SWIDTH 675 0
DWIDTH 15 0
BBX 16 16 -1 0
BITMAP
03C0
07E0
07F0
07F0
07F0
3FEC
7FFF
FFFF
FFFF
FF7F
7EFF
7CBE
0080
01C0
03E0
1FFC
ENDCHAR
STARTCHAR 2665
ENCODING 9829
SWIDTH 585 0
DWIDTH 13 0
BBX 15 17 -1 -1
BITMAP
3C38
7EFC
7EFE
FFFE
7FFE
7FFC
7FFC
3FF8
1FF8
1FF0
0FE0
07C0
03C0
0380
0100
0100
0100
ENDCHAR
STARTCHAR 2666
ENCODING 9830
SWIDTH 495 0
DWIDTH 11 0
BBX 12 16 0 0
BITMAP
0600
0600
0F00
1F80
3F80
3FC0
7FE0
FFF0
FFF0
7FE0
3FC0
1F80
1F80
0F00
0600
0600
ENDCHAR
STARTCHAR 266A
ENCODING 9834
SWIDTH 495 0
DWIDTH 11 0
BBX 9 16 1 0
BITMAP
0800
0800
0C00
0E00
0F00
0B00
0980
0880
0880
0880
0880
0900
7800
F800
F000
6000
ENDCHAR
STARTCHAR 266B
ENCODING 9835
SWIDTH 765 0
DWIDTH 17 0
BBX 12 15 2 -1
BITMAP
0F80
0FF0
0870
0810
0810
0810
0810
0810
0810
0810
F810
F0F0
F1F0
01E0
00C0
ENDCHAR
STARTCHAR 301A
ENCODING 12314
SWIDTH 720 0
DWIDTH 16 0
BBX 6 21 5 -3
BITMAP
FC
90
90
90
90
90
90
90
90
90
90
90
90
90
90
90
90
90
90
90
FC
ENDCHAR
STARTCHAR 301B
ENCODING 12315
SWIDTH 720 0
DWIDTH 16 0
BBX 6 21 5 -3
BITMAP
FC
24
24
24
24
24
24
24
24
24
24
24
24
24
24
24
24
24
24
24
FC
ENDCHAR
STARTCHAR EFBF
ENCODING 61375
SWIDTH 720 0
DWIDTH 16 0
BBX 20 19 -3 1
BITMAP
000030
000060
0000C0
0000C0
000180
000300
000700
380600
D80C00
181800
0C3800
0C3000
0C6000
04C000
06C000
078000
030000
020000
020000
ENDCHAR
STARTCHAR EFC0
ENCODING 61376
SWIDTH 720 0
DWIDTH 16 0
BBX 10 24 0 -4
BITMAP
0240
0240
0240
0240
0240
0240
0240
0240
0240
0240
0240
0240
0240
0240
0240
0240
0240
0240
0240
0240
0240
0240
FFC0
FFC0
ENDCHAR
STARTCHAR EFC1
ENCODING 61377
SWIDTH 720 0
DWIDTH 16 0
BBX 10 24 0 -4
BITMAP
FFC0
FFC0
0240
0240
0240
0240
0240
0240
0240
0240
0240
0240
0240
0240
0240
0240
0240
0240
0240
0240
0240
0240
0240
0240
ENDCHAR
STARTCHAR EFC2
ENCODING 61378
SWIDTH 720 0
DWIDTH 16 0
BBX 16 22 0 -6
BITMAP
FFFF
6006
6006
6006
6006
6006
6006
6006
6006
6006
6006
6006
6006
6006
6006
6006
6006
6006
6006
6006
6006
6006
ENDCHAR
STARTCHAR EFC3
ENCODING 61379
SWIDTH 720 0
DWIDTH 16 0
BBX 16 22 0 -6
BITMAP
6006
6006
6006
6006
6006
6006
6006
6006
6006
6006
6006
6006
6006
6006
6006
6006
6006
6006
6006
6006
FFFF
FFFF
ENDCHAR
STARTCHAR EFC4
ENCODING 61380
SWIDTH 720 0
DWIDTH 16 0
BBX 10 24 6 -4
BITMAP
9000
9000
9000
9000
9000
9000
9000
9000
9000
9000
9000
9000
9000
9000
9000
9000
9000
9000
9000
9000
9000
9000
FFC0
FFC0
ENDCHAR
STARTCHAR EFC5
ENCODING 61381
SWIDTH 720 0
DWIDTH 16 0
BBX 10 24 6 -4
BITMAP
FFC0
FFC0
9000
9000
9000
9000
9000
9000
9000
9000
9000
9000
9000
9000
9000
9000
9000
9000
9000
9000
9000
9000
9000
9000
ENDCHAR
STARTCHAR EFC6
ENCODING 61382
SWIDTH 720 0
DWIDTH 16 0
BBX 14 23 1 -6
BITMAP
0100
1FE0
3830
6018
400C
C00C
C00C
C00C
C00C
C00C
C00C
C00C
C00C
C00C
C00C
C00C
C00C
C00C
C00C
C00C
C00C
C00C
C00C
ENDCHAR
STARTCHAR EFC7
ENCODING 61383
SWIDTH 720 0
DWIDTH 16 0
BBX 14 22 1 -6
BITMAP
C00C
C00C
C00C
C00C
C00C
C00C
C00C
C00C
C00C
C00C
C00C
C00C
C00C
C00C
C00C
C00C
C00C
C00C
6018
3030
1FE0
0300
ENDCHAR
STARTCHAR EFC8
ENCODING 61384
SWIDTH 720 0
DWIDTH 16 0
BBX 14 22 1 -6
BITMAP
C00C
C00C
C00C
C00C
C00C
C00C
C00C
C00C
C00C
C00C
C00C
C00C
C00C
C00C
C00C
C00C
C00C
C00C
C00C
C00C
C00C
C00C
ENDCHAR
STARTCHAR EFC9
ENCODING 61385
SWIDTH 720 0
DWIDTH 16 0
BBX 4 24 6 -4
BITMAP
90
90
90
90
90
90
90
90
90
90
90
90
90
90
90
90
90
90
90
90
90
90
90
90
ENDCHAR
STARTCHAR EFCA
ENCODING 61386
SWIDTH 720 0
DWIDTH 16 0
BBX 10 13 3 -2
BITMAP
0800
0C00
0C00
1600
1200
2300
2100
4180
4080
FFC0
0000
0000
FFC0
ENDCHAR
STARTCHAR EFCB
ENCODING 61387
SWIDTH 720 0
DWIDTH 16 0
BBX 16 5 0 4
BITMAP
FFFF
FFFF
0000
FFFF
FFFF
ENDCHAR
STARTCHAR EFCC
ENCODING 61388
SWIDTH 720 0
DWIDTH 16 0
BBX 10 24 7 -4
BITMAP
0080
00C0
0180
0300
0300
0600
0C00
1C00
1800
3000
6000
6000
C000
6000
3000
3000
1800
0C00
0E00
0600
0300
0180
0180
0080
ENDCHAR
STARTCHAR EFCD
ENCODING 61389
SWIDTH 720 0
DWIDTH 16 0
BBX 17 24 0 -4
BITMAP
800000
800000
C00000
600000
700000
300000
180000
0C0000
0C0000
060000
030000
038000
018000
00C000
006000
006000
003000
001800
000C00
000C00
000600
000300
000380
000100
ENDCHAR
STARTCHAR EFCE
ENCODING 61390
SWIDTH 720 0
DWIDTH 16 0
BBX 15 8 0 -4
BITMAP
0006
0006
000C
000C
001C
007C
FFFC
FFF8
ENDCHAR
STARTCHAR EFCF
ENCODING 61391
SWIDTH 720 0
DWIDTH 16 0
BBX 10 24 -1 -4
BITMAP
4000
C000
6000
3000
3000
1800
0C00
0600
0600
0300
0180
0180
00C0
0180
0300
0300
0600
0C00
0C00
1800
3000
6000
6000
4000
ENDCHAR
STARTCHAR EFD0
ENCODING 61392
SWIDTH 720 0
DWIDTH 16 0
BBX 14 8 0 11
BITMAP
FFF0
FFF8
00F8
0038
001C
001C
000C
000C
ENDCHAR
STARTCHAR EFD1
ENCODING 61393
SWIDTH 720 0
DWIDTH 16 0
BBX 17 23 0 -3
BITMAP
000180
000300
000600
000600
000C00
001800
003800
003000
006000
00C000
00C000
018000
030000
060000
060000
0C0000
180000
180000
300000
600000
C00000
C00000
800000
ENDCHAR
STARTCHAR EFD2
ENCODING 61394
SWIDTH 720 0
DWIDTH 16 0
BBX 17 24 0 -4
BITMAP
000100
000180
000300
000600
000C00
000C00
001800
003000
003000
006000
00C000
018000
018000
030000
060000
0C0000
0C0000
180000
300000
300000
600000
C00000
FFFF00
FFFF00
ENDCHAR
STARTCHAR EFD3
ENCODING 61395
SWIDTH 720 0
DWIDTH 16 0
BBX 16 24 0 -4
BITMAP
FFFF
FFFF
C000
6000
6000
3000
1800
0C00
0C00
0600
0300
0300
0180
00C0
0060
0060
0030
0018
0018
000C
0006
0003
0003
0001
ENDCHAR
STARTCHAR EFD4
ENCODING 61396
SWIDTH 720 0
DWIDTH 16 0
BBX 10 22 3 -6
BITMAP
0C00
0C00
0C00
0C00
0C00
0C00
3F00
4C80
8C40
8C40
8C40
8C40
8C40
4C80
3D00
0E00
0C00
0C00
0C00
0C00
0C00
0C00
ENDCHAR
STARTCHAR EFD5
ENCODING 61397
SWIDTH 585 0
DWIDTH 13 0
BBX 11 16 1 -5
BITMAP
03E0
0DE0
1000
1000
3000
3000
2000
3F00
6000
6000
6000
4000
C000
C000
C000
C000
ENDCHAR
STARTCHAR EFD6
ENCODING 61398
SWIDTH 990 0
DWIDTH 22 0
BBX 16 8 2 7
BITMAP
FEE7
10A7
10A5
10A5
10BD
1099
1099
1099
ENDCHAR
STARTCHAR EFD7
ENCODING 61399
SWIDTH 990 0
DWIDTH 22 0
BBX 17 17 3 -1
BITMAP
07E000
181800
200400
400200
83C100
877100
840100
8C0080
8C0080
8C0100
863100
83E100
400200
600200
300400
081800
07E000
ENDCHAR
STARTCHAR EFD8
ENCODING 61400
SWIDTH 990 0
DWIDTH 22 0
BBX 17 17 3 -1
BITMAP
07E000
181800
200400
400200
87E100
866100
863100
866080
87C080
864100
866100
862100
400200
400200
300400
081800
07E000
ENDCHAR
STARTCHAR EFD9
ENCODING 61401
SWIDTH 990 0
DWIDTH 22 0
BBX 21 9 1 6
BITMAP
FF7878
9B38E0
9938E0
192D60
182D60
182760
182660
182660
7C72F0
ENDCHAR
STARTCHAR EFDA
ENCODING 61402
SWIDTH 990 0
DWIDTH 22 0
BBX 17 17 3 -1
BITMAP
07E000
181800
200400
418200
826100
862100
8C0100
8C0080
8C0080
840100
862100
83C100
400200
400200
300400
081800
07E000
ENDCHAR
STARTCHAR EFDB
ENCODING 61403
SWIDTH 990 0
DWIDTH 22 0
BBX 17 17 3 -1
BITMAP
07E000
181800
200400
400200
4FE100
823100
823100
826080
83C080
826100
826900
8FB900
400200
600200
300400
081800
07E000
ENDCHAR
STARTCHAR EFDC
ENCODING 61404
SWIDTH 720 0
DWIDTH 16 0
BBX 6 24 3 -4
BITMAP
0C
0C
0C
0C
0C
0C
0C
0C
0C
0C
0C
0C
0C
0C
0C
0C
0C
8C
CC
6C
2C
3C
1C
0C
ENDCHAR
STARTCHAR EFDD
ENCODING 61405
SWIDTH 720 0
DWIDTH 16 0
BBX 2 25 7 -5
BITMAP
C0
C0
C0
C0
C0
C0
C0
C0
C0
C0
C0
C0
C0
C0
C0
C0
C0
C0
C0
C0
C0
C0
C0
C0
C0
ENDCHAR
STARTCHAR EFDE
ENCODING 61406
SWIDTH 720 0
DWIDTH 16 0
BBX 6 22 3 -6
BITMAP
0C
0C
0C
0C
0C
0C
0C
0C
0C
0C
0C
0C
0C
0C
0C
0C
0C
0C
1C
18
30
C0
ENDCHAR
STARTCHAR EFDF
ENCODING 61407
SWIDTH 720 0
DWIDTH 16 0
BBX 6 22 7 -6
BITMAP
C0
C0
C0
C0
C0
C0
C0
E0
60
30
0C
18
60
60
E0
C0
C0
C0
C0
C0
C0
C0
ENDCHAR
STARTCHAR EFE0
ENCODING 61408
SWIDTH 720 0
DWIDTH 16 0
BBX 6 22 3 -5
BITMAP
C0
30
18
0C
0C
0C
0C
0C
0C
0C
0C
0C
0C
0C
0C
0C
0C
0C
0C
0C
0C
0C
ENDCHAR
STARTCHAR EFE1
ENCODING 61409
SWIDTH 720 0
DWIDTH 16 0
BBX 6 22 7 -6
BITMAP
C0
C0
C0
C0
C0
C0
C0
C0
C0
C0
C0
C0
C0
C0
C0
C0
C0
C0
E0
60
30
0C
ENDCHAR
STARTCHAR EFE2
ENCODING 61410
SWIDTH 720 0
DWIDTH 16 0
BBX 6 22 3 -6
BITMAP
0C
0C
0C
0C
0C
0C
0C
0C
18
30
C0
60
18
0C
0C
0C
0C
0C
0C
0C
0C
0C
ENDCHAR
STARTCHAR EFE3
ENCODING 61411
SWIDTH 720 0
DWIDTH 16 0
BBX 6 22 7 -6
BITMAP
3C
60
60
E0
C0
C0
C0
C0
C0
C0
C0
C0
C0
C0
C0
C0
C0
C0
C0
C0
C0
C0
ENDCHAR
STARTCHAR EFE4
ENCODING 61412
SWIDTH 720 0
DWIDTH 16 0
BBX 9 24 0 -4
BITMAP
0180
0180
0180
0180
0180
0180
0180
0180
0180
0180
0180
0180
0180
0180
0180
0180
0180
0180
0180
0180
0180
0180
FF80
FF80
ENDCHAR
STARTCHAR EFE5
ENCODING 61413
SWIDTH 720 0
DWIDTH 16 0
BBX 9 24 0 -4
BITMAP
FF80
FF80
0180
0180
0180
0180
0180
0180
0180
0180
0180
0180
0180
0180
0180
0180
0180
0180
0180
0180
0180
0180
0180
0180
ENDCHAR
STARTCHAR EFE6
ENCODING 61414
SWIDTH 720 0
DWIDTH 16 0
BBX 9 24 7 -4
BITMAP
C000
C000
C000
C000
C000
C000
C000
C000
C000
C000
C000
C000
C000
C000
C000
C000
C000
C000
C000
C000
C000
C000
FF80
FF80
ENDCHAR
STARTCHAR EFE7
ENCODING 61415
SWIDTH 720 0
DWIDTH 16 0
BBX 9 24 7 -4
BITMAP
FF80
FF80
C000
C000
C000
C000
C000
C000
C000
C000
C000
C000
C000
C000
C000
C000
C000
C000
C000
C000
C000
C000
C000
C000
ENDCHAR
STARTCHAR EFE8
ENCODING 61416
SWIDTH 720 0
DWIDTH 16 0
BBX 16 1 0 6
BITMAP
FFFF
ENDCHAR
STARTCHAR EFE9
ENCODING 61417
SWIDTH 720 0
DWIDTH 16 0
BBX 16 3 0 18
BITMAP
0018
FFFF
FFFF
ENDCHAR
STARTCHAR EFEA
ENCODING 61418
SWIDTH 720 0
DWIDTH 16 0
BBX 16 2 0 18
BITMAP
FFFF
FFFF
ENDCHAR
STARTCHAR EFEB
ENCODING 61419
SWIDTH 720 0
DWIDTH 16 0
BBX 16 2 0 -4
BITMAP
FFFF
FFFF
ENDCHAR
STARTCHAR EFEC
ENCODING 61420
SWIDTH 540 0
DWIDTH 12 0
BBX 10 12 1 0
BITMAP
0F00
3FC0
30C0
30C0
3000
3E00
7000
C000
C0C0
C1C0
7F80
3E00
ENDCHAR
STARTCHAR EFFA
ENCODING 61434
SWIDTH 990 0
DWIDTH 22 0
BBX 16 16 3 0
BITMAP
03C0
0FF0
1FFC
3FFE
7FFE
7FFF
FFFF
FFFF
FFFF
FFFF
7FFF
7FFE
7FFE
3FFC
1FF8
07E0
ENDCHAR
STARTCHAR EFFB
ENCODING 61435
SWIDTH 990 0
DWIDTH 22 0
BBX 16 16 3 0
BITMAP
FFFF
FFFF
FFFF
FFFF
FFFF
FFFF
FFFF
FFFF
FFFF
FFFF
FFFF
FFFF
FFFF
FFFF
FFFF
FFFF
ENDCHAR
STARTCHAR EFFC
ENCODING 61436
SWIDTH 990 0
DWIDTH 22 0
BBX 16 16 3 0
BITMAP
FFFF
8001
8001
8001
8001
8001
8001
8001
8001
8001
8001
8001
8001
8001
8001
FFFF
ENDCHAR
STARTCHAR EFFD
ENCODING 61437
SWIDTH 990 0
DWIDTH 22 0
BBX 16 16 3 0
BITMAP
07E0
0818
3004
2002
4002
4001
8001
8001
8001
8001
4001
4002
2002
3004
0818
07E0
ENDCHAR
STARTCHAR EFFE
ENCODING 61438
SWIDTH 765 0
DWIDTH 17 0
BBX 15 15 1 0
BITMAP
03F0
0F1C
1B0E
330E
670E
670E
C38C
C398
C3E0
C1C0
C1C0
61C0
6180
3180
1E00
ENDCHAR
STARTCHAR EFFF
ENCODING 61439
SWIDTH 495 0
DWIDTH 11 0
BBX 11 10 0 6
BITMAP
1F00
2080
5B40
9B40
9B20
9B20
9540
5540
2080
1F00
ENDCHAR
STARTCHAR FB00
ENCODING 64256
SWIDTH 540 0
DWIDTH 12 0
BBX 12 16 0 0
BITMAP
1C70
3CF0
30C0
30C0
FFF0
FFF0
30C0
30C0
30C0
30C0
30C0
30C0
30C0
30C0
30C0
30C0
ENDCHAR
STARTCHAR FB01
ENCODING 64257
SWIDTH 495 0
DWIDTH 11 0
BBX 10 16 0 0
BITMAP
1CC0
3CC0
3000
3000
FCC0
FCC0
30C0
30C0
30C0
30C0
30C0
30C0
30C0
30C0
30C0
30C0
ENDCHAR
STARTCHAR FB02
ENCODING 64258
SWIDTH 495 0
DWIDTH 11 0
BBX 10 16 0 0
BITMAP
1CC0
3CC0
30C0
30C0
FCC0
FCC0
30C0
30C0
30C0
30C0
30C0
30C0
30C0
30C0
30C0
30C0
ENDCHAR
STARTCHAR FB03
ENCODING 64259
SWIDTH 765 0
DWIDTH 17 0
BBX 16 16 0 0
BITMAP
1C73
3CF3
30C0
30C0
FDF3
FDF3
30C3
30C3
30C3
30C3
30C3
30C3
30C3
30C3
30C3
30C3
ENDCHAR
STARTCHAR FB04
ENCODING 64260
SWIDTH 765 0
DWIDTH 17 0
BBX 16 16 0 0
BITMAP
1C73
3CF3
30C3
30C3
FDF3
FDF3
30C3
30C3
30C3
30C3
30C3
30C3
30C3
30C3
30C3
30C3
ENDCHAR
ENDFONT
